<svg xmlns="http://www.w3.org/2000/svg" xmlns:xlink="http://www.w3.org/1999/xlink" viewBox="0 0 69.55 69.55"><defs><style>.a{fill:none;}.b{clip-path:url(#a);}.c{clip-path:url(#b);}.d{fill:#fff;}.e{fill:#c49a6c;}</style><clipPath id="a" transform="translate(0 0)"><rect class="a" width="69.55" height="69.55"/></clipPath><clipPath id="b" transform="translate(0 0)"><rect class="a" width="69.55" height="69.55"/></clipPath></defs><title>amenity-trails</title><g class="b"><g class="c"><path class="d" d="M69.55,34.77A34.77,34.77,0,1,1,34.77,0,34.77,34.77,0,0,1,69.55,34.77" transform="translate(0 0)"/><path class="e" d="M51.93,27.36A11.41,11.41,0,0,0,44.61,30L43.2,28.78l1.43-3.93h2.82a1.62,1.62,0,1,0,0-3.24H38.77a1.62,1.62,0,1,0,0,3.24h2.42l-.88,2.41L25.92,22.4l1-2.72h4.35a1.62,1.62,0,1,0,0-3.24H25.77a1.62,1.62,0,0,0-1.52,1.07l-2.13,5.86-.82,2.19a1.69,1.69,0,0,0-.07.27l-.66,1.82a11.47,11.47,0,1,0,3,1.17l.24-.65.78.26L35.79,41.63A1.62,1.62,0,0,0,37,42.2h.17l3.66-.39A11.46,11.46,0,1,0,51.93,27.36M17.77,40.11a1.6,1.6,0,0,0,.55.1,1.62,1.62,0,0,0,1.52-1.07l2.62-7.21a8.23,8.23,0,1,1-3-1.2L16.8,38a1.62,1.62,0,0,0,1,2.08M51.93,47a8.23,8.23,0,0,1-7.78-5.59l8.41-.9a1.62,1.62,0,0,0,.89-2.83L47.1,32.18A8.21,8.21,0,1,1,51.93,47m-7-12.47,3.62,3.15-4.78.51a8.16,8.16,0,0,1,1.17-3.67m-2.47-2.15a11.39,11.39,0,0,0-2,6.17l-.88.09L42,32ZM39.2,30.3l-2.64,7.22L26.91,26.16Z" transform="translate(0 0)"/></g></g></svg>