<svg xmlns="http://www.w3.org/2000/svg" xmlns:xlink="http://www.w3.org/1999/xlink" viewBox="0 0 69.55 69.55"><defs><style>.a{fill:none;}.b{clip-path:url(#a);}.c{clip-path:url(#b);}.d{fill:#fff;}.e{fill:#c49a6c;}</style><clipPath id="a" transform="translate(0 0)"><rect class="a" width="69.55" height="69.55"/></clipPath><clipPath id="b" transform="translate(0 0)"><rect class="a" width="69.55" height="69.55"/></clipPath></defs><title>amenity-parks</title><g class="b"><g class="c"><path class="d" d="M69.55,34.77A34.77,34.77,0,1,1,34.77,0,34.77,34.77,0,0,1,69.55,34.77" transform="translate(0 0)"/><path class="e" d="M19.61,32.12H49.82v3.56H53.4V32.12h6.43V28.54H53.4V26.79h6.43V23.21H53.4V21.46h6.43V17.88H53.4V16.5H49.82v1.39H19.61V16.5H16v1.39H9.6v3.57H16v1.75H9.6v3.57H16v1.75H9.6v3.57H16v3.56h3.57Zm0-10.66H49.82v1.75H19.61Zm0,5.33H49.82v1.75H19.61Z" transform="translate(0 0)"/><rect class="e" x="16.04" y="46.05" width="3.57" height="5.87"/><rect class="e" x="49.82" y="46.05" width="3.57" height="5.87"/><rect class="e" x="8.46" y="37.46" width="52.51" height="6.8"/></g></g></svg>