<svg xmlns="http://www.w3.org/2000/svg" xmlns:xlink="http://www.w3.org/1999/xlink" viewBox="0 0 69.55 69.55"><defs><style>.a{fill:none;}.b{clip-path:url(#a);}.c{clip-path:url(#b);}.d{fill:#fff;}.e{fill:#c49a6c;}</style><clipPath id="a" transform="translate(0 0)"><rect class="a" width="69.55" height="69.55"/></clipPath><clipPath id="b" transform="translate(0 0)"><rect class="a" width="69.55" height="69.55"/></clipPath></defs><title>amenity-shopping</title><g class="b"><g class="c"><path class="d" d="M69.55,34.77A34.77,34.77,0,1,1,34.77,0,34.77,34.77,0,0,1,69.55,34.77" transform="translate(0 0)"/><path class="e" d="M58.54,31.28H55l-.09-2.65a4,4,0,0,0-.41-1.78A3.16,3.16,0,0,0,52,25a4,4,0,0,1,1.15,1.2,2.69,2.69,0,0,1,.56.62,3.25,3.25,0,0,1,.52,1.79h0l.09,2.63h-1l-.05-2.64a4,4,0,0,0-.41-1.78l-.13-.23a3.48,3.48,0,0,0-.74-.89,3,3,0,0,0-1.17-.62A2.78,2.78,0,0,0,50.1,25h-.5a3.46,3.46,0,0,0-2.92,3.6l-.09,2.65H43.71l-1.26-9.57H36.61L36.48,18a4.85,4.85,0,0,0-4.09-5A5.61,5.61,0,0,1,34,14.63,4.34,4.34,0,0,1,35.51,18h0l.13,3.69H34.21L34.14,18a5.34,5.34,0,0,0-1.8-4.07,4.17,4.17,0,0,0-1.64-.87,3.91,3.91,0,0,0-1-.13h-.36c-2.44,0-4.42,2.27-4.43,5.06l-.13,3.71H24a5.61,5.61,0,0,1,.43,2.15l.11,3.24h-.7l-.11-3.23a4.87,4.87,0,0,0-.5-2.17,3.85,3.85,0,0,0-3-2.22A4.88,4.88,0,0,1,21.55,21a3.33,3.33,0,0,1,.68.76,4,4,0,0,1,.63,2.18h0L23,27.11H21.74l-.06-3.22a4.88,4.88,0,0,0-.5-2.17L21,21.43a4.25,4.25,0,0,0-.9-1.08,3.66,3.66,0,0,0-1.43-.75,3.4,3.4,0,0,0-.86-.11h-.61a4.21,4.21,0,0,0-3.56,4.39l-.11,3.23H9.15L7.28,50.39h20.3l3.48-1.9h9.79l-.24,1.9h17.5l2.84-1.56ZM16.48,27.11l.06-3.21h0A3.8,3.8,0,0,1,17.75,21h-.24a2,2,0,0,0-1.16.39,4.85,4.85,0,0,0-.65,2.45l-.06,3.22H14.39l.11-3.2h0a3.77,3.77,0,0,1,1.32-2.95,2.71,2.71,0,0,1,1.43-.6h.57a2.59,2.59,0,0,1,.86.15,2.85,2.85,0,0,1,.94.56,3.35,3.35,0,0,1,.58.67,4,4,0,0,1,.63,2.18l.06,3.22Zm11,22.58h0L25.76,27.82h1.83l2.74,20.26Zm.64-28L28.23,18h0a4.37,4.37,0,0,1,1.39-3.27h-.27a2.25,2.25,0,0,0-1.33.45A5.56,5.56,0,0,0,27.26,18l-.07,3.7H25.77L25.89,18v0a3.89,3.89,0,0,1,3.16-4.08l.29,0h.36a3,3,0,0,1,1,.17A4.07,4.07,0,0,1,33.17,18l.07,3.7ZM41,47.63l-.09,0h0l-2-25.15H41.7l1.23,9.11Zm8-16.36.05-2.63h0a3.12,3.12,0,0,1,1-2.34h-.19a1.62,1.62,0,0,0-1,.32,4,4,0,0,0-.54,2l-.05,2.64h-1l.09-2.63h0a3.09,3.09,0,0,1,1.08-2.42,2.22,2.22,0,0,1,1.18-.49h.46a2.11,2.11,0,0,1,.71.12,2.3,2.3,0,0,1,.77.46,2.75,2.75,0,0,1,.48.55,3.26,3.26,0,0,1,.52,1.79l.05,2.64Zm9.07,18.53h0l-1.44-18h1.5l2.25,16.63Z" transform="translate(0 0)"/></g></g></svg>