<svg xmlns="http://www.w3.org/2000/svg" xmlns:xlink="http://www.w3.org/1999/xlink" viewBox="0 0 69.55 69.55"><defs><style>.a{fill:none;}.b{clip-path:url(#a);}.c{clip-path:url(#b);}.d{fill:#fff;}.e{fill:#c49a6c;fill-rule:evenodd;}</style><clipPath id="a" transform="translate(0 0)"><rect class="a" width="69.55" height="69.55"/></clipPath><clipPath id="b" transform="translate(0 0)"><rect class="a" width="69.55" height="69.55"/></clipPath></defs><title>amenity-fishing</title><g class="b"><g class="c"><path class="d" d="M69.55,34.77A34.77,34.77,0,1,1,34.77,0,34.77,34.77,0,0,1,69.55,34.77" transform="translate(0 0)"/><path class="e" d="M12.06,45.67c4.31-1,7.13-1.6,14.83,2.72,5.54-3.39,9.54-3.14,15,.28,6.39-4.54,10.59-4.75,14.83-2.93-4.53-4.35-9.12-3.86-15.12-1-3.8-2.73-9.45-2.95-14.94-.09-5.73-2.35-9.08-2.2-14.56,1m-.34-12.15c5-1,8.64-2.28,14.86,1.81,5.51-3,10.48-2.79,15.28,0,7.59-4.71,10.07-3.4,14.83-1.65-5.56-4.78-9.12-4.89-15.12-2-5.34-2.73-9.71-2.86-15.19,0-6.25-2.6-9.17-1.6-14.65,1.84m.26,6c5.91-.8,8.45-1.9,14.91,2,6-3.23,9.56-2.35,15.05.13,6.45-3.92,10.28-4.14,14.83-2.43-5-4.26-9.12-3.88-15.13-1-5.35-2.73-9.44-2.84-14.93,0-6.25-2.6-9.25-1.68-14.74,1.24" transform="translate(0 0)"/></g></g></svg>