<svg xmlns="http://www.w3.org/2000/svg" xmlns:xlink="http://www.w3.org/1999/xlink" viewBox="0 0 69.55 69.55"><defs><style>.a{fill:none;}.b{clip-path:url(#a);}.c{clip-path:url(#b);}.d{fill:#fff;}.e{fill:#c49a6c;}</style><clipPath id="a" transform="translate(0 0)"><rect class="a" width="69.55" height="69.55"/></clipPath><clipPath id="b" transform="translate(0 0)"><rect class="a" width="69.55" height="69.55"/></clipPath></defs><title>amenity-sports</title><g class="b"><g class="c"><path class="d" d="M69.55,34.77A34.77,34.77,0,1,1,34.77,0,34.77,34.77,0,0,1,69.55,34.77" transform="translate(0 0)"/><path class="e" d="M64,34.08h0l-5.69,2.76h0l-3,1.42-.15.07-.2.1L52.36,39.7l-.08,0h0l-4.23,2,0,0-.24.11-.14.06-.22.1-1.8.83L43.3,43.9l-1.21.56L38.7,46l-.1,0-.11.05-1.94.9-.23.11-.08,0c-6.86,3.21-12,5.72-15.75,7.67l-.79.42h0a41.39,41.39,0,0,0-5.56,3.31,2.39,2.39,0,0,1,0,.76,1.39,1.39,0,0,1-.69,1.14l-.14.08a1.34,1.34,0,0,1-1,.08,2.64,2.64,0,0,1-1.5-1.31l-.22-.41-.23-.4c-.62-1.08-.5-2.32.26-2.77l.14-.08a1.29,1.29,0,0,1,1-.1l.3.11a2.46,2.46,0,0,1,.62.43,41.28,41.28,0,0,0,5.74-3h0l.77-.45c3.63-2.15,8.48-5.21,14.82-9.34l.08,0,.22-.14L36.17,42l.1-.07.1-.06,3.12-2,1.12-.74,2.1-1.39,1.65-1.09.2-.13.13-.08.22-.15,0,0,3.91-2.55,0,0,.07,0L51.39,32l.19-.12.14-.09L54.49,30h0l5.34-3.38,0,0c1.85-1.16,3.57-2.42,5.07-2l.05,0a5.14,5.14,0,0,1,2.62,2.56,5.14,5.14,0,0,1,.8,3.57C68,32.31,66,33.11,64,34.08" transform="translate(0 0)"/><path class="e" d="M51.6,45.58a7.71,7.71,0,1,0,5.3,9.52,7.72,7.72,0,0,0-5.3-9.52m1.15,3.66a2.2,2.2,0,0,1,.08-.22,5.2,5.2,0,0,1,1.77,3.08,2.29,2.29,0,0,1-1.85-2.87M47,56.94c-.27-.08-.55-.18-.86-.3l-.45-.17a4.88,4.88,0,0,1-1.3-3.37l.33-.51a4.4,4.4,0,0,1,1-1.28,3,3,0,0,1,2.56-.43l.1,0a3.12,3.12,0,0,1,1.83,1.58,3.21,3.21,0,0,1-1.65,4.41,2.34,2.34,0,0,1-1.63,0m7.74-2.45a5.46,5.46,0,0,1-6.17,3.89,3.66,3.66,0,0,0,.59-.18,4.62,4.62,0,0,0,2.36-6.34,4.51,4.51,0,0,0-2.65-2.28,4.41,4.41,0,0,0-3.9.58,3.51,3.51,0,0,0-.29.24,5.46,5.46,0,0,1,7.82-2l0,0a2.8,2.8,0,0,0-.27.64,2.83,2.83,0,0,0,2.71,3.61h0a5.25,5.25,0,0,1-.19,1.8" transform="translate(0 0)"/><path class="e" d="M27.14,11.13a19.2,19.2,0,1,0,19.2,19.2,19.22,19.22,0,0,0-19.2-19.2M39,36.17c0,.56-.06,1.08-.09,1.64l-.06,1L31.31,44l-.85-.28-1.54-.51-1.12-.37V35.79h0c.42-.23,1-.55,1.65-.93s1.39-.84,2.1-1.31c.56-.37,1.08-.76,1.57-1.14l.2.22L39,34.91H39c0,.45,0,.88-.06,1.26M15.44,38.83c0-.36,0-.7-.06-1,0-.56-.06-1.08-.09-1.64L15.24,35h0l5.83-2.34.14-.15c.47.36,1,.73,1.49,1.07.71.48,1.44.92,2.1,1.31s1.24.71,1.66.93h0v7.06l-1.12.37-1.54.51L23,44Zm0-17.65.71-.24,3.3-.82,3.12,5.13.22.31c-.19.44-.37.92-.55,1.43-.28.79-.54,1.61-.77,2.37-.15.5-.28,1-.39,1.37l-.74.79-5.27,2.15-.35,0L14,32.82l-1-1.28-.62-.76ZM41.31,31.53l-1,1.28-.69.85h-.21L34.1,31.5l-.95-1c-.1-.35-.21-.73-.33-1.15-.23-.75-.49-1.58-.77-2.37-.16-.46-.33-.9-.5-1.3l.35-.48L35,20.11l2.75.69.1,0,1.18.4,3,9.41-.73.89M27.14,13.08a17.16,17.16,0,0,1,5.21.81l-.05.06-.56.64H22.55L22,13.94l-.05-.06a17.16,17.16,0,0,1,5.21-.81M22,16.75l.61-.85h9.15l.61.85,1,1.36.74,1-3.25,5.35-.22.3-.92-.11c-.84-.09-1.86-.18-2.53-.18s-1.69.09-2.53.18l-.79.09-.18-.25L20.3,19l.66-.9,1-1.36M9.91,31c0-.22,0-.44,0-.66a17.15,17.15,0,0,1,3.75-10.72l.19.36.38.71-3.12,9.74-1,.5L9.91,31M13,40.19l.57-.11,1.07-.22L22.16,45l.18,1.38.07.5A17.3,17.3,0,0,1,13,40.19m18.87,6.72.07-.5L32.12,45l7.51-5.17,1.07.22.57.11a17.3,17.3,0,0,1-9.41,6.72m12.35-16-.85-.41-3.2-10,.29-.54.19-.36a17.16,17.16,0,0,1,3.75,10.72c0,.22,0,.44,0,.66l-.16-.07" transform="translate(0 0)"/></g></g></svg>