<svg xmlns="http://www.w3.org/2000/svg" xmlns:xlink="http://www.w3.org/1999/xlink" viewBox="0 0 69.55 69.55"><defs><style>.a{fill:none;}.b{clip-path:url(#a);}.c{clip-path:url(#b);}.d{fill:#fff;}.e{fill:#c49a6c;}</style><clipPath id="a" transform="translate(0 0)"><rect class="a" width="69.55" height="69.55"/></clipPath><clipPath id="b" transform="translate(0 0)"><rect class="a" width="69.55" height="69.55"/></clipPath></defs><title>amenity-school</title><g class="b"><g class="c"><path class="d" d="M69.55,34.77A34.77,34.77,0,1,1,34.77,0,34.77,34.77,0,0,1,69.55,34.77" transform="translate(0 0)"/><path class="e" d="M46.58,46.49a30.43,30.43,0,0,1-25,0V32.36l12,3.55a1.93,1.93,0,0,0,1.1,0l12-3.55ZM34.08,34.06,16.33,28.79v3.14a2.2,2.2,0,0,1,1.1,1.9v3.82a2.2,2.2,0,1,1-4.4,0V33.83a2.2,2.2,0,0,1,1.1-1.9V28.13L10,26.91l24.09-7.15,24.09,7.15Z" transform="translate(0 0)"/></g></g></svg>