<svg xmlns="http://www.w3.org/2000/svg" xmlns:xlink="http://www.w3.org/1999/xlink" viewBox="0 0 69.55 69.55"><defs><style>.a{fill:none;}.b{clip-path:url(#a);}.c{clip-path:url(#b);}.d{fill:#fff;}.e{fill:#c49a6c;}</style><clipPath id="a" transform="translate(0 0)"><rect class="a" width="69.55" height="69.55"/></clipPath><clipPath id="b" transform="translate(0 0)"><rect class="a" width="69.55" height="69.55"/></clipPath></defs><title>amenity-greenspace-and-marshland</title><g class="b"><g class="c"><path class="d" d="M69.55,34.77A34.77,34.77,0,1,1,34.77,0,34.77,34.77,0,0,1,69.55,34.77" transform="translate(0 0)"/><path class="e" d="M51.09,45.6v-6c3.57-.58,6.24-3.2,6.24-10.18,0-8-3.55-18.83-7.93-18.83s-7.93,10.78-7.93,18.83c0,7,2.67,9.61,6.24,10.18v3.72A32.28,32.28,0,0,0,35.53,39.6V36.71c2.71-.44,4.74-2.43,4.74-7.74,0-6.11-2.7-14.3-6-14.3s-6,8.19-6,14.3c0,5.3,2,7.3,4.74,7.74v2.69c-.56,0-1.11,0-1.68,0A38.56,38.56,0,0,0,24,40V37.92c1.72-.28,3-1.54,3-4.91,0-3.88-1.71-9.07-3.82-9.07S19.38,29.14,19.38,33c0,3.36,1.29,4.63,3,4.91V40.4a30.58,30.58,0,0,0-6.67,2.42l.73,0c.34,0,.76,0,1.23,0s1,0,1.6.05,1.22.08,1.89.14,1.38.15,2.11.26,1.48.25,2.24.41,1.53.36,2.29.6c.38.11.76.26,1.14.38s.75.28,1.11.46a12.12,12.12,0,0,1,2.09,1.16,7.32,7.32,0,0,1,1.73,1.62A5.14,5.14,0,0,1,34.85,50l.07.55a5,5,0,0,1,0,.52,5.12,5.12,0,0,1-.13.94,7.83,7.83,0,0,1-.23.78,6.45,6.45,0,0,1-.28.65l-.05.11H55.76a.15.15,0,0,0,.15-.18,13.11,13.11,0,0,0-4.82-7.77" transform="translate(0 0)"/><path class="e" d="M25.23,46.95a2,2,0,0,1-1-.26,3.11,3.11,0,0,0-2.87,0,2.2,2.2,0,0,1-2.06,0,3.11,3.11,0,0,0-2.87,0,2.2,2.2,0,0,1-2.06,0,2.84,2.84,0,0,0-1.43-.35.46.46,0,1,0,0,.91,2,2,0,0,1,1,.26,3.11,3.11,0,0,0,2.87,0,2.2,2.2,0,0,1,2.06,0,3.11,3.11,0,0,0,2.87,0,2.21,2.21,0,0,1,2.07,0,2.84,2.84,0,0,0,1.43.35.46.46,0,0,0,0-.91" transform="translate(0 0)"/><path class="e" d="M30,49.46a2,2,0,0,1-1-.26,3.11,3.11,0,0,0-2.87,0,2.2,2.2,0,0,1-2.06,0,3.11,3.11,0,0,0-2.87,0,2.2,2.2,0,0,1-2.06,0,2.84,2.84,0,0,0-1.43-.35.46.46,0,0,0,0,.91,2,2,0,0,1,1,.26,3.11,3.11,0,0,0,2.87,0,2.2,2.2,0,0,1,2.06,0,3.11,3.11,0,0,0,2.87,0,2.21,2.21,0,0,1,2.07,0,2.84,2.84,0,0,0,1.43.35.46.46,0,0,0,0-.91" transform="translate(0 0)"/><path class="e" d="M13.93,52.58a3.11,3.11,0,0,0,2.87,0,2.2,2.2,0,0,1,2.06,0,3.11,3.11,0,0,0,2.87,0,2.21,2.21,0,0,1,2.07,0,2.85,2.85,0,0,0,1.43.35.46.46,0,0,0,0-.91,2,2,0,0,1-1-.26,3.11,3.11,0,0,0-2.87,0,2.2,2.2,0,0,1-2.06,0,3.11,3.11,0,0,0-2.87,0,2.2,2.2,0,0,1-2.06,0,2.85,2.85,0,0,0-1.43-.35.46.46,0,0,0,0,.91,2,2,0,0,1,1,.26" transform="translate(0 0)"/><path class="e" d="M15.82,44.81s11.91-.17,16.09,3.52a7.61,7.61,0,0,0-.75-.74,10.48,10.48,0,0,0-1.73-1.19c-.31-.19-.65-.35-1-.52s-.68-.32-1-.46c-.7-.3-1.42-.55-2.14-.79s-1.44-.44-2.14-.61-1.39-.33-2-.46-1.27-.24-1.85-.32-1.11-.16-1.58-.21-.88-.09-1.22-.12l-.63,0Z" transform="translate(0 0)"/></g></g></svg>