<svg xmlns="http://www.w3.org/2000/svg" xmlns:xlink="http://www.w3.org/1999/xlink" viewBox="0 0 69.55 69.55"><defs><style>.a{fill:none;}.b{clip-path:url(#a);}.c{clip-path:url(#b);}.d{fill:#fff;}.e{fill:#c49a6c;}</style><clipPath id="a" transform="translate(0 0)"><rect class="a" width="69.55" height="69.55"/></clipPath><clipPath id="b" transform="translate(0 0)"><rect class="a" width="69.55" height="69.55"/></clipPath></defs><title>amenity-culture</title><g class="b"><g class="c"><path class="d" d="M69.55,34.77A34.77,34.77,0,1,1,34.77,0,34.77,34.77,0,0,1,69.55,34.77" transform="translate(0 0)"/><path class="e" d="M47.22,30.91a1.05,1.05,0,0,1,.46-.52,1.07,1.07,0,0,1,1.43.45.65.65,0,0,1,0,.06H56l.48-.25a3.79,3.79,0,0,0,1.61-5.09L56.9,23.25a4.81,4.81,0,1,1-4.43-8.53l-1.2-2.32a3.79,3.79,0,0,0-5.09-1.61L9.78,29.68a3.78,3.78,0,0,0-1.61,5.09L9,36.45a6,6,0,0,1,6-5.54Zm-1.34-4a1.06,1.06,0,1,1-.45,1.43,1.06,1.06,0,0,1,.45-1.43m-1.81-3.48a1.06,1.06,0,1,1-.45,1.43,1.06,1.06,0,0,1,.45-1.43M42.26,20a1.06,1.06,0,1,1-.45,1.43A1.06,1.06,0,0,1,42.26,20m-1.81-3.48A1.06,1.06,0,1,1,40,17.91a1.06,1.06,0,0,1,.45-1.43" transform="translate(0 0)"/><path class="e" d="M59.8,39.52h0V36.9A3.78,3.78,0,0,0,56,33.13H15a3.78,3.78,0,0,0-3.77,3.77v2.62a4.81,4.81,0,1,1,0,9.61v2.62A3.78,3.78,0,0,0,15,55.52H56a3.78,3.78,0,0,0,3.77-3.77V49.13h0a4.81,4.81,0,1,1,0-9.61m-11.48-4a1.06,1.06,0,1,1-1.06,1.06,1.06,1.06,0,0,1,1.06-1.06m1.06,5a1.06,1.06,0,1,1-1.06-1.06,1.06,1.06,0,0,1,1.06,1.06m-12,10.13-4.27-3.1-4.27,3.1,1.63-5-4.27-3.1h5.27l1.63-5,1.63,5H40l-4.27,3.1Zm10.92,2.69a1.06,1.06,0,1,1,1.06-1.06,1.06,1.06,0,0,1-1.06,1.06m0-3.92a1.06,1.06,0,1,1,1.06-1.06,1.06,1.06,0,0,1-1.06,1.06m0-3.92a1.06,1.06,0,1,1,1.06-1.06,1.06,1.06,0,0,1-1.06,1.06" transform="translate(0 0)"/></g></g></svg>