<svg xmlns="http://www.w3.org/2000/svg" xmlns:xlink="http://www.w3.org/1999/xlink" viewBox="0 0 69.55 69.55"><defs><style>.a{fill:none;}.b{clip-path:url(#a);}.c{clip-path:url(#b);}.d{fill:#fff;}.e{fill:#c49a6c;}</style><clipPath id="a" transform="translate(0 0)"><rect class="a" width="69.55" height="69.55"/></clipPath><clipPath id="b" transform="translate(0 0)"><rect class="a" width="69.55" height="69.55"/></clipPath></defs><title>amenity-golf</title><g class="b"><g class="c"><path class="d" d="M69.55,34.77A34.77,34.77,0,1,1,34.77,0,34.77,34.77,0,0,1,69.55,34.77" transform="translate(0 0)"/><path class="e" d="M32.54,35a2.93,2.93,0,0,0-2,.75,2.76,2.76,0,0,0-.49.6.55.55,0,0,0,.59.83,2.28,2.28,0,0,1,.49-.05,2.84,2.84,0,0,1,2.06,1,2.72,2.72,0,0,1,.68,2.62.55.55,0,0,0,.17.59.56.56,0,0,0,.6.07,2.82,2.82,0,0,0,.64-.44,3.34,3.34,0,0,0-.06-4.7A3.67,3.67,0,0,0,32.54,35" transform="translate(0 0)"/><path class="e" d="M44.78,25.19a2.53,2.53,0,0,0-1.68.58,2.49,2.49,0,0,0-.46.5.55.55,0,0,0,.54.86,1.89,1.89,0,0,1,.34,0,2.32,2.32,0,0,1,1.69.86,2.23,2.23,0,0,1,.45,2.15.55.55,0,0,0,.51.74.59.59,0,0,0,.23,0,2.52,2.52,0,0,0,.57-.36,2.56,2.56,0,0,0,.92-2,3.21,3.21,0,0,0-.76-2.13,3.16,3.16,0,0,0-2.35-1.18" transform="translate(0 0)"/><path class="e" d="M41.88,43.41a3.37,3.37,0,0,0-2.25-.89,2.7,2.7,0,0,0-2,.88,2.59,2.59,0,0,0-.4.59.58.58,0,0,0,.7.8,2,2,0,0,1,.6-.09,2.46,2.46,0,0,1,1.64.66,2.36,2.36,0,0,1,.79,2.17.58.58,0,0,0,.56.7.57.57,0,0,0,.31-.09,2.66,2.66,0,0,0,.55-.46,3.05,3.05,0,0,0-.46-4.27" transform="translate(0 0)"/><path class="e" d="M45.1,34.73a3.56,3.56,0,0,0-2.38-.95,2.72,2.72,0,0,0-2,.87,2.6,2.6,0,0,0-.41.6.55.55,0,0,0,.66.77,2.06,2.06,0,0,1,.61-.09,2.76,2.76,0,0,1,1.81.74A2.59,2.59,0,0,1,44.25,39a.55.55,0,0,0,.54.66.56.56,0,0,0,.29-.08,2.64,2.64,0,0,0,.56-.46,3.15,3.15,0,0,0-.53-4.4" transform="translate(0 0)"/><path class="e" d="M30,28.3a3.26,3.26,0,0,0-2.72-1.61,2.65,2.65,0,0,0-1.38.38,2.53,2.53,0,0,0-.55.45.62.62,0,0,0,.47,1h0a2.38,2.38,0,0,1,2,3.35.62.62,0,0,0,.54.91l.17,0a2.56,2.56,0,0,0,.65-.28A3,3,0,0,0,30,28.3" transform="translate(0 0)"/><path class="e" d="M38,31.37A3.16,3.16,0,0,0,38.46,27a3.41,3.41,0,0,0-2.74-1.48,2.74,2.74,0,0,0-1.6.5,2.71,2.71,0,0,0-.53.5.58.58,0,0,0,.51.94h.19a2.61,2.61,0,0,1,2.31,3.51.58.58,0,0,0,.53.82.57.57,0,0,0,.2,0,2.69,2.69,0,0,0,.65-.34" transform="translate(0 0)"/><path class="e" d="M53.53,42.94a3.26,3.26,0,0,0-.65-.72,3.17,3.17,0,0,0-2-.74,2.44,2.44,0,0,0-1.91.86,2.28,2.28,0,0,0-.33.55.55.55,0,0,0,.69.73,1.68,1.68,0,0,1,.59-.1,2.28,2.28,0,0,1,1.44.54,2.22,2.22,0,0,1,.85,1.65,19.16,19.16,0,0,1-3,3.95l-.09.09a2.12,2.12,0,1,0-3.39,2.43l.16.14a19.12,19.12,0,0,1-2.7,1.41c-.78-.15-1.56-.35-2.33-.58A3.21,3.21,0,0,0,35.68,51h0a1.82,1.82,0,0,1-.18.21,2,2,0,0,1-2.84-2.7,3.21,3.21,0,0,0-4.54-4.1,1.75,1.75,0,0,1-2.47-2.47,1.63,1.63,0,0,1,.21-.18,3.21,3.21,0,0,0-3.07-5.22A1.89,1.89,0,0,1,21.33,33l.2-.18a3.21,3.21,0,0,0-1.18-5.29,21.55,21.55,0,0,1,.09-3.23A19.3,19.3,0,0,1,22,22.52l.15-.15a2.08,2.08,0,0,0,.4.55,2.1,2.1,0,0,0,3-3l-.14-.13a19,19,0,0,1,3-1.51l.75-.29a.59.59,0,0,0,.18,0,2.28,2.28,0,0,1,1.74,3.26.55.55,0,0,0,.47.83h.11a2.32,2.32,0,0,0,.61-.22,2.78,2.78,0,0,0,.88-3.8,3.32,3.32,0,0,0-.75-.94,19.36,19.36,0,0,1,3.23-.27l.85,0a.55.55,0,0,0,.34.13,2.28,2.28,0,0,1,1.74,3.26.55.55,0,0,0,.47.84h.11a2.25,2.25,0,0,0,.61-.22,2.7,2.7,0,0,0,1.1-3.29,19.45,19.45,0,0,1,2,.69A19.17,19.17,0,0,1,54.74,34.67a3.24,3.24,0,0,0-1.61-.44,2.5,2.5,0,0,0-2.21,1.19,2.29,2.29,0,0,0-.24.6.55.55,0,0,0,.8.62,1.83,1.83,0,0,1,.88-.21,2.36,2.36,0,0,1,1.19.33,2.18,2.18,0,0,1,1.11,1.61,19.08,19.08,0,0,1-1.13,4.58M50.35,21.35a20.86,20.86,0,1,0,0,29.5,20.79,20.79,0,0,0,0-29.5" transform="translate(0 0)"/></g></g></svg>