<svg xmlns="http://www.w3.org/2000/svg" viewBox="0 0 205.47 75.03"><defs><style>.a{fill:#c49a6c;}</style></defs><title>graphic-leaf-04</title><path class="a" d="M2.12,25.09a39.41,39.41,0,0,1,15.2-5.33c3.36-.2,6.62-2.1,10.36-1.65,5.42.34,9.22-3.61,13.78-6.25C49.93,7,58.78,2.7,68.12.77c1.67-.11,1.13,1.95,2.82,1.85C77.92,1.17,85.57-.66,93,.24l1.13,2C108,2,111.09,2.83,125.71,10c.75,1.3-.92,1.41-1.57,1.79A15.79,15.79,0,0,1,129,14.21C141.63,16.47,149.9,24.73,158.17,33l3.59,6.19a10.53,10.53,0,0,0,5.55,5.06A85.36,85.36,0,0,1,181,52.84,71.49,71.49,0,0,0,202.28,64c1.68-.1,1.13,2,3.19,2.51-2.34.48-3.74-.45-5.42-.35-8.89-1.81-17.56-.26-26.14,3-14.55,5-28.91,7.19-44.9,5.14A32.77,32.77,0,0,0,122.18,73c-4.49-1.75-9-3.49-13.75-4.21-6.18-1.65-12.35-3.29-18.26-6-11.42-4.69-19.32-12.3-27.59-20.56-2.16-2.23-5.52-2-7.69-4.25C52.24,33.47,48,30.69,44.08,26.89a13.32,13.32,0,0,0-5.91-2.67c-6.27-3.33-12.89-1.23-18.86.5-4.94,2-9.23,3.6-14.17,5.6-2,1.13-3,.86-4.39-.07-1.52-2.61-.59-4,1.36-5.15Zm4.5,1.75a132.23,132.23,0,0,1,16.23-5.05c4.94-2,9.71-1.27,14.65-3.27,4.28-1.62,8.67-1.54,13.44-.83,1,.27,2.06.55,3-.87.27-1,1.3-.76,2.33-.48A45.83,45.83,0,0,0,66,15.07c7.28-2.47,14.93-4.3,22.19-6.77A22,22,0,0,1,94.76,6.2c-1.79-1.57-4,.59-5.8-1-.38-.66.55-2.06-.21-3.36C80.9.31,74.12,5.11,67.12,6.56c-1-.27-1.13-2-2.54-2.88-.66.39-2.33.5-3.63,1.25C54.05,8,47.43,10.14,41.29,14.57c-4.17,3.29-8.47,4.91-13.61,3.54-1.58,1.79-3.63,1.24-6,1.72-4.67,1-9.61,3-14.54,4.95-1.69.1-3,.86-4.18,3.29a6.71,6.71,0,0,0,3.63-1.23Zm49.47,8.75a4.35,4.35,0,0,0,6.18,1.64c2.64,4.56,5.94,8.74,10.81,11.14,1.2-2.44,2.61-1.51,4-.59,4.32,4.45,9.57,7.51,14.82,10.56l.75,1.31c1.89,3.25,3.58,3.15,6.18,1.64,2.54,2.88,5.73,5.39,8.72,4.53,4-.59,6.82,1.27,9.91,2.09s5.25,3.05,9.26,2.47c-2.81-1.85-5.24-3.05-7.41-5.28-2.44-1.19-4.6-3.42-6.76-5.65-2.43-1.2-4.87-2.4-5.74-5.38,4.41,1.71,7.3,5.14,10.68,6.66a60,60,0,0,0-11.64-11.33c-.75-1.3-2.16-2.23-2-4.94C113.08,51.3,120.15,62,131.2,66c-5-4.07-9.58-7.51-13.9-12-2.17-2.23-5-4.08-4.81-6.78.27-1-.1-1.69-.86-3-3.68-4.83-9.3-8.53-14.93-12.23-5.25-3-11.43-4.69-17.33-7.37a135,135,0,0,0-14-3.18c.11,1.68.76,1.3,1.14,2a45,45,0,0,1,19.9,16.32c3.3,4.18,4.91,8.47,8.48,11.63,4,3.8,7.89,7.61,13.14,10.66.38.65,2.06.55,1.51,2.6-3.46-1.48-5.63-3.7-8.82-6.2-7-4.63-11.57-12.45-17-18.86-5.56-8.09-13-13.38-23.27-16.11,5.36,4.73,11.26,7.41,14.28,12.61-5.63-3.7-10.6-7.78-16.51-10.45,4.71,5.11,10.72,9.46,15.15,15.6C68.71,37.85,64.77,34,60.16,30.62c-5-4.08-9.57-7.51-16.13-9.81a4.1,4.1,0,0,0-4.38-.06c6,4.35,12,8.7,16.43,14.84ZM91.92,14.81c-5.59,2.37-10.9,3.71-15.84,5.7a56.44,56.44,0,0,0,12.31-2.78c4.28-1.61,9-2.58,12.59-3.82,6.62-2.1,10-2.31,13.07-1.49-9.33,1.93-18,3.48-24.8,8.28,3.63-1.23,8-1.17,12-1.76l.38.66c-5.31,1.34-10.25,3.33-16.22,5,2.17,2.23,4.5,1.75,6.55,2.3,8.78.13,17.09-2.07,25.76-3.62,5-.31,10.09-.63,14.85.09a91.56,91.56,0,0,1,12.89,1.24c-6.11-6-13.31-8-20.14-9.22-3.09-.83-2.92-3.53-5.25-3.05-.75-1.3,1.2-2.43.44-3.74-2.43-1.2-5.42-.34-7.48-.88-7.58-2.57-13.93-1.5-21.2,1a120.66,120.66,0,0,1-15.57,4.67C72,15,68.39,16.27,63.45,18.26c9.91,2.09,18.38-2.82,28.47-3.45ZM85.47,57.73a.74.74,0,0,1,.27-1C84,55.12,81.9,54.58,80.11,53a12.15,12.15,0,0,0,5.36,4.73Zm-.88-36A3.3,3.3,0,0,0,81,22.92c2.06.55,3.08.82,3.63-1.23Zm24.36,12c6.72-.42,13.17.19,19.41-2.55l5-.32c-5.48,4.05-13.23,4.2-19.58,5.26a2.41,2.41,0,0,0,3.09.82l20.17-1.25c1.68-.1,3.09.82,4.5,1.75-6.72.42-13.83.18-20.45,2.28,5.25,3,11.49.3,17,2.32-.28,1-1.68.1-1.58,1.78,3.47,1.47,7.1.23,11.6,2-5.32,1.34-10.19-1.05-14.48.56,2.06.55,3.19,2.5,5.25,3,3.74.44,7.21,1.92,11.32,3,5.8,1,11.42,4.68,17.77,3.62,4.39.07,7.86,1.54,12.25,1.6,1.41.93,2.43,1.2,3.84,2.13-13.27-1.88-26.06-1.42-38.52-6.39,4.43,6.14,9.78,10.86,15.13,15.59-4.12-1.09-6.66-4-10.22-7.12-4.71-5.11-8.76-10.59-16-12.51-4.49-1.75-9.09-5.18-14.14-4.87-1.68.11-2.71-.17-3.47-1.47.28-1,1.68-.1,3-.86-3.84-2.12-7.58-2.57-11.43-4.69C120,54.25,128.66,63.16,137.27,66c.92-1.41-3.19-2.5-1-4.66,3.29,4.19,7.14,6.3,11.63,8,1.41.93,1.13,2,1.89,3.26,4.29-1.62,8.68-1.55,12.31-2.78,5-.32,10-2.3,14.27-3.91,5.31-1.35,10.35-1.66,15.94-4-5.8-1-10.12-5.45-15.37-8.49-1.78-1.58-3.29-4.18-6-4.36-5.53-2-9.74-4.79-12.12-10.38.27-1-.76-1.31-1.79-1.58a1.41,1.41,0,0,1-1.13-2c-.86-3-2.92-3.53-5-4.08-3.36.21-7.1-.24-10.46,0a3.85,3.85,0,0,1-4.77-.72c5-.31,9.05-.9,14.1-1.21l-.37-.65a43.47,43.47,0,0,0-11.32-3c-14.31-2.15-27.55,2-42.3,3.63,4.22,2.78,8.72,4.52,13.11,4.59Zm9.15,27.78.29.17c-.23-.27-.46-.54-.67-.82l-.2-.08.58.73Zm11.35,9.09c2.17,2.23,4.5,1.74,6.83,1.26-6.18-3.26-11.73-6.9-17.89-10.18,3.26,3.69,7.73,6,11.06,8.92Zm17,2.32c-1.51-2.61-3.19-2.51-4.61-3.43-.64.38.38.65.11,1.68-.66.38-2.82-1.85-2.61,1.51,2.06.55,4.39.06,7.11.23Z"/><path class="a" d="M95.93,57.76C90.51,57.42,79.81,48,78.84,43.3c6,4.35,10.71,9.46,17.09,14.47Z"/><path class="a" d="M106.71,19.3c4.29-1.62,9.33-1.93,14.75-1.58a.73.73,0,0,0-.28,1c-5,.32-9.7,1.28-14.75,1.59a.73.73,0,0,1,.27-1Z"/><path class="a" d="M152.71,70.1c-4.12-1.09-6.28-3.32-8.82-6.2,3.75.45,5.63,3.7,8.82,6.2Z"/></svg>