<svg xmlns="http://www.w3.org/2000/svg" xmlns:xlink="http://www.w3.org/1999/xlink" viewBox="0 0 720.99 194.25"><defs><style>.a{fill:none;}.b{clip-path:url(#a);}.c{clip-path:url(#b);}.d{clip-path:url(#c);}.e{fill:#aaaca9;}</style><clipPath id="a" transform="translate(0 -11.93)"><rect class="a" x="53.03" width="640" height="222"/></clipPath><clipPath id="b" transform="translate(0 -11.93)"><rect class="a" y="11.93" width="720.99" height="194.25"/></clipPath><clipPath id="c" transform="translate(0 -11.93)"><rect class="a" y="11.93" width="720.99" height="194.25"/></clipPath></defs><title>graphic-leaf-01</title><g class="b"><g class="c"><g class="d"><path class="e" d="M204,39.91c-12.6,7-25.23,14.24-35.29,25-9.46,10.67-15.08,24.43-25.21,33.49-.26,0-.53,0-.79.07-8,.31-16,1.27-24.12,2.3,8-8.43,10.08-18.82,15.69-27.56,5.92-9.91,14.55-18,25.4-22.14C148.59,54.56,139.17,62.26,132.57,72c-9,13.24-12.34,26.18-29.29,30.28-17.54,4.24-42,1.62-60.22.63C27.77,102,13.58,100.13,0,105.57v7.37c2.39,2.19,4.65,4.34,4.51,4.59,4.45-8.17,31.87-10.62,40.36-9.85,10.76,1,21.14,2,31.86,1.8,3.83-.06,32.35-3.81,33.56-2.32,16.57,20.56,27.52,52.47,56.55,58.41-27.93-7.31-36.76-36.82-52.3-59,7-1,14.06-2,21.18-2.68,10.83,12.51,23.72,22.5,34.37,34.38,10.44,12.2,18.64,30.47,35.8,34.34C189,168,181.78,149.89,171.61,137c-9.89-11.91-21.54-21.93-31.18-33.47,1.17-.08,2.36-.16,3.54-.21a184.83,184.83,0,0,1,23.37-1.12c8.54,15.73,24.4,23.72,35.06,36,11.65,13,23,28.6,39.94,34.64-16.8-6.76-27.19-22.48-38.51-36-10.21-12.38-24.85-21.31-32.16-34.58,10.39.28,20.84,1.12,31.45,2l-.13.18c17.51,14.94,31.49,34.86,51.17,48.22,19.31,13.15,40.82,22.62,56.89,40.08-15.57-17.94-37.16-28.25-55.88-41.82-17.56-12.65-30.18-30.82-46-46.17,2.33.18,4.66.38,7,.55,8.08.31,16.11.21,24.11-.05,11,16.11,29.13,21.84,42.47,33.11,14,11.19,26.34,26.71,44,32.56-17.43-6.55-28.88-22.24-42.78-34.18-12.81-11.44-29.68-18.18-39.1-31.66,5-.19,10-.45,15-.71,4.52-.24,9.07.66,13.44-.29,4.9-1.06,10.24-.87,15.33-1,1.43-.09,2.86-.14,4.3-.16,6.91,7.43,11.08,19,20.58,25.85,9.33,6.69,19.43,10,28.2,16.66,18.06,12.14,37.17,23.75,58,29.09-20.76-6-39.31-18.13-57-30.85-8.61-6.95-19.2-11-27.53-17.43-7.64-5.82-11-15-17.17-23.3.58.79,7.93.36,9.15.47,8.5.76,17,1.78,25.55,2.71l0,.06c21.67,18.36,43.85,43.3,73.42,45.31-27.63-3.32-47.21-25.78-67-44.73,1.38,1.32,9.34.73,11.25.7,3.49-.08,7,.26,10.47-.07,1.4-.13,10.11-2.23,10.89-1.31,10.15,12,21.49,24.57,36.52,29.46-13.81-5.86-23.42-17.93-32.06-29.88,8.11-.73,16.25-1.13,24.41-1.3,14.44,12.6,27.11,34.18,48.57,35.21-20-2.51-30.14-21.12-43.19-35.31.66.72,6.74,0,7.88,0,2.73,0,5.45.09,8.18.1,8.9,0,15.08,6.78,22.52,11.24,8.81,5.29,17.64,10.58,25.86,16.87-11.43-10.29-24.43-18.65-36.61-27.79,1.46,1.09,7.4.29,9.22.36l9.68.42c11.22.5,22.55.59,33.77,1.53,9.1.77,15.7,6.53,23,12,6.63,5,13,10.24,19.69,15.14-10.19-8.88-19.48-18.73-30.58-26.78,2.39.05,4.79.1,7.19.13,48.49,2.39,96.82,4.34,145.3,8q-18.78-1.61-37.57-2.91c-22.21-1.56-44.42-2.86-66.62-4.14-11.11-.65-22.21-1.32-33.32-1.91a91.4,91.4,0,0,1-14-1.47c-4.52-.95-9.06,1.11-13.61.81-3.6-.24-7.2-.85-10.8-1.06-6-.31-12-.67-17.95-1-11.51-.65-23-1.29-34.5-1.63q-3.84-.12-7.66-.19c-1.24,0-6.91-.89-7.76-.09,14.89-14.14,32.31-25.75,50.48-35.64C437.48,75.69,418,87,401.1,101.94c-1.37,1.21-8.82.17-10.84.24-3.55.13-7.09.38-10.62.59-6.44.38-12.75,1-19.15,1.82l-1,0c9-7.07,19.07-13.1,28.35-20.1-11.53,6.93-23.83,12.35-35.11,20.13-1.48,1-7-.44-8.87-.45a70,70,0,0,1-7.79-.32c-6-.7-11.89-1.88-17.85-2.59,11.78-6.47,19-17.53,28.91-25.24,11.76-9.74,24.29-19.59,39.92-22C371.29,55.75,358,65.18,345.8,74.39c-12,8.83-22.41,22.53-35.61,26a153.26,153.26,0,0,0-22.35-.81c-4.78.07-9.55.23-14.31.41,9.68-7.14,16-17.29,25.29-24.07,11.14-8.87,21.46-18.63,33-26.82-12,7.6-22.84,16.89-34.34,25.14-11.87,8-20.21,21.11-32.69,26.1-10.71.47-21.41,1-32.11,1,10.33-8.52,16.43-20.55,25.84-29,11.18-9.79,23.12-18.77,34.35-28.62-11.69,9.31-24,17.68-35.74,27-11.62,9.59-19.14,23.84-31.7,30.56-3.3-.05-6.59-.13-9.89-.3-7.22-.64-14.57-1.35-22-2,13.59-18.9,25-38.46,43.64-52.17-20,12.81-33.73,33.94-48.44,51.76-6.42-.51-12.87-.91-19.33-1.14l-.14,0c-6.58-.18-13.15-.09-19.65.34,8.25-9.89,12.92-22.07,20.66-31.6,9.21-10.9,21.47-18.86,33.67-26.4" transform="translate(0 -11.93)"/><path class="e" d="M721,105.92c-2.17,1.82-4.79,2.49-7.33,3.15a32.08,32.08,0,0,0-3.94,1.19A25.15,25.15,0,0,0,705,113c-2.18,1.48-4.42,3-7,3.51a24.25,24.25,0,0,1-7.29,0,20.31,20.31,0,0,0-7.79.22,39.24,39.24,0,0,1-5.91.93,28.48,28.48,0,0,0-7.76,1.52,12.91,12.91,0,0,1,.72,1.22,7.44,7.44,0,0,0,1,1.56l.51.5-.51.42c-3,2.53-6.16.55-8.91-1.19s-5.26-3.34-7.74-1.14a2.93,2.93,0,0,0-1,2.89,2.37,2.37,0,0,1-.35,1.9,3.13,3.13,0,0,1-2.45.71c-.45,0-1.19-.4-3.94-2-1.49-.87-3.25-1.89-4.43-2.44.59,2.9-.3,4.91-2.55,5.59-3,.9-3.93-.84-4.71-2.25-.49-.89-.92-1.67-1.78-2-3.47-1.17-3.89.19-4.57,2.44-.63,2.07-1.41,4.65-5,5.3l-.54.11-.18-.56c-1.17-3.64-4.24-8.67-7.36-10.76-2.41-1.61-6.37-2.43-8.2-1-1,.81-1.21,2.26-.53,4.32l.37,1.08-1.07-.31c-2-.6-5.92-1.75-6.83-.66-.42.5-.08,1.57.27,2.37.26.59,1.87,1.5,3.3,2.3,2.68,1.52,5.7,3.24,6.09,5.59a3.87,3.87,0,0,1-1.52,3.43c-1.38,1.27-3.85.85-6.46.39-2.18-.38-4.43-.77-5.9-.13a13,13,0,0,0-3.81,2.91c-2,2-4.07,4-8.1,3.34l-.58-.1,0-.6c.16-3.37,2.27-3.73,4-4,1.23-.22,2.3-.41,2.87-1.5,1-1.89.1-2.64-2-4.19a16.18,16.18,0,0,1-2.83-2.44l-.62-.72.85-.27a6.36,6.36,0,0,0,4.52-4.5,5.92,5.92,0,0,0-1.55-5.16c-1.65-1.87-3-2.82-4-2.79s-1.92,1.22-2.78,2.49a7.86,7.86,0,0,1-2.47,2.7c-3.65,2-5.8-.15-7.7-2-1.49-1.45-2.89-2.82-5.06-2.85-1.84,0-3,.3-3.29.93-.48,1,.86,3.07,1.95,4.74a21,21,0,0,1,1.55,2.64l.29.65-.64.17a5,5,0,0,0-2,1.48,10.51,10.51,0,0,1-1,.9c1.95,2.58,3.65,1.82,6.38.3,1.8-1,3.85-2.16,6.08-1.43,1.65.54,4,3,4.94,5.33a4.1,4.1,0,0,1,.19,3.54c-.85,1.6-3.94,1.49-7.16,1.17,1.65,1.9,2.29,3.32,2,4.42-.49,1.67-2.89,1.91-5.43,2.17a11.83,11.83,0,0,0-3.88.78,9.13,9.13,0,0,0-1.84,2.48c-1.23,2-2.62,4.34-4.48,4.17-1.14-.1-2.18-1.1-3.18-3.07-1.2-2.34-.28-4.08.53-5.6.9-1.69,1.65-3.12-.09-5.5a5.83,5.83,0,0,0-2.69-1.24c-1.57-.47-3.2-1-3.72-2.31-.84-2.17.1-2.87.86-3.43a2.53,2.53,0,0,0,1.12-1.4c.84-3-.35-7-3-10.08-2.54-3-5.75-4.39-8.8-3.94-.89.13-1.55,1-2.24,1.86-.84,1.08-1.79,2.29-3.35,2.28-1.78,0-3.46-1.64-5.09-3.23a12.36,12.36,0,0,0-2.81-2.32c-3.58-1.7-5-1.45-5.49-.94s-.91,2.21.87,6.8c2.25,5.8,4.34,6.2,7.81,6.85a25.54,25.54,0,0,1,6.32,1.85c3.41,1.54,3.68,2.94,3.71,5.07a8.84,8.84,0,0,0,2.13,6.12,25.22,25.22,0,0,0,4.44,4.13c2.38,1.89,4.43,3.52,4.21,5.29-.16,1.31-1.54,2.33-4.35,3.23a45.2,45.2,0,0,1-5.37,1.32c-3.29.62-4.95.94-8.83,5.5-1.2,1.41-6.49,5.39-9.43,3.91-1.36-.68-1.92-2.3-1.65-4.82.28-2.68,2.67-3.63,4.77-4.47,2.84-1.13,5.08-2,3.75-6.14-1.12-3.46-4.89-4.82-8.54-6.14a23.75,23.75,0,0,1-5.26-2.36c-3.76-2.54-4.91-5.5-6.13-8.63a30.92,30.92,0,0,0-2.49-5.3c-3.5-5.68-5.38-5.5-8.8-5.15a22.78,22.78,0,0,1-5,.1c-4.64-.47-9.68-2.58-15-4.81-8.2-3.43-16.67-7-24-4.53l0,.05a16.53,16.53,0,0,0,5,4.13c1.27.81,2.78,1.88,4.37,3a62.54,62.54,0,0,0,8.78,5.58c2.79,1.23,4.57.71,6.63.11a11.37,11.37,0,0,1,5.57-.58c3.63.63,6.27,3.46,8.83,6.19a29.94,29.94,0,0,0,4.53,4.25,27.92,27.92,0,0,0,4.93,2.51c3.94,1.71,8,3.47,9.2,8.15.71,2.8-.48,5.18-1.63,7.48-1,2-1.91,3.81-1.66,5.83.11.9,1.07,2.06,2,3.18,1.56,1.91,3.52,4.28,2,6.49s-4.28,1.15-7.27.16c-3.88-1.27-8.28-2.72-11.44,1.1l-.52.63-.46-.75c-2.68-4.34-2.16-10.57-1.71-16.06.42-5.07.81-9.85-1.43-11.72-1.65-1.37-4.74-1.27-9.43.31l-.46.15-.28-.45c-3.21-5.16-7.08-5.26-11.61-5.37-3-.07-6.06-.15-9.17-1.7-4.16-2.06-7-5.57-9.81-9-3.3-4-6.42-7.85-11.54-9.47-3.58-1.13-11.36-.88-12.44,1.35-.52,1.06.81,2.53,2,3.58,1,.88,3.56,1.16,5.82,1.41,3.15.35,6.15.7,6.85,2.52.49,1.24-.21,2.83-2.2,5l.72.52a65.6,65.6,0,0,0,10.67,6.76,20.52,20.52,0,0,0,3.22.9c2.65.62,5.4,1.27,6.39,2.53,2,2.6,1.22,4.84.53,6.6-.77,2-1.23,3.15,1.75,4.7s5.64,0,8.31-1.62c3.11-1.93,6.63-4.13,11.27-.82,2.51,1.79,3.79,3.51,3.9,5.25.17,2.76-2.66,4.9-5.39,7l-1.34,1c3.34,3.48,5,7.26,4.3,10-.35,1.43-1.54,3.28-5.16,3.89a15,15,0,0,1-5.88-.19,9.93,9.93,0,0,0-7,.68,15.83,15.83,0,0,0-2,1.33c-2.83,2-6.71,4.8-8.86,2.33-1.51-1.69.15-4.7,1.86-7.93,1.17-2.21,2.38-4.49,2.25-5.78-.54-5.45-6.27-10.62-10.12-11.93-1.32-.45-2.3-.4-2.67.13-.27.37-.88,2,2.66,7.52,3.25,5.07,4.26,8.15,3.14,9.69-.89,1.25-3,1.28-6.39.11-.91-.31-2.06-1.52-3.53-3.06-2-2.1-4.72-5-6.36-4.61-.75.17-1.32,1-1.71,2.57-.49,1.94,2,4.32,4.31,6.62,3,2.91,6.37,6.21,4.19,9.34-1.53,2.2-5,.55-8-.92a23.43,23.43,0,0,0-3.2-1.37,8.09,8.09,0,0,1-2.44,5.19,3.68,3.68,0,0,1-3.21.85,4.05,4.05,0,0,1-3-1.91c-1-1.88.22-4.4,1.27-6.64a8.49,8.49,0,0,0,1.09-3c-.09-.87-1.84-3.18-3.39-5.23-2.94-3.89-6-7.9-4.77-9.92.62-1.07,2.2-1.33,4.93-.78-1.21-4.26,3.42-7.42,7.2-10,2.23-1.52,4.54-3.09,4.42-4.19-.06-.53-.79-1-1.4-1.35-1.18-.62-2.7.48-4.16,1.55-1.7,1.23-3.45,2.52-5.17,1.53-2.78-1.59-2.07-4.78-1.43-7.58a10.6,10.6,0,0,0,.44-3.9c-.78-3.81-12.81-16.09-20.57-20.16-2.33-1.22-4.08-1.6-5-1.1a1.91,1.91,0,0,0-1.2,1.55c-.15,2.74,5.84,7.78,10.65,11.83,6,5.07,9.66,8.27,8.76,10.41a4.15,4.15,0,0,1-3.36,2.65c-9.06,1.45-31-18.12-36-22.71-.08,2-.62,3.3-1.63,3.88-2,1.15-5-.69-7.94-2.47a15.94,15.94,0,0,0-4.16-2.09c-1.36-.24-1.94-.06-2,.18-.57,1.5,5.5,7.88,9.86,11.45,6,4.92,13.86,7.57,20,9.34a48,48,0,0,0,6.67,1.17c4.85.62,9.86,1.27,13.27,4.08,3.16,2.61,4.61,5.66,4.06,8.63-.62,3.41-3.77,6.11-8.22,7-8.06,1.67-14.57-3.14-20.87-7.78-1.91-1.41-3.88-2.87-5.83-4.07-3.29-2-7.36-3.18-11.29-4.28-5.22-1.45-10.62-3-14.43-6.62a28.48,28.48,0,0,1-5.39-7.59c-1.92-3.52-3.59-6.56-8.34-8.85-.77-.37-2.08-1.06-3.66-1.92-4.44-2.37-12.69-6.77-14.66-6.61-1.17.1-3.14.48-3.25,2-.13,1.79,2.23,4.35,5.06,5.49l2.05.82-2.1.37c-1.89.33-3,.94-3,1.71-.17,1.95,5,5.62,8.7,7.62a32.61,32.61,0,0,0,6,2.24c3.93,1.19,8,2.49,10.52,6.38.89,1.39.16,2.57-.43,3.52-.39.64-.77,1.25-.61,1.76s.73,1,1.75,1.59,2.54-.18,4.06-.87a8.44,8.44,0,0,1,3.92-1.12c2.89.32,6.59,2.83,8.5,5.09.93,1.12,1.67,3.42,2.25,5.28a14.91,14.91,0,0,0,.68,1.93,4.25,4.25,0,0,0,2.31,1.31c.43,0,.75-.39,1.27-1a6.12,6.12,0,0,1,2.82-2.22c4.3-1.49,12.51,2,14.16,6,.51,1.23.78,3.46-2.72,5.11a2.75,2.75,0,0,0,1.57,1.17c1,.16,2.19-1,3.3-2.08a9.22,9.22,0,0,1,3.17-2.38c5.8-1.94,7.16,1.35,8.37,4.25,1,2.45,1.89,4.57,5.08,4.66a8.66,8.66,0,0,0,3.23-.7c2.09-.74,4.26-1.5,6.56,2.55,1.9,3.36,1,6.61-2.56,9.66,1.9,1.89,8.14,8.44,6.9,11.55-.5,1.27-2,1.73-4.54,1.41-3.22-.4-4.66-4.51-5.82-7.81a19,19,0,0,0-1.38-3.33c-.18-.28-.37-.61-.57-1-1-1.69-2.34-4-4.1-3.93-1.15.05-1.31.3-1.31.3,0,.16.35.77.53,1.08.5.79,1.34,2.12.25,3-1.88,1.45-3.63.75-5.17.13s-2.89-1.15-4.39.42a3.1,3.1,0,0,0-1.05,2.34c.11,1.67,2,3.41,3.78,5.11s3.41,3.18,4,5l.28.85-.85-.06a19.28,19.28,0,0,1-5-1.14c-2.7-.91-3.93-1.32-6.17,2.76a6.73,6.73,0,0,0-.56,2.65c-.13,1.81-.3,3.87-2.93,4.26a3.67,3.67,0,0,1-3.14-.63c-1-.93-1.06-2.47-1.07-3.6a6,6,0,0,0-.06-1.05h0l.44-.08-.27-.19a30.85,30.85,0,0,0,.33-5.3l.45,0-.52-.18,0-.07.12-.45h0a9.44,9.44,0,0,1,1.41-3.25c.26-.41.59-.93,1-1.7l.42-.72c2-3.41,3.33-5.67-1-10-2.15-2.15-4-3-5.35-2.67-1.74.47-3,2.91-3.88,7.25s-2.35,6.74-4.12,6.73-3.12-2.07-4.43-6.23a20.84,20.84,0,0,1-.86-5.91,13.89,13.89,0,0,0-2.27-8.14c-2.29-3.6-3.8-5.19-5.07-5.37-1.43-.2-2.95,1.42-5.25,3.87-2.07,2.2-3.63,3.39-4.89,3.68a7.08,7.08,0,0,1,2.6.94c3.75,2.29,3.69,4.5,3.63,6.64a7.27,7.27,0,0,0,.62,3.79c1.13,2.26,4.14,2.95,7.32,3.7,4.22,1,9,2.13,10.52,7.22a7.83,7.83,0,0,1-1.07,6.38,7,7,0,0,1-5.28,3.33c-3.78.25-4.8-1.51-6-3.54a17,17,0,0,0-1.55-2.34c-.32-.39-.69-.93-1.1-1.55-1.43-2.15-3.4-5.07-5.5-4.38-.56.18-.9.43-1,.67-.13.53.75,1.6,1.45,2.47A9.51,9.51,0,0,1,349.7,196a10.77,10.77,0,0,0,1.45,3,.91.91,0,0,1,.23.81.74.74,0,0,1-.61.49,6,6,0,0,0-1.78.81,20.49,20.49,0,0,1-4,1,36.87,36.87,0,0,0-3.6.86,9.63,9.63,0,0,0-1.86,1.06c-1.81,1.23-4.08,2.74-6.74-.35a4.32,4.32,0,0,1-1.18-3.87,5.6,5.6,0,0,1,2.91-3.49c-2.18-.71-4.12-1.38-4.84-2.5-1.84-2.73.14-5.67,2-8.51,1.56-2.33,3.18-4.73,2.73-6.92a5.47,5.47,0,0,0-2.4-3.18c-1.7-1.23-3.94-.88-6.31-.5-2,.31-4,.64-5.82,0-2.63-.93-4.48-3-6.27-5a17.89,17.89,0,0,0-4.77-4.27,14.72,14.72,0,0,0-5.84-1.31c-2.43-.21-5-.43-7.14-2-2.5-1.85-3.63-5-4.71-8s-2.19-6.09-4.62-7.53c-2.74-1.63-4.14-.35-5.76,1.13-1.24,1.14-2.52,2.29-4.38,1.81-2.24-.58-3.23-3.77-4.28-7.14-.72-2.33-1.48-4.74-2.56-5.78-2.76-2.69-4.75-2.13-7-1.48-1.77.5-3.59,1-5.78,0-3.23-1.45-4.55-6.19-5.83-10.77-.75-2.69-1.46-5.24-2.48-6.77-3.56-5.43-5.31-5.08-9.47-4.26-.76.15-1.58.31-2.5.45a19.21,19.21,0,0,1-4,0,15.69,15.69,0,0,0-3.76,0c-3.46.68-3.54,1.38-3.54,1.42,0,.79,3.61,2.53,5.79,3.58,2.92,1.4,5.94,2.84,7.07,4.35a9.46,9.46,0,0,1,1.67,3.75,5.78,5.78,0,0,0,2.46,3.89,13.89,13.89,0,0,0,4.1,2.12c2.1.76,4.09,1.49,6,5.4a21.29,21.29,0,0,1,1.48,4.27c.62,2.42,1,3.76,4.58,5.07a13.79,13.79,0,0,0,4.25.81c2,.13,3.78.25,6.48,3.2,1,1.1,1.73,2,2.35,2.73a18.27,18.27,0,0,0,5.41,4.79,12.65,12.65,0,0,0,2.15,1c2.09.86,4.25,1.73,3,5.94,2.5,2.32,4.39,1.4,6.75.25a12.66,12.66,0,0,1,4.38-1.49c3.75-.37,5.69-.08,6.43,1l0,.07c.73,1.16-.17,2.62-1.12,4.18-.74,1.21-1.59,2.58-1.52,3.61.2,2.86,5.61,4.13,10.84,5.34,5,1.17,10.25,2.39,12.55,5.19,1.76,2.14,2.43,3.51,2.25,4.56s-1.19,1.54-2.25,2a7.26,7.26,0,0,0-2.73,1.87l-1.16,1.36-.47.55a10.18,10.18,0,0,1,3.16,4.32c1.5,3.25,1.76,5.36.8,6.47-.83,1-2.4,1-4.82.11-2.73-1-4.18-3.94-5.47-6.53-.43-.85-.82-1.67-1.24-2.34-2.87-4.6-5.31-6.15-6.55-6.06a1,1,0,0,0-.93.8c-.49,1.57.7,5,4.44,8.79l.53.54-.57.41a5.58,5.58,0,0,1-4.39,1.33c-2-.41-3.36-2.28-4.78-4.25a22.08,22.08,0,0,0-2.3-2.86A55,55,0,0,1,287,200.5l-.41.27-.36-.39c-4.11-4.42-4.78-8.52-2.17-13.23a18.86,18.86,0,0,1,2.47-3.33c2.09-2.38,3.25-3.69-.29-7.86-1.91-2.25-3.37-3.34-4.46-3.35s-2.13,1.3-3.31,3l-.86,1.19c-4.84,6.68-6.14,8.47-1.45,17.14l.36.66-.66.22a15.78,15.78,0,0,0-2.41,1.54c-1.63,1.16-2.29,1.6-2.78,1.58a3.64,3.64,0,0,1-3.27-1.9,3.55,3.55,0,0,0-1.77-1.53l-.73-.27c-1.63-.6-1.63-.6-2.24-.49a17.43,17.43,0,0,1-2,.26,10.25,10.25,0,0,0-2.58.73,11,11,0,0,1-3.52.87h-.27l-.2-.21c-1.6-1.68-2.36-3.12-2.29-4.44.09-1.86,1.75-3.06,3.35-4.21a11.12,11.12,0,0,0,2.77-2.49c1.8-2.67,1.82-3.63,1.67-4-.21-.49-1.26-.65-2.28-.83-1.69-.31-3.78-.75-5.07-2.54a4.14,4.14,0,0,1-.91-3c.23-1.42,1.54-2.24,2.79-3s2.58-1.65,2.53-3c-.21-.95-4.93-6.78-6.71-9l-1.28-1.59c-3.28-4.3-5-4.47-8.52-4.82-1.11-.1-2.36-.23-3.86-.51-6.06-1.12-6.42-2.32-6.64-6a31.29,31.29,0,0,0-.41-3.82c-1.1-6.31-4.23-7.67-7.85-9.24-2.43-1.06-5.2-2.27-7.52-5.12a56.27,56.27,0,0,1-4.07-6.31c-2.48-4.17-5.55-9.36-7.39-9.1-.61.09-1.74,1-2.46,6.11l-.19,1.36-.88-1.13c-5.44-7.06-9.87-11.06-11.63-10.52-.88.26-1.06,1.88-1.05,3.18s.9,1.8,2.35,2.59a6.72,6.72,0,0,1,2.43,1.82l0,0a13.07,13.07,0,0,1,1.57,4,10.05,10.05,0,0,0,1.6,3.83c1.92,2.29,4.17,2.22,6.55,2.15s4.72-.14,6.67,2.08c1.12,1.26.9,2.83.71,4.21-.14,1-.28,1.91.16,2.44,1.15,1.39,2.18,1.32,3.62,1.23a8,8,0,0,1,3.26.3c3.41,1.19,6.15,4.16,6.4,6.91.1,1.23-.22,3.44-3.38,5,2.18,2.52,4.77,2.87,7.5,3.22a16.29,16.29,0,0,1,6.2,1.71c2.2,1.25,3.39,2.38,3.74,3.56a4.12,4.12,0,0,1-.8,3.35,4.73,4.73,0,0,0-.84,3.85c.68,2.38,3.18,3.16,6.06,4.06,3.18,1,6.78,2.1,8,5.91.61,2,.64,3.25.09,4-.67,1-1.94.94-3.3.93s-3,0-4,1.14a24.22,24.22,0,0,0,2.71,1.69c2.28,1.31,4.09,2.35,3.91,3.6-.14,1-1.39,1.47-4.3,1.73a12.74,12.74,0,0,1-3.1-.44c-2-.41-4.91-1-5.43-.14-.16.27-.31,1.18,1.63,3.94l.3.43-.33.35c-1.63,1.78-3.42,2.53-5.31,2.26-2.74-.39-5.55-2.9-8.34-7.41-1.63-2.62-2.22-4.37-1.94-5.69s1.36-1.9,2.4-2.49c1.37-.77,2.79-1.57,3-4,.27-3-4.61-6.34-7.23-8.14a21.4,21.4,0,0,1-1.81-1.31l-.48-.42a11.1,11.1,0,0,1-2.77-3.11l-.74-1.08a6.08,6.08,0,0,1-1.13-2.85c-.14-.88-.19-1.27-2.63-2.23a11.33,11.33,0,0,0-5.17-.39c-3,.24-6.13.52-8.71-3.44l-.4-.6.6-.3c3.16-1.55,3.83-2.72,3.84-3.42,0-1.27-2.08-2.66-4.1-4-.85-.57-1.73-1.15-2.52-1.77-3.29-2.57-4.7-5.95-6.06-9.22a28.12,28.12,0,0,0-3.84-7.13c-2.42-3-4-3.23-5.91-3.51a12,12,0,0,1-5.26-1.76c-1.65-1-3.28-3.91-5-7-2-3.59-4.32-7.65-6.17-7.54-.88.05-2.24,1.15-3.67,6.08l-.11.39-.4,0c-1,0-4.16.94-4.38,1.54,0,1.67,3.9,3,7,4.1,2.58.89,4.82,1.67,5.79,2.75,2.2,2.43,1.78,4.07,1.42,5.52a3.58,3.58,0,0,0,.22,3.08c1.38,2.37,4.5,2.74,7.8,3.11,2.9.33,5.91.67,7.73,2.59,2.57,2.69,1.72,4.36,1,5.83a4.47,4.47,0,0,0-.57,3.79c.72,2.35,3.32,3.65,6.09,5,2.27,1.13,4.61,2.3,6,4.17a13.75,13.75,0,0,1,2.09,4.83,10.2,10.2,0,0,0,2.73,5.17,36.72,36.72,0,0,0,8.68,5.71c6.16,3.21,11.47,6,9,17.53-.7,3.33-1.48,4.79-2.6,4.9-1.4.14-2.51-1.86-3.93-4.37-1.53-2.71-3.42-6.1-5.36-5.62-.39.1-.83,1.64-1.15,2.77-.75,2.61-1.77,6.19-4.8,6.81-2.21.45-3.93.14-5.11-.92-1.91-1.71-2-5-1.83-7.35a16.44,16.44,0,0,1,.8-3.79c.85-2.85,1.42-4.74-2.11-6.61-4.5-2.39-7.14,1.19-9.32,5.43a16.61,16.61,0,0,0-.76,2.06c-.79,2.41-1.76,5.42-3.83,6.29a3.5,3.5,0,0,1-2.87-.16A3.66,3.66,0,0,1,172,183c-.72-2,.7-4.52,2-6.69a13.26,13.26,0,0,0,1.21-2.43c.93-3.33.61-3.86-.16-5.16a15.86,15.86,0,0,1-1.61-3.51,17.45,17.45,0,0,1-.34-6.16c.13-2.23.26-4.35-.44-5.73-1.21-2.41-4.34-3.05-7.1-3.61-2.26-.46-4.22-.86-4.71-2.31-.42-1.29.52-3,3.13-5.58-2.27-1.51-3.28-4.07-4.17-6.37s-1.73-4.4-3.58-5.31c-3.41-1.67-5,1-7,4.86-.39.78-.76,1.53-1.14,2.16l-.43.71-.56-.7c-4-5.16-3.73-6.3-1.75-8.23a9.3,9.3,0,0,0,2.33-3.21c1.68-3.92,1.07-4.76.94-4.89-1-.94-5.64,1.83-7.39,2.88l-.58.35-.35-.64a10,10,0,0,1-.59-5.43,9,9,0,0,0-.66-5.36c-1.24-2.49-2.29-3.83-3.21-4.09s-1.72.43-2.82,1.27a10.83,10.83,0,0,1-3.38,2,9.45,9.45,0,0,1-3.62.08c-1.36-.14-2.64-.27-3.11.3-.33.41-.33,1.27,0,2.55.68,2.55,3.37,3.52,6.24,4.53,2.2.78,4.48,1.59,5.94,3.21l.56.63-.71.34c-1.4.68-2.15,1.37-2.15,2,0,1,2,2.36,3.46,3.31a14,14,0,0,1,2.26,1.67,8.92,8.92,0,0,0,1.3,1.1,5.28,5.28,0,0,1,2.23,3.19,5.45,5.45,0,0,1-.43,3.74,3.34,3.34,0,0,0-.37,1.54c1.24,4.34,2.34,4.19,4.55,3.9a9.34,9.34,0,0,1,4.56.25c3.06,1,5.28,3.45,5.42,5.85.1,1.84-1,3.38-3.14,4.3a36.46,36.46,0,0,0,6.45,3.52c5.3,2.51,11.3,5.36,12.49,9.48a6.12,6.12,0,0,1-1.26,5.42l-.4.56-.51-.53c-2.33-2.4-3.63-2.91-4.06-2.59-1.15.83,0,6.48,1.63,9.53l.29.55-.51.28c-5,2.72-8.23-1.42-11.06-5.08l-.66-.84a19.9,19.9,0,0,1-1.3-2c-1.15-1.91-2.36-3.9-4.12-3.94-.83,0-1.49.94-2.18,2s-1.63,2.37-3,2.46c-2,.12-3.08-.24-3.63-1-.79-1.28.26-3,1.6-5.28s2.88-4.82,2.14-6.53c-.41-.9-1.46-1.57-3.17-2-3-.75-3.86,1.94-4.87,6.12-.63,2.6-1.22,5.05-2.93,5.56-1,.3-2.29-.18-3.83-1.47-1.71-1.44-2.55-2.82-2.57-4.25,0-2.55,2.61-4.54,5.17-6.47,2.74-2,5.31-4,4.57-6.21-.47-1.41-2-2.18-3.72-3a10.36,10.36,0,0,1-4.05-2.83l-.05-.08a12.94,12.94,0,0,1-1.82-4.54c-.65-2.53-1.21-4.72-4.53-5.87-2.07-.72-3.69-.72-4.44,0s-.74,1.78-.31,3.47c.5,2,2,2.72,3.63,3.6s3.11,1.63,4.05,3.47c1.34,2.61,1.68,4.11,1.13,5s-1.87.83-3.22.7c-.44,0-.89-.08-1.33-.08a10.15,10.15,0,0,1-4.18-1c-1.45-.63-1.75-.76-3,2.81a5.37,5.37,0,0,0,.2,3.31c.29,1,.57,2,0,2.72s-1.71,1-3.9.87-3.57-.59-4.34-1.52c-.93-1-.71-2.42-.54-3.73a6.68,6.68,0,0,0,0-2.51c-.89-3.11-.91-3.12-1.93-3.83a22.35,22.35,0,0,1-3.18-2.65l-.26-.26c-1.8-1.74-3.35-3.25-3.3-5,0-1.09.72-2.1,2.11-3.09,1.14-.81,2.8-.59,4.42-.38,2.76.36,4.48.45,4.92-2,.33-2-2.73-4.55-4.76-6.27-.66-.56-1.25-1.06-1.67-1.48l-.54-.54.58-.42c3.58-2.56,4.68-5.28,3.2-7.85-1.93-3.29-7.4-5.24-9.94-4.18-1.33.54-1.67,1.81-1,3.76l.24.7-.7.08A30.71,30.71,0,0,0,89.32,120a10.76,10.76,0,0,0,3.54,2.71c2.28,1.33,4.87,2.81,4.61,6.29-.12,1.6-.41,2.45-1,2.81a1.91,1.91,0,0,1-1.75,0,1.77,1.77,0,0,0-1.66,0c-.55.35-1.22-.05-1.91-.47-.35-.2-1.13-.67-1.3-.55s-.26.47-.21,1.07a1.74,1.74,0,0,1-.33,1.5c-.38.35-.3.89-.13,1.73a3,3,0,0,1-.18,2.37,2.68,2.68,0,0,1-2.06.93c-2.2.22-4.19-2.77-4.94-3.9-2.21-3.33-1.54-5.29-.84-7.37a12.18,12.18,0,0,0,.81-3.65c-1.87-1.3-2.95-3.26-4.09-5.34-1.69-3.06-3.43-6.24-8.05-7.37l.2-1.21c5.18,1.27,7.16,4.86,8.9,8,1.12,2,2.17,3.95,3.94,5l.32.2v.38a12.86,12.86,0,0,1-.88,4.4c-.68,2-1.17,3.46.67,6.23,1.52,2.28,2.79,3.41,3.76,3.31a1.81,1.81,0,0,0,1.26-.46c.2-.29.1-.84,0-1.43a2.84,2.84,0,0,1,.47-2.84c0-.05,0-.34,0-.54a2.17,2.17,0,0,1,.68-2.13c.78-.56,1.79,0,2.6.52a4,4,0,0,0,.81.41,2.7,2.7,0,0,1,2.52,0c.3.1.63.22.73.15s.35-.35.47-1.93c.19-2.65-1.72-3.75-3.93-5-1.74-1-3.55-2-4.45-3.92l-.32-.64.62-.21a32.38,32.38,0,0,1,5.59-1.29c-.53-2.2.12-3.84,1.84-4.55,3.1-1.27,9.22.78,11.51,4.78,1,1.77,1.94,5.25-2.91,9l1,.89c2.4,2,5.69,4.82,5.22,7.52-.64,3.69-3.71,3.29-6.18,3-1.46-.19-2.83-.36-3.61.18-1.08.77-1.61,1.48-1.64,2.17,0,1.13,1.31,2.44,2.88,4l.26.26a22.14,22.14,0,0,0,3,2.51c1.36.94,1.5,1.2,2.47,4.59a7.51,7.51,0,0,1,0,3c-.14,1.13-.28,2.06.24,2.72s1.64.94,3.41,1c2.09.1,2.75-.17,2.94-.42s0-.91-.19-1.65a6.51,6.51,0,0,1-.18-4.07c1.46-4.13,2.29-4.44,4.57-3.46a8.84,8.84,0,0,0,3.7.88c.47,0,1,0,1.42.09.91.09,1.94.18,2.16-.17s.28-1-1.15-3.77a7.32,7.32,0,0,0-3.48-2.88c-1.71-.9-3.65-1.92-4.31-4.48-.56-2.16-.35-3.73.62-4.65,1.38-1.32,3.82-.85,5.62-.23,4,1.39,4.71,4.15,5.4,6.82a13.25,13.25,0,0,0,1.65,4.15,9.3,9.3,0,0,0,3.54,2.41c1.86.9,3.77,1.84,4.42,3.8,1,3.09-2,5.37-5,7.57-2.34,1.75-4.75,3.56-4.72,5.51,0,1,.7,2.08,2.08,3.24,1.17,1,2.07,1.39,2.69,1.21,1.09-.32,1.63-2.57,2.15-4.73.87-3.59,1.94-8,6.27-7,2.17.55,3.5,1.46,4.06,2.77,1,2.31-.68,5.16-2.18,7.67-.89,1.49-2,3.35-1.63,4,.07.11.47.54,2.45.4.8-.05,1.47-1,2.13-2,.83-1.21,1.69-2.47,3.14-2.44,2.45.06,4,2.57,5.2,4.59a20.1,20.1,0,0,0,1.21,1.84l.67.85c2.64,3.42,5.16,6.66,9,4.95-1.33-2.88-3-9.08-1-10.53,1.08-.79,2.76-.06,5.11,2.24a4.59,4.59,0,0,0,.72-3.8c-1-3.51-7-6.35-11.76-8.61-3.41-1.62-6.35-3-7.59-4.54l-.58-.72.81-.26c2.19-.7,3.34-1.93,3.26-3.46-.1-1.86-2-3.77-4.51-4.65a8.28,8.28,0,0,0-4-.2c-2.66.35-4.51.22-6-4.86a3.82,3.82,0,0,1,.4-2.34,4.35,4.35,0,0,0,.42-2.89,4,4,0,0,0-1.75-2.51,10.59,10.59,0,0,1-1.46-1.25,15,15,0,0,0-2-1.48c-1.92-1.25-4.1-2.66-4.08-4.45,0-1,.67-1.84,2-2.64a16.4,16.4,0,0,0-4.78-2.26c-3.07-1.09-6.24-2.21-7.1-5.47-.46-1.74-.39-2.89.21-3.63.84-1,2.42-.88,4.1-.71a8.64,8.64,0,0,0,3.16,0,9.81,9.81,0,0,0,3-1.8c1.24-1,2.42-1.85,3.83-1.46s2.59,1.85,4,4.8a10.18,10.18,0,0,1,.81,6.06,9.7,9.7,0,0,0,.2,4.07c3.57-2.11,6.78-3.73,8.27-2.35,1,1,.85,3-.6,6.37a10.3,10.3,0,0,1-2.58,3.57c-1.34,1.31-1.85,1.8,1.23,5.82.22-.41.45-.86.67-1.33,1.61-3.24,3.8-7.67,8.53-5.35,2.33,1.15,3.31,3.63,4.25,6s1.93,4.93,4.3,6.1l.84.41-.64.62c-3.34,3.21-3.58,4.45-3.43,4.9.24.68,2,1.06,3.71,1.41,2.9.59,6.51,1.31,8,4.32.86,1.71.72,4,.58,6.41a16.7,16.7,0,0,0,.27,5.68,14.19,14.19,0,0,0,1.49,3.23c.95,1.61,1.33,2.47.3,6.17A13,13,0,0,1,175,177c-1.06,1.86-2.39,4.17-1.87,5.66a2.83,2.83,0,0,0,3.3,1.46c1.6-.68,2.53-3.52,3.2-5.6a15.87,15.87,0,0,1,.83-2.24c1.41-2.74,4.72-9.17,10.9-5.88,4.49,2.38,3.63,5.32,2.78,8.15a15.51,15.51,0,0,0-.75,3.51c-.17,3.28.27,5.28,1.38,6.28.85.77,2.2,1,4,.61,2.37-.48,3.24-3.55,4-6,.55-1.91.94-3.3,2-3.56,2.85-.71,5,3.17,6.77,6.27.84,1.49,2.11,3.74,2.69,3.69.13,0,.82-.27,1.61-4,2.22-10.57-2.21-12.87-8.34-16.07a37.7,37.7,0,0,1-9-5.92,11.37,11.37,0,0,1-3.1-5.79,13.18,13.18,0,0,0-1.87-4.37l0,0c-1.14-1.59-3.33-2.68-5.46-3.73-2.9-1.44-5.9-2.94-6.78-5.85a5.68,5.68,0,0,1,.64-4.71c.72-1.41,1.17-2.36-.73-4.36-1.48-1.56-4.13-1.86-6.93-2.18-3.47-.39-7-.77-8.79-3.77a4.82,4.82,0,0,1-.37-4.07c.34-1.34.61-2.4-1.1-4.32-.75-.82-3-1.61-5.24-2.38-3.89-1.35-7.91-2.75-7.91-5.41,0-1.63,3.76-2.39,5-2.6,1.31-4.36,2.76-6.45,4.58-6.55,2.64-.16,4.94,3.92,7.37,8.22,1.57,2.78,3.18,5.65,4.53,6.48a11,11,0,0,0,4.77,1.59c2.05.29,4,.56,6.75,4a28.84,28.84,0,0,1,4,7.47c1.35,3.25,2.63,6.32,5.63,8.67.74.58,1.61,1.15,2.44,1.7,2.43,1.62,4.72,3.14,4.71,5.15,0,1.44-1.24,2.76-3.85,4.14,2,2.66,4.41,2.47,7.12,2.26a12.36,12.36,0,0,1,5.71.47c2.83,1.13,3.24,1.87,3.46,3.28a4.89,4.89,0,0,0,.91,2.29l.74,1.09a10,10,0,0,0,2.55,2.85l.48.42a19.76,19.76,0,0,0,1.68,1.21c3.05,2.1,8.17,5.59,7.82,9.38-.27,3-2.11,4-3.58,4.87-.94.53-1.68,1-1.85,1.74-.2.94.37,2.48,1.76,4.72,1.78,2.86,4.51,6.37,7.41,6.79a4.66,4.66,0,0,0,4-1.57c-1.55-2.33-2-3.88-1.41-4.89.93-1.56,4-.93,6.65-.37a14.23,14.23,0,0,0,2.75.42c2.94-.27,3.26-.74,3.29-.79-.13-.39-2.07-1.54-3.24-2.21a16.82,16.82,0,0,1-3.42-2.3l-.35-.37.25-.41c1.31-2.13,3.54-2.11,5.32-2.09,1.09,0,2,0,2.36-.45.22-.31.35-1.08-.24-3-1-3.11-3.93-4-7.07-5-3-.92-6.08-1.88-7-5a5.83,5.83,0,0,1,.94-4.79c.57-1,.91-1.68.7-2.37s-1.27-1.72-3.11-2.77a15.21,15.21,0,0,0-5.74-1.55c-3.08-.41-6.26-.82-8.88-4.38l-.49-.66.7-.28c2.36-1,3.54-2.38,3.39-4.12-.19-2.25-2.55-4.72-5.5-5.75a6.82,6.82,0,0,0-2.79-.24c-1.53.1-3.1.19-4.68-1.71-.8-1-.63-2.25-.46-3.48s.31-2.37-.38-3.13c-1.55-1.76-3.46-1.7-5.68-1.63-2.46.07-5.25.16-7.58-2.63a11.13,11.13,0,0,1-1.87-4.35,11.76,11.76,0,0,0-1.38-3.57l0,0a5.53,5.53,0,0,0-2-1.41c-1.36-.73-3.06-1.65-3.07-3.77,0-2.51.59-3.92,1.86-4.3,2.85-.85,8,4.68,12.13,9.89.66-3.7,1.69-5.54,3.2-5.75,2.67-.39,5.59,4.54,8.67,9.75a56.9,56.9,0,0,0,4,6.14c2.11,2.6,4.6,3.69,7,4.73,3.81,1.66,7.41,3.23,8.65,10.26a33.23,33.23,0,0,1,.42,4c.19,3.15.22,3.73,5.56,4.72,1.45.27,2.67.39,3.76.5,3.61.36,5.8.58,9.43,5.34l1.25,1.56c5.22,6.45,7,8.92,7,9.79.07,2-1.59,3.08-3.05,4-1.1.69-2.13,1.36-2.28,2.26a2.93,2.93,0,0,0,.7,2c.89,1.42,2.68,1.69,4.22,2s2.73.51,3.25,1.61,0,2.63-1.75,5.18a11.91,11.91,0,0,1-3.05,2.76c-1.44,1-2.82,2-2.88,3.32,0,.89.52,2,1.7,3.23a10.94,10.94,0,0,0,2.87-.79,11,11,0,0,1,2.89-.79,14.14,14.14,0,0,0,1.84-.25c.92-.17,1-.13,2.87.54l.73.27a4.73,4.73,0,0,1,2.41,2,2.31,2.31,0,0,0,2.24,1.33,19.65,19.65,0,0,0,2.09-1.38c.77-.55,1.51-1.08,2.09-1.41-4.7-8.9-3-11.24,1.81-17.9l.86-1.19c1.31-1.83,2.45-3.42,4.23-3.41,1.52,0,3.2,1.19,5.44,3.82,4.23,5,2.43,7.1.33,9.52a17.51,17.51,0,0,0-2.33,3.12c-2.29,4.15-1.83,7.47,1.59,11.35a56.25,56.25,0,0,0,6.69-5.11l.38-.33.41.36a19.94,19.94,0,0,1,2.9,3.46c1.27,1.76,2.45,3.42,4,3.72a4,4,0,0,0,2.91-.75c-4-4.25-4.8-7.77-4.25-9.54a2.13,2.13,0,0,1,1.92-1.59c2.15-.15,5,2.34,7.73,6.69.45.73.87,1.57,1.31,2.46,1.17,2.37,2.49,5,4.72,5.86,1.82.66,3.09.73,3.56.2s.23-2.54-1-5.13a8.77,8.77,0,0,0-2.77-3.82,1.32,1.32,0,0,1-.63-.84c-.07-.47.19-.76.87-1.55.29-.33.67-.76,1.15-1.35a8.24,8.24,0,0,1,3.12-2.17c.86-.4,1.53-.72,1.62-1.21s-.56-1.79-2-3.49c-2-2.45-7-3.61-11.83-4.73-6-1.4-11.61-2.7-11.87-6.57-.09-1.42.81-2.9,1.69-4.32.61-1,1.45-2.37,1.16-2.84-.11-.22-1-.84-5.27-.42a11.58,11.58,0,0,0-4,1.38c-2.53,1.24-5.15,2.52-8.45-.81l-.29-.29.12-.37c1.09-3.38,0-3.82-2.14-4.69a14.9,14.9,0,0,1-2.35-1.13,19.6,19.6,0,0,1-5.73-5.09c-.61-.74-1.32-1.59-2.3-2.67-2.34-2.55-3.65-2.64-5.61-2.77a14.91,14.91,0,0,1-4.6-.89c-4.28-1.55-4.76-3.42-5.42-6a19.61,19.61,0,0,0-1.38-4c-1.65-3.42-3.15-4-5.23-4.72a15.33,15.33,0,0,1-4.45-2.31,7.19,7.19,0,0,1-3-4.65,8,8,0,0,0-1.43-3.25c-.94-1.25-3.93-2.68-6.58-3.94-4.13-2-6.65-3.27-6.55-4.87.06-1.14,1.39-1.88,4.44-2.48a16.8,16.8,0,0,1,4.07,0,18.62,18.62,0,0,0,3.75,0c.9-.14,1.71-.3,2.45-.45,4.17-.82,6.7-1.29,10.77,4.84,1.14,1.72,1.88,4.36,2.66,7.16,1.19,4.27,2.43,8.69,5.08,9.89,1.78.8,3.33.37,5-.1,2.33-.66,5-1.41,8.26,1.8,1.35,1.29,2.11,3.76,2.92,6.36.9,2.87,1.83,5.85,3.34,6.24,1.26.33,2.21-.55,3.32-1.56,1.63-1.48,3.64-3.33,7.16-1.24,2.85,1.7,4,5,5.2,8.24,1.06,3,2.06,5.76,4.23,7.35,1.9,1.39,4.13,1.59,6.49,1.79a15.83,15.83,0,0,1,6.32,1.45,19.3,19.3,0,0,1,5.15,4.57c1.75,2,3.41,3.84,5.72,4.66,1.52.53,3.32.25,5.22-.05,2.51-.4,5.1-.81,7.23.73a6.75,6.75,0,0,1,2.94,4c.56,2.71-1.2,5.32-2.9,7.86s-3.42,5.09-2.08,7.09v0c.58.82,3.25,1.67,4.67,2.12l1.08.35,1.73.63-1.67.56c-1.94.64-3.39,1.95-3.69,3.33a3.09,3.09,0,0,0,.88,2.72c1.83,2.14,3.15,1.43,5.14.08a10.74,10.74,0,0,1,2.08-1.17,38.27,38.27,0,0,1,3.76-.91,29.46,29.46,0,0,0,3.63-.89,8.41,8.41,0,0,1,1.57-.78,13.69,13.69,0,0,1-1.32-2.89,9,9,0,0,0-1.5-2.23c-1-1.27-2-2.46-1.72-3.61.16-.68.72-1.16,1.7-1.48,3-1,5.36,2.56,6.94,4.92.38.57.72,1.08,1,1.44a19.13,19.13,0,0,1,1.68,2.52c1.12,1.91,1.8,3.07,4.8,2.87a5.93,5.93,0,0,0,4.42-2.83,6.61,6.61,0,0,0,.94-5.35c-1.29-4.33-5.48-5.32-9.55-6.28-3.49-.82-6.78-1.59-8.2-4.41a8.5,8.5,0,0,1-.76-4.43c.06-2,.1-3.57-3-5.45-1.81-1.11-4.08-.92-6.27-.74s-4.66.39-6.59-.89c-2.09-1.37-2.39-3.44-2.66-5.26a6,6,0,0,0-1.29-3.56c-2-1.94-3.54-1.49-5.71-.85a17.2,17.2,0,0,1-3.13.68c-.76.07-1.43.2-2,.31-2.13.4-4,.75-5.43-2.6-.93-2.13.49-6.93,2.34-7.91,1.19-.63,3.05.12,5,.93,1.77.73,3.78,1.54,4.28.73.08-.13.32-.52-.12-1.36-1.43-2.74-7.46-6.15-8.88-6.26a14.2,14.2,0,0,0-5.53,1.08c-2.52.84-4.9,1.64-7.16.47-1.67-.87-3-2.73-4.1-5.7l-.25-.68.67-.12c1.19-.22,3.19-.8,3-2.27-.17-1.81-3.15-4.06-5.78-4.4a13.14,13.14,0,0,0-4.58.59c-3.44.85-7.36,1.81-9.82-3.75l-.25-.57.54-.24a12.61,12.61,0,0,0,2.38-1.49,17.72,17.72,0,0,1,2-1.34c-1.21-2.69-2.26-4.17-3.19-4.52s-1.76.21-2.94.89a12.28,12.28,0,0,1-4.62,1.78c-2,.25-3.05.12-3.66-.45a2.76,2.76,0,0,1-.6-2.25,5.62,5.62,0,0,0-1.41-4.31c-1-1.16-2.71-1.37-4.49-1.59-2.18-.27-4.66-.58-5.83-2.94-1-1.94-1-3.38-.22-4.28,2.28-2.53,10.46,1,10.55,1,1.08.47,1.93.87,2.63,1.2,2.58,1.21,2.58,1.21,3.94-.39.53-.63,1.26-1.49,2.31-2.57,2.7-2.74,4.5-3.71,6.23-3.37,2.09.42,3.72,2.83,5.52,6.32a19.73,19.73,0,0,1,1.11,3c.57,1.87,1.22,4,2.41,4.92a2.61,2.61,0,0,0,2.18.49,3.78,3.78,0,0,1,2.21.3c4.44,2.28,6,5,7.7,8.1a36.94,36.94,0,0,0,3.75,5.75c3.13,3.83,4.71,3.24,7.09,2.35a9.38,9.38,0,0,1,7.11-.36c6,2.09,9.45,11.27,10.4,17a4.33,4.33,0,0,1,3.1.85c2.24,1.71,2.76,5.66,3.22,9.14.35,2.68.71,5.46,1.76,5.85.51.2,1.82,0,4.92-3.27,2.6-2.78,4.28-4.57,6.31-4.28,1.73.24,3.41,1.93,6,6A15.22,15.22,0,0,1,362,176a19.68,19.68,0,0,0,.8,5.56c1.53,4.88,2.83,5.27,3.2,5.28.9,0,2.23-1.8,3-5.8.94-4.88,2.48-7.55,4.69-8.14,1.84-.49,4,.52,6.55,3,5,5,3.27,8,1.22,11.52l-.42.71c-.45.78-.78,1.31-1,1.73a8.54,8.54,0,0,0-1.33,3.12,5.29,5.29,0,0,1,0,1.08c0,3.16-.24,4.45-.47,5,0,.24,0,.51,0,.8,0,.93,0,2.08.6,2.6a2.62,2.62,0,0,0,2.12.32c1.67-.26,1.84-1.33,2-3.21a7.7,7.7,0,0,1,.7-3.14c2.57-4.66,4.44-4.3,7.54-3.26a20,20,0,0,0,3.75,1,18.38,18.38,0,0,0-3.2-3.5c-2-1.88-4.07-3.81-4.21-6a4.26,4.26,0,0,1,1.37-3.25c2-2.12,4-1.35,5.66-.67,1.42.57,2.66,1.06,4,0,.19-.14.09-.43-.47-1.33-.46-.72-1-1.54-.63-2.29.27-.6,1-.89,2.27-1,2.55-.12,4.19,2.72,5.29,4.61.2.33.37.64.54.91a19.11,19.11,0,0,1,1.51,3.62c1,2.94,2.32,6.61,4.74,6.9,1.33.17,3,.18,3.35-.71.8-2-4.22-7.93-7.09-10.63l-.55-.52.55-.43c3.61-2.85,4.51-5.55,2.83-8.51-1.76-3.13-3-2.66-5-1.93a9.75,9.75,0,0,1-3.66.76c-4-.12-5.25-3.1-6.24-5.5-1.23-2.94-2.1-5-6.8-3.47a8.41,8.41,0,0,0-2.75,2.12c-1.31,1.3-2.67,2.64-4.29,2.38-1-.16-2-.95-2.9-2.38l-.41-.64.66-.26c2.49-1,3.43-2.27,2.79-3.81-1.26-3.1-8.64-6.59-12.57-5.23a5.11,5.11,0,0,0-2.32,1.88c-.59.72-1.14,1.4-2.09,1.45s-1.88-.47-3.26-1.69c-.33-.28-.52-.84-1-2.5s-1.23-3.91-2-4.8c-1.7-2-5.11-4.35-7.64-4.63a7.89,7.89,0,0,0-3.32,1c-1.78.81-3.63,1.66-5.14.82a4.48,4.48,0,0,1-2.41-2.41,3.39,3.39,0,0,1,.74-2.76c.56-.92.89-1.51.47-2.17-.09-.14-.18-.29-.28-.42-2.27-3.21-5.79-4.27-9.5-5.4a33.17,33.17,0,0,1-6.22-2.35c-1-.53-9.73-5.32-9.41-8.92.1-1.06.87-1.82,2.34-2.34-2.63-1.56-4.47-4-4.31-6,.08-1,.74-2.74,4.28-3,2.16-.17,8.49,3.1,15.35,6.76,1.56.84,2.85,1.53,3.6,1.89,5.15,2.47,7,5.85,8.95,9.43a27.34,27.34,0,0,0,5.13,7.26c3.57,3.43,8.57,4.82,13.87,6.3,4,1.12,8.18,2.28,11.63,4.42,2,1.23,4,2.7,5.91,4.13,6.08,4.49,12.36,9.12,19.89,7.56,3.94-.82,6.82-3.22,7.35-6.12.45-2.47-.81-5.08-3.58-7.36-3.12-2.58-7.95-3.2-12.62-3.8a47.72,47.72,0,0,1-6.85-1.21c-6.27-1.8-14.27-4.51-20.49-9.59-.12-.09-11.55-9.63-10.28-12.93.52-1.37,2.6-1,3.29-.88a16.29,16.29,0,0,1,4.6,2.26c2.5,1.52,5.34,3.23,6.71,2.44.81-.47,1.18-1.89,1.06-4.19L372.1,114l1.08,1.07c3.94,3.88,27.29,24.67,35.93,23.29a3.08,3.08,0,0,0,2.52-2c.57-1.38-4.39-5.55-8.38-8.91-5.56-4.68-11.32-9.52-11.13-12.93a3,3,0,0,1,1.79-2.51c1.33-.7,3.39-.33,6.15,1.11,7.79,4.08,20.32,16.5,21.26,21.09a11.2,11.2,0,0,1-.45,4.44c-.68,3.05-1,5.14.78,6.14,1,.59,2.42-.42,3.88-1.49,1.67-1.22,3.56-2.6,5.42-1.62,1.32.71,2,1.5,2.11,2.41.19,1.81-2.06,3.35-4.9,5.29-3.92,2.67-8.35,5.69-6.42,9.53l.58,1.16-1.22-.3c-3.72-.91-4.56-.27-4.74,0-.77,1.3,2.5,5.62,4.66,8.49s3.53,4.72,3.65,5.89c.1.94-.5,2.22-1.19,3.69-.88,1.88-2,4.21-1.31,5.51a2.82,2.82,0,0,0,2.08,1.2,2.54,2.54,0,0,0,2.24-.61,7.08,7.08,0,0,0,2.06-5v-.66l.65.08a16,16,0,0,1,4.2,1.62c2.6,1.26,5.54,2.68,6.53,1.27,1.47-2.11-.62-4.41-4-7.7-2.63-2.57-5.36-5.23-4.69-7.89.51-2,1.35-3.14,2.55-3.4,2.32-.51,5.1,2.42,7.55,5a14.31,14.31,0,0,0,3,2.73c2.73.94,4.55,1,5.09.28s.4-2.76-3.15-8.27c-2.85-4.43-3.75-7.43-2.66-9,.7-1,2.11-1.15,4-.52,4.11,1.4,10.41,6.86,11,13.08.17,1.67-1.07,4-2.38,6.48s-2.89,5.49-2.06,6.48c1.4,1.6,5.05-1,7.24-2.57a15.08,15.08,0,0,1,2.23-1.45,11.12,11.12,0,0,1,7.71-.77,13.64,13.64,0,0,0,5.46.2c2.43-.41,3.86-1.45,4.26-3.05.59-2.39-1.15-6-4.45-9.25l-.52-.51.52-.43c.6-.49,1.25-1,1.89-1.47,2.5-1.89,5.08-3.84,4.95-6-.08-1.29-1.2-2.71-3.33-4.23-4-2.82-6.87-1-9.95.89-2.82,1.76-5.74,3.57-9.47,1.65-4.07-2.1-3.19-4.35-2.41-6.35.66-1.69,1.33-3.26-.32-5.32-.7-.89-3.56-1.55-5.65-2a20.69,20.69,0,0,1-3.46-1A66,66,0,0,1,438,130.12L436,128.71l.5-.51c2.55-2.58,2.64-3.72,2.46-4.16-.42-1-3.38-1.4-5.77-1.67-2.68-.3-5.21-.58-6.53-1.72-2.26-2-3.06-3.7-2.36-5.13,1.6-3.29,10.6-2.95,13.82-1.92,5.5,1.74,8.89,5.89,12.18,9.91,2.81,3.43,5.46,6.68,9.36,8.61,2.86,1.42,5.8,1.49,8.65,1.56,4.37.11,8.82.19,12.41,5.58,4.93-1.6,8.16-1.57,10.15.09,2.79,2.33,2.39,7.21,1.92,12.87-.41,5-.87,10.56,1.09,14.51,3.59-3.62,8.3-2.07,12.12-.81,3.1,1,5,1.57,6,.25s-.14-2.83-1.89-4.95c-1.1-1.34-2.14-2.6-2.3-3.89-.29-2.39.76-4.49,1.78-6.52,1.1-2.2,2.14-4.28,1.54-6.62-1-4-4.61-5.58-8.42-7.23a29.94,29.94,0,0,1-5.16-2.64,31.07,31.07,0,0,1-4.75-4.44c-2.51-2.69-4.89-5.23-8.09-5.78a10.17,10.17,0,0,0-5,.54c-2.09.61-4.24,1.24-7.45-.17a62.77,62.77,0,0,1-9-5.71c-1.58-1.12-3.08-2.18-4.32-3-2.18-1.39-4.45-2.85-5.87-5.3l-.35-.63.63-.25c7.94-3.06,16.9.68,25.57,4.3,5.24,2.19,10.2,4.26,14.65,4.72a22.13,22.13,0,0,0,4.74-.1c3.54-.36,6.1-.61,10,5.78a32.16,32.16,0,0,1,2.6,5.52c1.19,3.05,2.22,5.69,5.63,8a23.6,23.6,0,0,0,5,2.22c3.77,1.36,8,2.91,9.36,7,1.69,5.21-1.68,6.55-4.39,7.64-2,.79-3.86,1.54-4.07,3.52-.14,1.31-.09,3,.91,3.48,2,1,6.65-2.05,8-3.65,4.14-4.86,6-5.22,9.47-5.88a41.9,41.9,0,0,0,5.24-1.28c2.84-.91,3.52-1.74,3.58-2.27.12-1-1.82-2.58-3.71-4.08a26.21,26.21,0,0,1-4.69-4.38,10.15,10.15,0,0,1-2.4-6.91c0-1.71,0-2.56-2.91-3.85a24.75,24.75,0,0,0-6-1.76c-3.65-.68-6.27-1.17-8.8-7.69-1.67-4.33-1.87-6.91-.6-8.12s3.38-.88,6.8.74a13.41,13.41,0,0,1,3.18,2.57c1.43,1.4,2.93,2.85,4.2,2.86,1,0,1.71-.9,2.46-1.86s1.62-2.07,3-2.27c3.42-.5,7.14,1.14,9.93,4.39,3,3.44,4.28,7.88,3.32,11.3a3.52,3.52,0,0,1-1.54,2c-.7.51-1,.72-.49,2,.29.73,1.59,1.12,2.86,1.5s2.67.8,3.37,1.72l.19.26c2,2.87,1,4.86,0,6.62-.77,1.44-1.43,2.69-.54,4.42.75,1.48,1.48,2.28,2.13,2.34,1.15.1,2.4-2,3.42-3.63a8.57,8.57,0,0,1,2.23-2.87,11.93,11.93,0,0,1,4.32-.92c2-.2,4.2-.43,4.48-1.36.13-.45,0-1.58-2.75-4.32l-1.15-1.17,1.56.11,1,.1c1.79.19,6,.63,6.59-.53a3.11,3.11,0,0,0-.22-2.44c-.91-2.11-3-4.19-4.12-4.57-1.73-.57-3.39.36-5.14,1.35-2.58,1.45-5.56,3.08-8.37-1.27l-.39-.58.57-.3a6.12,6.12,0,0,0,1.26-1.07,7.31,7.31,0,0,1,1.88-1.51c-.31-.57-.72-1.21-1.15-1.87-1.39-2.16-2.83-4.39-2-6,.53-1.08,1.94-1.59,4.31-1.56,2.68,0,4.42,1.73,5.94,3.22,1.89,1.85,3.38,3.31,6.27,1.76a7.09,7.09,0,0,0,2.08-2.34c1-1.44,2-2.94,3.69-3,1.44,0,3,1,5,3.25a7.16,7.16,0,0,1,1.86,6.32,7.25,7.25,0,0,1-4.4,5,20.54,20.54,0,0,0,2,1.56c1.95,1.42,4,2.9,2.42,5.84-.83,1.58-2.33,1.85-3.67,2.08-1.53.27-2.68.47-3,2.34,3,.3,4.65-1.29,6.5-3.12a13.68,13.68,0,0,1,4.14-3.14c1.79-.78,4.22-.35,6.57.06s4.52.79,5.49-.11a2.79,2.79,0,0,0,1.17-2.36c-.28-1.71-3.12-3.31-5.41-4.61-1.92-1.09-3.43-2-3.87-2.95-.72-1.65-.76-2.88-.11-3.66,1.23-1.48,4.5-.72,7,0-.57-2.56.3-3.92,1.2-4.61,2.31-1.79,6.78-.87,9.58,1,3.31,2.22,6.36,7.14,7.71,10.9,2.47-.68,3.05-2.57,3.61-4.4.68-2.22,1.44-4.72,6-3.18a4.7,4.7,0,0,1,2.54,2.6c.77,1.37,1.22,2.21,3.23,1.59,2.38-.72,2.14-3.23,1.52-5.22l-.31-1,1,.24a34,34,0,0,1,5.75,3,31.7,31.7,0,0,0,3.36,1.83c1.1,0,1.45-.22,1.56-.33s.12-.48.07-1a4.1,4.1,0,0,1,1.36-3.88c3.12-2.76,6.33-.73,9.16,1.06,2.57,1.63,4.81,3,7,1.61l0,0a13.31,13.31,0,0,1-.76-1.28,6.81,6.81,0,0,0-1-1.57l-.62-.6.71-.39c2.32-1.27,5.62-1.62,8.82-2a38.24,38.24,0,0,0,5.74-.9,21.52,21.52,0,0,1,8.21-.25,23.31,23.31,0,0,0,7,0c2.33-.45,4.48-1.92,6.56-3.34a26.26,26.26,0,0,1,5-2.9,35.05,35.05,0,0,1,4.09-1.24c2.52-.65,4.91-1.27,6.89-2.92ZM333.22,154.38l-.1-.7c-.78-5.76-4.28-14.72-9.6-16.6a8.16,8.16,0,0,0-6.31.36c-2.45.91-4.77,1.77-8.49-2.78a37.57,37.57,0,0,1-3.9-5.94c-1.71-3.05-3.05-5.46-7.13-7.55a2.6,2.6,0,0,0-1.54-.16,3.86,3.86,0,0,1-3.07-.77c-1.52-1.19-2.24-3.53-2.88-5.6a18.28,18.28,0,0,0-1-2.79c-1.93-3.71-3.26-5.34-4.61-5.62s-2.82.66-5.18,3.06c-1,1-1.74,1.89-2.25,2.5-1.86,2.2-2.2,2.13-5.32.67-.69-.32-1.54-.72-2.6-1.19-2.51-1.1-8-2.65-9.22-1.26-.56.62-.1,1.92.38,2.89.88,1.71,2.68,1.94,4.81,2.2,2,.24,4,.49,5.32,2a7.11,7.11,0,0,1,1.75,5.21c0,.56,0,1.1.16,1.24s.71.36,2.65.11a11.15,11.15,0,0,0,4.21-1.64c1.39-.79,2.58-1.47,3.94-1s2.66,2.27,4.19,5.8l.24.57-.52.23a13.11,13.11,0,0,0-2.33,1.47,16.63,16.63,0,0,1-2.06,1.36c2,3.95,4.84,3.23,8.1,2.44a14.12,14.12,0,0,1,5-.62c3.33.43,6.71,3.16,6.94,5.6.09,1-.25,2.64-3.3,3.39.91,2.25,2,3.66,3.19,4.31,1.79.94,3.94.21,6.22-.55a15,15,0,0,1,6-1.14c2,.16,8.34,3.94,9.93,7a2.5,2.5,0,0,1,.1,2.61c-1,1.63-3.39.64-5.69-.29-1.54-.64-3.29-1.35-4-1-1.3.69-2.51,4.84-1.85,6.35,1,2.37,1.85,2.23,4,1.81.64-.12,1.34-.25,2.14-.32a15.65,15.65,0,0,0,2.92-.64c2.28-.66,4.43-1.27,6.93,1.19,1.23,1.22,1.46,2.8,1.69,4.33.25,1.68.48,3.29,2.06,4.32s3.62.87,5.8.68a28.77,28.77,0,0,1,2.92-.14c-1.68-.78-2.05-3.62-2.48-6.89s-.89-6.86-2.69-8.24a3.33,3.33,0,0,0-2.77-.5Z" transform="translate(0 -11.93)"/><path class="e" d="M711.52,107v1.25c-5.67-.47-10.87,1.7-15.89,3.79-7.88,3.28-16,6.67-25.74-.5-.77-.57-1.47-1.14-2.11-1.66-1.79-1.45-3.08-2.5-4.34-2.36-1.09.12-2.26,1.14-3.66,3.2a18.41,18.41,0,0,0-1.29,2.35c-1.12,2.32-2.3,4.72-5.81,4.87-2.31.1-3.66-.22-4.39-1s-.65-2-.51-3.24a7.54,7.54,0,0,0-.15-3.41c-1.12-3.19-3.88-5.41-6.8-7.76l-.88-.71a5.51,5.51,0,0,0-.69,3.26c0,1.62-.09,3.3-1.4,4.32-2.19,1.71-8.27.15-10.36-1a35.22,35.22,0,0,1-3.92-2.44c-1-.69-1-.69-2.11,0-.63.37-1.57.93-3,1.63-3.33,1.65-4.93,2.31-6.26,1.8s-1.9-1.77-3.09-4.16l-.45-.88a19.89,19.89,0,0,1-.77-1.88c-.82-2.18-2.07-5.48-4.05-6.44a3.12,3.12,0,0,0-2.64,0c-1.52.61-1.45,2.87-1.37,5.25.09,2.87.19,6.13-2.86,6.72a3.57,3.57,0,0,1-3.1-.64c-1.63-1.38-1.67-4.33-1.72-6.93,0-1.54-.05-3.12-.43-3.73-1.13-1.8-2.51-2.7-4-2.68-2.05,0-4.22,1.83-5.39,4.45a17.75,17.75,0,0,0-.67,2.36c-.8,3.22-1.79,7.22-4.17,7.56-1.31.19-2.71-.78-4.26-3l0,0c-2.64-3.73,0-6.61,2.36-9.14,1.59-1.73,3.25-3.52,3.3-5.47.16-5.62-3.55-8.11-7.07-8.57-4-.53-8.42,1.56-8.77,6-.12,1.54,1.23,3.46,2.53,5.31,1.48,2.11,2.88,4.09,2.48,5.89a3.53,3.53,0,0,1-2.28,2.34c-1.24.55-2.7-.16-4.12-.85-1.11-.53-2.25-1.09-2.95-.81s-.83.77-1,1.43a2.35,2.35,0,0,1-.95,1.72,11.79,11.79,0,0,0-1.11.87c-1.47,1.22-3.28,2.74-4.73,2-1-.55-1.47-2-1.46-4.46,0-3,2.3-4.6,4.52-6.18s4.51-3.2,4.26-6.21c-.23-2.76-1.28-4.6-2.9-5.06s-3.78.71-5,2.91a21,21,0,0,0-1.64,6.2c-.82,5.06-1.76,10.79-9.49,9.71-1.36-.19-2.34-1.24-3.29-2.25s-1.73-1.86-2.74-1.85c-1.27,0-2.54,1.48-3.77,2.89a10.85,10.85,0,0,1-2.8,2.59c-3.18,1.64-5.37,1.89-6.68.78s-1.63-3.8-.59-8.13c1.56-6.52,4.11-7,7.66-7.74a21.71,21.71,0,0,0,5.78-1.79c2.68-1.31,2.57-2.17,2.34-3.87a9.47,9.47,0,0,1,1.38-6.93,21.31,21.31,0,0,1,4-4.4c1.66-1.51,3.38-3.06,3.1-4.1-.14-.54-.94-1.35-3.92-2.25a44.69,44.69,0,0,0-5.42-1.25c-3.53-.64-5.48-1-10.33-5.82-1.61-1.6-6.72-4.62-8.55-3.61-.93.51-.73,2.18-.4,3.49.51,2,2.49,2.72,4.6,3.49,2.87,1.07,6.44,2.4,5.5,7.61-.72,4.09-4.76,5.66-8.32,7a20.08,20.08,0,0,0-4.65,2.24c-3.07,2.32-3.71,5-4.45,8a27.59,27.59,0,0,1-1.78,5.54c-3,6.42-5.58,6.18-9.17,5.84a22.13,22.13,0,0,0-4.75-.08c-4.39.48-9,2.58-14,4.8-8.13,3.67-16.53,7.47-24.92,4.45l-.67-.24.27-.63c1-2.47,3.09-3.92,5.08-5.33,1.13-.8,2.47-1.86,3.88-3,2.72-2.18,5.79-4.64,8.16-5.77,3-1.43,5.24-.82,7.42-.22a10.81,10.81,0,0,0,5.12.52c3.12-.57,5.12-3.14,7.23-5.83a25.25,25.25,0,0,1,4.09-4.47,24.94,24.94,0,0,1,4.77-2.67c3.56-1.67,6.93-3.25,7.35-7.27.25-2.35-1.09-4.42-2.52-6.61-1.32-2-2.68-4.12-2.74-6.51,0-1.29.82-2.56,1.72-3.9,1.43-2.12,2.31-3.57,1.16-5s-3-.75-5.92.28c-3.63,1.28-8.11,2.85-12.23-.74-1.39,4-.09,9.54,1.05,14.51,1.3,5.65,2.43,10.53,0,12.87-1.74,1.66-5,1.71-10.13.14-2.73,5.37-7.23,5.51-11.58,5.65-2.83.08-5.77.17-8.41,1.61-3.61,2-5.78,5.22-8.08,8.67-2.69,4-5.47,8.19-10.71,10-3,1-11.79,1.42-14-1.73l-.09-.12c-.91-1.42-.36-3.15,1.61-5.14,1.15-1.15,3.63-1.44,6.27-1.76,2.34-.28,5.26-.62,5.52-1.7.1-.45-.15-1.59-3.08-4.15l-.58-.51,1.76-1.43a55.12,55.12,0,0,1,9.86-6.93,18.64,18.64,0,0,1,3.32-1c2-.5,4.78-1.19,5.35-2.07,1.31-2.05.45-3.64-.47-5.33-1.07-2-2.28-4.23,1.48-6.36,3.44-1.94,6.63-.15,9.72,1.59,3.36,1.9,6.53,3.68,10.07.84,1.9-1.52,2.81-2.95,2.7-4.24-.18-2.11-3-4.06-5.82-5.93-.72-.48-1.42-1-2.1-1.45l-.59-.43.44-.51c2.82-3.25,4-6.89,3.08-9.27-.64-1.59-2.21-2.62-4.7-3a13.41,13.41,0,0,0-5.43.22,11.41,11.41,0,0,1-7.81-.72,18.65,18.65,0,0,1-2.44-1.43c-2.42-1.55-6.46-4.14-7.62-2.54-.71,1,1.36,4,3,6.47s3.26,4.79,3.33,6.46c.3,6.22-5.18,11.72-9.09,13.14-1.77.64-3.21.47-4.05-.49-1.29-1.48-.86-4.52,1.33-9,2.74-5.53,2.63-7.53,1.93-8.28s-2.45-.64-5,.31A11.46,11.46,0,0,0,432.69,50c-2.07,2.59-4.41,5.52-6.81,5-1.25-.26-2.24-1.36-3.05-3.39-1.06-2.65,1.27-5.33,3.53-7.91,2.87-3.3,4.59-5.62,2.85-7.72-1.19-1.41-3.92,0-6.34,1.3a13.86,13.86,0,0,1-4,1.65l-.64.09-.09-.67a8.33,8.33,0,0,0-2.8-5,2.8,2.8,0,0,0-2.33-.6c-1,.22-1.68.63-1.9,1.22-.48,1.3,1,3.62,2.12,5.5.91,1.47,1.7,2.74,1.73,3.69,0,1.17-1,3-2.79,5.91s-4.35,7.18-3.42,8.5h0c.23.31,1.15.94,4.74,0l1.18-.3-.42,1.16c-1.36,3.86,3.52,6.85,7.82,9.49,3.13,1.92,5.62,3.44,5.69,5.26,0,.91-.54,1.71-1.76,2.42-1.71,1-3.8-.38-5.65-1.59-1.62-1.06-3.16-2.06-4.1-1.46-1.63,1-1,3.1.13,6.14a12,12,0,0,1,1.1,4.43c-.26,4.59-11,17.07-18.15,21.2-2.54,1.45-4.55,1.84-6,1.15a3.61,3.61,0,0,1-2.16-2.5c-.68-3.41,4.36-8.28,9.22-13,3.5-3.37,7.83-7.58,7.05-9a3.72,3.72,0,0,0-2.8-2c-8.85-1.33-29.12,19.58-32.48,23.49l-.93,1.08-.15-1.48c-.23-2.32-.8-3.73-1.69-4.19-1.49-.79-4.07.94-6.35,2.48a14,14,0,0,1-4.27,2.29c-.67.12-2.72.5-3.42-.87-1.75-3.29,8.26-12.9,8.37-13,5.46-5.11,13.06-7.87,19.07-9.7A44.86,44.86,0,0,1,389.57,78c4.58-.63,9.31-1.28,12-3.87,2.43-2.3,3.31-4.91,2.5-7.38-1-2.9-4.2-5.28-8.26-6.08-7.75-1.53-13.35,3.15-18.76,7.66-1.72,1.43-3.5,2.91-5.31,4.17-3.14,2.16-7.12,3.34-11,4.49-5.08,1.5-9.87,2.92-12.93,6.37a22.76,22.76,0,0,0-4.06,7.29c-1.42,3.58-2.77,7-7.55,9.47-.7.37-1.89,1.07-3.32,1.91-6.32,3.71-12.17,7-14.35,6.85-3.58-.27-4.49-2-4.73-3-.45-2,1-4.49,3.41-6.06-1.54-.51-2.43-1.27-2.68-2.32-.85-3.59,7.17-8.44,8.09-9a28.77,28.77,0,0,1,5.87-2.37c3.7-1.2,7.2-2.33,8.93-5.87.32-.66-.1-1.25-.79-2.16a3.83,3.83,0,0,1-1.15-2.76c.13-.88.78-1.65,2.05-2.42s3.35,0,5.26.78a8.71,8.71,0,0,0,3.48,1c2.48-.3,5.54-2.66,6.94-4.67.64-.91,1-3.16,1.28-4.81s.39-2.23.67-2.51c1.21-1.22,2.13-1.75,3-1.71a3.59,3.59,0,0,1,2.3,1.45,6.24,6.24,0,0,0,2.59,1.85c4.13,1.35,11-2.17,11.8-5.29.41-1.55-.72-2.83-3.35-3.79l-.7-.26.32-.64c.72-1.45,1.54-2.24,2.55-2.4,1.57-.27,3.13,1.07,4.63,2.36a10.48,10.48,0,0,0,3.06,2.1c4.94,1.55,5.5-.57,6.29-3.5.64-2.41,1.44-5.4,5.43-5.54a10.6,10.6,0,0,1,3.77.74c2.16.72,3.45,1.15,4.76-2s0-5.68-4.09-8.5l-.62-.42.48-.53c2.47-2.72,6.62-8.64,5.52-10.67-.49-.89-2.15-.86-3.45-.69-2.38.32-3.12,4-3.72,6.93a17,17,0,0,1-1,3.63c-.12.26-.26.57-.41.91-.81,1.89-2,4.74-4.61,4.63-1.3-.05-2-.28-2.41-.94s-.05-1.57.29-2.3c.44-.9.48-1.18.28-1.33-1.52-1-2.67-.54-4,0-1.6.68-3.42,1.46-5.75-.64a5,5,0,0,1-1.85-3.23c-.19-2.19,1.6-4.14,3.32-6a15.58,15.58,0,0,0,2.69-3.52,18,18,0,0,0-3.6,1c-2.92,1-4.73,1.42-7.94-3.1l-.08-.12a8.35,8.35,0,0,1-1.16-3.13c-.43-1.88-.75-3-2.46-3.19-1-.15-1.72,0-2.07.32-.51.53-.35,1.68-.22,2.6,0,.29.08.56.09.81.32.54.72,1.83,1.22,5a5.72,5.72,0,0,1,.12,1A10.17,10.17,0,0,0,368,27.85c.33.41.74.94,1.3,1.71l.52.71c2.55,3.48,4.78,6.48.49,11.52-2.14,2.51-4.2,3.54-6.11,3.05-2.3-.57-4.22-3.23-5.89-8.11-1.36-4-2.95-5.79-3.85-5.78-.37,0-1.61.41-2.42,5.29a19.24,19.24,0,0,0,0,5.57c.3,2.69.57,5.23-1.18,8.83-2,4.07-3.42,5.76-5.11,6-2,.3-3.92-1.48-6.86-4.17-3.66-3.36-5-3.52-5.48-3.31-1,.41-.94,3.18-.9,5.86.06,3.48.12,7.42-1.87,9.16a3.9,3.9,0,0,1-3,.86c-.1,5.76-2.24,15-7.88,17.08a9.58,9.58,0,0,1-7.16-.31c-2.52-.87-4.18-1.45-6.74,2.39A31.07,31.07,0,0,0,303.06,90c-1.29,3.14-2.4,5.84-6.5,8.15a3.62,3.62,0,0,1-2.16.31,2.39,2.39,0,0,0-2.11.51c-1,.93-1.38,3-1.69,4.93a17.25,17.25,0,0,1-.66,3c-1.29,3.49-2.56,5.91-4.59,6.35-1.67.36-3.62-.61-6.72-3.33-1.21-1.07-2.07-1.93-2.68-2.55-1.6-1.6-1.6-1.6-4-.37-.65.33-1.45.74-2.45,1.22-.08,0-7.74,3.57-10.39,1.06-.94-.9-1.09-2.34-.41-4.28.83-2.37,3.25-2.69,5.39-3,1.76-.23,3.42-.45,4.26-1.62a5.22,5.22,0,0,0,.77-4.32c-.14-.86-.26-1.67.27-2.25s1.57-.71,3.59-.46a14,14,0,0,1,4.89,1.75c1.28.66,2.29,1.19,3.07.87s1.71-1.84,2.52-4.55a20.24,20.24,0,0,1-2.21-1.33,15.19,15.19,0,0,0-2.61-1.48l-.57-.23.17-.57c1.64-5.56,5.69-4.63,9.26-3.8a14.15,14.15,0,0,0,4.66.57c2.59-.36,5.23-2.63,5.14-4.43-.09-1.5-2.16-2-3.39-2.26l-.69-.12.15-.68c.66-3,1.71-4.85,3.25-5.72,2.08-1.19,4.58-.4,7.23.43a15.27,15.27,0,0,0,5.68,1c1.41-.12,6.94-3.6,8-6.31.32-.85,0-1.23-.08-1.36-.62-.81-2.5,0-4.17.76-1.84.81-3.58,1.57-4.87,1-2-1-4.12-5.75-3.5-7.89,1-3.37,2.86-3,5-2.64.62.11,1.31.23,2.07.3a18.73,18.73,0,0,1,3.22.66c2.27.61,3.91,1.06,5.58-.89.77-.9.77-2.19.77-3.56,0-1.82,0-3.89,1.88-5.28s4.14-1.1,6.46-.93,4.51.34,6.16-.77c2.8-1.9,2.52-3.47,2.17-5.47a8.17,8.17,0,0,1,.1-4.43c1-2.81,4.18-3.61,7.55-4.45,3.92-1,8-2,8.62-6.33a7.22,7.22,0,0,0-1.73-5.35,7.09,7.09,0,0,0-4.83-2.8c-3-.18-3.54,1-4.38,2.9a15.06,15.06,0,0,1-1.3,2.53,14.2,14.2,0,0,0-.81,1.44c-1.23,2.35-3.08,5.9-6.21,5a2.68,2.68,0,0,1-1.92-1.47c-.45-1.15.35-2.35,1.19-3.62a7.54,7.54,0,0,0,1.17-2.24,11.71,11.71,0,0,1,.89-2.91,9.73,9.73,0,0,1-1.68-.77,33.49,33.49,0,0,0-3.75-.86c-1.64-.33-3.2-.64-3.91-.88A12.65,12.65,0,0,1,325,15c-2.18-1.32-3.61-2-5.12.12a2.8,2.8,0,0,0-.48,2.72,6.45,6.45,0,0,0,4.18,3.31l1.75.54-1.64.64c-.26.1-.61.22-1,.36-1.37.47-3.93,1.33-4.37,2.17-1,2,1,4.47,3.12,7.08s4.22,5.12,4.05,7.83a5.6,5.6,0,0,1-2.34,4c-1.9,1.57-4.56,1.16-7.13.78-1.94-.29-3.78-.57-5.22,0-2.18.83-3.57,2.71-5,4.7a15.66,15.66,0,0,1-4.47,4.59,14.44,14.44,0,0,1-6.1,1.49c-2.33.21-4.53.43-6.23,1.82-1.93,1.6-2.52,4.41-3.15,7.38-.68,3.22-1.38,6.55-4,8.27-3.21,2.11-5.5.28-7.34-1.2-1.26-1-2.34-1.87-3.55-1.54-1.45.41-1.94,3.38-2.41,6.26-.43,2.6-.83,5.07-2,6.37-2.82,3.23-5.57,2.5-8,1.85-1.71-.46-3.31-.89-5-.07-2.47,1.21-3.05,5.64-3.62,9.92-.36,2.8-.71,5.45-1.6,7.17-3.18,6.17-5.76,5.69-10.05,4.89-.76-.14-1.6-.3-2.52-.43a18.4,18.4,0,0,0-3.74,0,16.62,16.62,0,0,1-4.07,0c-3.14-.58-4.57-1.31-4.81-2.45-.32-1.61,2-2.91,5.84-4.9,2.46-1.28,5.24-2.73,6-4a7,7,0,0,0,.94-3.27,6.05,6.05,0,0,1,2.28-4.66,12.6,12.6,0,0,1,4.11-2.34c2-.77,3.38-1.33,4.53-4.75a17.28,17.28,0,0,0,.78-4c.28-2.59.48-4.46,4.54-6a13.68,13.68,0,0,1,4.46-.91c2-.14,3.24-.24,5.21-2.8.83-1.08,1.41-1.94,1.91-2.69a15.85,15.85,0,0,1,5-5.11A12.25,12.25,0,0,1,270.87,57c2-.89,3-1.33,1.45-4.7l-.18-.37.24-.3c2.81-3.33,5.61-2.07,8.33-.85a13.49,13.49,0,0,0,4.19,1.36c4.3.39,5.07-.19,5.2-.45.22-.47-.82-1.84-1.57-2.82-1.08-1.42-2.21-2.89-2.32-4.32-.31-3.86,5.12-5.21,10.89-6.63,4.66-1.15,9.47-2.34,11.13-4.8,1.15-1.71,1.64-2.89,1.44-3.5-.16-.46-.88-.79-1.8-1.19a10.05,10.05,0,0,1-3.43-2.15c-.56-.58-1-1-1.34-1.34-.79-.78-1.1-1.07-1.1-1.54a1.12,1.12,0,0,1,.51-.85c.44-.38,1.36-1.17,2.2-3.83s.88-4.48.21-5.13-1.8-.46-3.53.22c-2.11.82-3,3.52-3.86,5.88a25,25,0,0,1-.94,2.46c-2.05,4.36-4.57,6.88-6.74,6.73a2.54,2.54,0,0,1-2.15-1.58c-.81-1.76-.51-5.28,2.84-9.56a4.47,4.47,0,0,0-3-.74c-1.47.32-2.41,2-3.42,3.74a16.6,16.6,0,0,1-2.39,3.48l-.36.36-.43-.33a69.22,69.22,0,0,0-7.43-5.07c-2.86,3.91-2.83,7.23.07,11.35a19.62,19.62,0,0,0,2.79,3.11c2.47,2.39,4.59,4.47,1.08,9.52-1.84,2.65-3.35,3.83-4.87,3.84-1.77,0-3.14-1.56-4.73-3.39l-1-1.19C261,35.75,259,33.43,262.34,24.5c-.63-.33-1.45-.85-2.3-1.4a17.57,17.57,0,0,0-2.35-1.37,2,2,0,0,0-2,1.35,3.92,3.92,0,0,1-2.11,2l-.69.28c-1.74.68-1.85.72-2.79.56a15.62,15.62,0,0,0-1.88-.23,12.38,12.38,0,0,1-3-.78,12.57,12.57,0,0,0-3-.77c-1,1.3-1.4,2.36-1.23,3.25.25,1.29,1.77,2.26,3.37,3.3a14.56,14.56,0,0,1,3.46,2.75c2.09,2.52,2.84,4.07,2.52,5.16s-1.63,1.37-3,1.63-3.19.62-3.92,2a2.69,2.69,0,0,0-.4,2c.28.91,1.41,1.56,2.61,2.25,1.6.92,3.41,2,3.65,4,.1.88-1.31,3.35-5.57,9.83-.49.74-.87,1.3-1,1.57-2.93,4.77-5.08,5-8.64,5.38-1.06.11-2.27.24-3.68.52-5.18,1-5.13,1.59-4.85,4.76a33.3,33.3,0,0,1,.16,4c-.2,7-3.56,8.62-7.13,10.3-2.25,1.06-4.59,2.15-6.31,4.77a48.54,48.54,0,0,0-3.05,6.16c-2.31,5.23-4.51,10.17-7.23,9.8-1.54-.21-2.84-2-4.05-5.73-3.38,5.29-7.71,10.79-10.66,10-1.31-.37-2.12-1.77-2.48-4.28-.31-2.13,1.26-3,2.51-3.79a4.55,4.55,0,0,0,1.77-1.45,10.59,10.59,0,0,0,.85-3.58,9.77,9.77,0,0,1,1.23-4.36c1.92-2.8,4.72-2.73,7.19-2.67,2.22.06,4.14.11,5.43-1.65.58-.8.26-1.94-.09-3.15s-.72-2.49-.05-3.47c1.29-1.91,2.88-1.82,4.42-1.74a6.61,6.61,0,0,0,2.76-.25c2.78-1,4.78-3.53,4.64-5.78-.11-1.74-1.49-3.15-4-4.1l-.74-.28.39-.65c2.09-3.57,5.22-4,8.23-4.43a13.58,13.58,0,0,0,5.5-1.59c1.69-1.06,2.58-2,2.7-2.78s-.34-1.35-1-2.36c-.87-1.23-1.94-2.72-1.65-4.78.43-3.11,3.37-4.08,6.22-5,3-1,5.83-1.93,6.33-5.05.31-1.9.07-2.67-.2-3-.4-.47-1.34-.46-2.42-.44-1.79,0-4,.07-5.64-2.06l-.31-.41.3-.37A13.81,13.81,0,0,1,232.2,36c1.07-.68,2.86-1.81,2.9-2.29,0,0-.42-.46-3.4-.7a12.82,12.82,0,0,0-2.69.43c-2.59.57-5.54,1.22-6.69-.33l0,0c-.71-1-.48-2.55.72-4.85a5.32,5.32,0,0,0-4.21-1.55c-2.85.44-5.06,4-6.41,6.84-1.06,2.24-1.4,3.79-1.06,4.73s1.09,1.21,2.11,1.73c1.59.81,3.58,1.84,4.3,4.86.9,3.78-3.69,7.3-6.44,9.41-.66.51-1.22.94-1.5,1.22l-.42.44a8.17,8.17,0,0,0-2.13,2.85l-.58,1.09a4.33,4.33,0,0,0-.56,2.3c0,1.42-.3,2.16-3,3.3a11.88,11.88,0,0,1-5.65.5c-2.73-.2-5.12-.37-6.78,2.3,2.82,1.37,4.24,2.68,4.46,4.12.31,2-1.76,3.55-3.95,5.18-.75.56-1.52,1.14-2.18,1.73-2.66,2.36-3.49,5.44-4.36,8.69a24.86,24.86,0,0,1-2.93,7.49c-2.24,3.44-4.15,3.72-6.16,4a9.54,9.54,0,0,0-4.53,1.62c-1.23.84-2.42,3.72-3.58,6.5-1.8,4.32-3.49,8.4-6.15,8.26-1.83-.1-3.59-2.18-5.54-6.52-1.31-.2-5.2-.95-5.43-2.58-.39-2.67,3.43-4.08,7.12-5.45,2.09-.78,4.26-1.58,4.88-2.42a3.61,3.61,0,0,0,.47-4.32,4.78,4.78,0,0,1-.23-4.07c1.29-3,4.82-3.41,8.22-3.82,2.76-.33,5.36-.65,6.61-2.21,1.62-2,1-3,.09-4.36a6.2,6.2,0,0,1-1.34-4.71c.46-2.92,3.23-4.43,5.91-5.87,2-1.07,4-2.17,4.9-3.77a11.52,11.52,0,0,0,1.25-4.42,9.67,9.67,0,0,1,2.25-5.81,31,31,0,0,1,8.1-6c5.66-3.22,9.74-5.56,6-16.11-1.33-3.73-2.06-4-2.19-4-.59,0-1.52,2.21-2.14,3.71-1.29,3.12-2.89,7-5.85,6.3-1.05-.24-1.65-1.62-2.48-3.54-1.07-2.47-2.4-5.53-4.84-6-1.86-.35-3.19-.14-3.93.63-1,1-1.1,3-.45,6.28a17.36,17.36,0,0,0,1.26,3.5c1.27,2.83,2.57,5.75-1.58,8.17-5.7,3.32-10-3.09-11.76-5.82a19.89,19.89,0,0,1-1.16-2.23c-1-2.08-2.32-4.91-4-5.58a2.27,2.27,0,0,0-1.9.15,1.91,1.91,0,0,0-1.18,1.32c-.3,1.5,1.37,3.81,2.7,5.65a16.45,16.45,0,0,1,1.73,2.69c1.57,3.69,1.32,4.56.6,6.17a12.94,12.94,0,0,0-1,3.24,16.92,16.92,0,0,0,.56,5.68c.5,2.42,1,4.7.37,6.41-1.07,3-4.57,3.77-7.38,4.37-1.66.36-3.37.72-3.5,1.42-.08.45.35,1.7,4.15,4.87l.73.61-.78.42c-2.19,1.18-2.78,3.58-3.4,6.12s-1.19,4.91-3.36,6.07c-4.39,2.35-7.24-2.07-9.32-5.3-.3-.46-.58-.91-.87-1.32-2.48,4-1.91,4.52-.37,5.83a12.62,12.62,0,0,1,3.1,3.56c1.94,3.37,2.43,5.39,1.54,6.36-1.29,1.4-4.76-.23-8.61-2.3a9.84,9.84,0,0,0,.39,4.07,9.94,9.94,0,0,1,.09,6.07c-1,3-2.05,4.43-3.34,4.82s-2.66-.49-4-1.43a11.78,11.78,0,0,0-3.3-1.78,8.65,8.65,0,0,0-3.16,0c-1.65.18-3.2.35-4.21-.68-.71-.74-.95-1.89-.74-3.63.37-3.26,3.38-4.4,6.29-5.51a13.92,13.92,0,0,0,4.44-2.28c-1.47-.78-2.26-1.65-2.42-2.62-.27-1.78,1.69-3.21,3.42-4.48a10.81,10.81,0,0,0,1.81-1.48,8.69,8.69,0,0,1,1.28-1.25,3.3,3.3,0,0,0,1.37-2.52,4.78,4.78,0,0,0-.85-2.89,4.17,4.17,0,0,1-.75-2.33c.7-5.07,2.53-5.23,5.25-4.89a8.13,8.13,0,0,0,4-.22c2.42-.89,4-2.81,3.82-4.67-.14-1.53-1.48-2.75-3.76-3.44l-.86-.26.47-.72c1-1.53,3.75-2.94,6.91-4.57,4.45-2.3,10-5.15,10.49-8.68a5.06,5.06,0,0,0-1.27-3.8c-2,2.31-3.58,3.05-4.78,2.27-2.19-1.43-1.41-7.64-.51-10.52-4.1-1.7-6.13,1.56-8.27,5l-.54.85a16.26,16.26,0,0,0-.93,1.85c-.93,2-2.08,4.55-4.53,4.62-1.44,0-2.48-1.21-3.49-2.42-.79-.95-1.6-1.92-2.41-2-2-.11-2.33.3-2.39.42-.29.6,1.1,2.46,2.21,3.94,1.88,2.49,4,5.33,3.32,7.66-.38,1.32-1.57,2.24-3.65,2.79-4.16,1.12-5.9-3.33-7.29-6.91-.84-2.18-1.71-4.4-2.85-4.72-.64-.18-1.48.23-2.51,1.22-1.2,1.17-1.73,2.24-1.6,3.25.25,1.95,2.94,3.74,5.53,5.48,3.27,2.18,6.64,4.45,6.08,7.54-.37,2-2.15,2.91-3.87,3.82a7.61,7.61,0,0,0-3.19,2.43,10.63,10.63,0,0,0-1,4.17c-.29,2.67-.59,5.43-4.38,6.85-1.7.63-4.07,1.11-5.64-.2-1.12-.92-1.54-2.47-1.31-4.65.28-2.55,2.07-3.59,3.65-4.5,1.29-.75,2.52-1.46,3.05-2.91,1-2.78.81-3.54.59-3.77s-1.29-.26-2.18-.16c-.46,0-.94.09-1.41.1a7.93,7.93,0,0,0-3.57.91c-2.13,1-3,.68-5.08-3.44a6.57,6.57,0,0,1-.41-4.07c.11-.74.2-1.36-.05-1.64s-.93-.52-3-.41c-1.75.1-2.85.45-3.25,1s-.14,1.59.17,2.72a7.63,7.63,0,0,1,.41,3c-.46,3.39-.56,3.64-1.78,4.6A17.39,17.39,0,0,0,97,74.39l-.22.26c-1.34,1.53-2.5,2.85-2.3,4,.12.7.77,1.4,2,2.17.86.55,2.21.36,3.64.17,2.41-.34,5.43-.77,6.61,2.93.87,2.7-2,5.5-4.11,7.55-.32.32-.63.62-.9.89,5.4,3.75,5,7.23,4.24,9-1.69,4-7.52,6.09-10.8,4.84-1.82-.7-2.72-2.34-2.51-4.55a34.09,34.09,0,0,1-5.78-1.26l-.66-.2.22-.64c.65-1.88,2.29-2.93,3.88-3.94,2-1.29,3.77-2.41,3.19-5.05-.35-1.59-.66-1.88-.75-1.93s-.43.05-.71.15a2.87,2.87,0,0,1-2.66-.05,2.65,2.65,0,0,1-.6.46c-.73.49-1.65,1.09-2.52.54a2.46,2.46,0,0,1-1-2.12,2.23,2.23,0,0,0-.08-.56,3,3,0,0,1-.87-2.81,2.46,2.46,0,0,0-.2-1.43,2.08,2.08,0,0,0-1.33-.46c-1-.08-2.08,1-3.26,3.33-1.43,2.79-.73,4.23.25,6.23a14.25,14.25,0,0,1,1.53,4.4l.05.37-.29.2c-1.61,1.12-2.38,3-3.2,5.07-1.27,3.18-2.72,6.78-7.71,8.08l-.38-1.22c4.45-1.15,5.72-4.33,7-7.41.83-2.08,1.62-4.05,3.3-5.36a13.91,13.91,0,0,0-1.35-3.65c-1-2.07-2-4-.26-7.37.92-1.77,2.36-4.11,4.37-3.93a2.6,2.6,0,0,1,2.73,3.27c0,.86,0,1.39.39,1.74a1.92,1.92,0,0,1,.56,1.49c0,.6.1.91.36,1.08s.91-.36,1.23-.56c.64-.42,1.24-.81,1.84-.48a1.75,1.75,0,0,0,1.65,0,1.89,1.89,0,0,1,1.75,0c.62.36,1,1.21,1.38,2.81.77,3.48-1.59,5-3.68,6.32A8.87,8.87,0,0,0,87.8,99.4a34.58,34.58,0,0,0,5.5,1.07l.71.07-.13.7c-.36,2,.17,3.22,1.58,3.75,2.7,1,7.9-.91,9.32-4.24,1.1-2.58-.41-5.28-4.36-7.83l-.64-.41.46-.54c.35-.42.87-.93,1.45-1.49,1.78-1.73,4.46-4.34,3.83-6.3-.81-2.48-2.5-2.38-5.21-2-1.58.22-3.23.45-4.47-.36-1.53-1-2.37-2-2.57-3.07-.3-1.72,1-3.23,2.57-5l.22-.26a18.33,18.33,0,0,1,2.79-2.66c.91-.72.93-.73,1.36-3.84a6.86,6.86,0,0,0-.38-2.51c-.36-1.31-.74-2.66,0-3.74s1.94-1.42,4.12-1.54,3.38.13,4,.84.54,1.7.4,2.72a5.38,5.38,0,0,0,.28,3.3c1.78,3.57,2.07,3.43,3.43,2.8a9.11,9.11,0,0,1,4-1c.43,0,.88,0,1.31-.09,1.34-.13,2.6-.26,3.33.68s.57,2.39-.39,5c-.67,1.84-2.13,2.68-3.54,3.49s-2.88,1.66-3.09,3.63c-.18,1.69.08,2.86.82,3.46s2.47.71,4.44,0c3.15-1.16,3.39-3.35,3.66-5.89a11.35,11.35,0,0,1,1.19-4.63,8.4,8.4,0,0,1,3.63-2.86c1.55-.82,3-1.59,3.28-3,.41-2.24-2.45-4.15-5.49-6.19-2.85-1.91-5.8-3.88-6.13-6.44-.18-1.43.45-2.83,1.94-4.26s2.53-1.79,3.61-1.49c1.78.49,2.73,2.94,3.75,5.54,1.63,4.18,2.91,6.86,5.77,6.09,1.64-.44,2.61-1.12,2.87-2,.5-1.71-1.41-4.26-3.09-6.51s-3-4-2.37-5.26c.4-.84,1.5-1.17,3.47-1.06,1.36.08,2.37,1.28,3.34,2.44.85,1,1.65,2,2.47,1.94,1.75,0,2.66-2,3.54-4a16,16,0,0,1,1-2l.53-.84c2.3-3.67,4.89-7.83,10.31-5.14l.55.27-.21.55c-1.17,3.06-1.48,8.74-.22,9.54.49.32,1.71-.2,3.68-2.61l.43-.53.48.56c1.62,1.84,2.31,3.66,2.07,5.42-.58,4.13-6.16,7-11.09,9.54A30.63,30.63,0,0,0,146,64.78c2.24.91,3.6,2.44,3.77,4.28.22,2.39-1.65,4.81-4.55,5.87a9.12,9.12,0,0,1-4.52.27c-2.25-.27-3.38-.41-4,3.93a3.82,3.82,0,0,0,.6,1.53,5.84,5.84,0,0,1,1,3.73,4.39,4.39,0,0,1-1.76,3.2,7.74,7.74,0,0,0-1.14,1.11,11.59,11.59,0,0,1-2,1.67c-1.33,1-3.13,2.29-3,3.33.1.64.94,1.31,2.44,2l.76.33-.48.64c-1.21,1.63-3.37,2.44-5.46,3.24-2.71,1-5.28,2-5.57,4.56a3.34,3.34,0,0,0,.37,2.55c.54.57,1.81.44,3.16.29a9.51,9.51,0,0,1,3.62.06,12.94,12.94,0,0,1,3.67,2c1.23.84,2.19,1.5,3,1.26s1.74-1.61,2.61-4.11a8.83,8.83,0,0,0-.13-5.36,9.85,9.85,0,0,1-.22-5.43l.2-.68.64.35c1.95,1.07,7,3.82,7.86,2.87.12-.13.6-1-1.66-4.89a11.48,11.48,0,0,0-2.8-3.2c-2.27-1.92-2.77-3.05.53-8.23l.45-.71.54.72c.47.62,1,1.36,1.46,2.14,2.51,3.9,4.53,6.52,7.7,4.82,1.72-.93,2.24-3.07,2.79-5.33s1.18-4.87,3.23-6.39c-3-2.59-4.18-4.27-3.94-5.56.26-1.45,2.16-1.86,4.36-2.34,2.68-.57,5.71-1.23,6.57-3.65.49-1.38.05-3.5-.41-5.73a17.49,17.49,0,0,1-.57-6.16,13.68,13.68,0,0,1,1.09-3.52c.58-1.3.81-1.83-.6-5.16a16.49,16.49,0,0,0-1.57-2.42c-1.56-2.16-3.35-4.63-2.94-6.69a3,3,0,0,1,1.78-2.11,3.44,3.44,0,0,1,2.85-.18c2.2.86,3.62,3.86,4.76,6.27A18.62,18.62,0,0,0,171.6,42c2.79,4.23,6,7.8,10.11,5.37,3.25-1.89,2.41-3.77,1.14-6.62A18,18,0,0,1,181.5,37c-.47-2.34-.91-5.63.73-7.35,1-1.07,2.7-1.38,5-.95,3.11.6,4.66,4.17,5.8,6.78.49,1.12,1.16,2.66,1.56,2.76,2,.47,3.41-2.92,4.53-5.64,1-2.52,1.86-4.52,3.28-4.39,1.14.1,2.13,1.56,3.32,4.88,4.13,11.53-.77,14.33-6.46,17.57a30.13,30.13,0,0,0-7.83,5.75c-1.48,1.63-1.71,3.36-2,5.18a12.65,12.65,0,0,1-1.39,4.84c-1.06,1.88-3.23,3.06-5.34,4.19-2.55,1.39-5,2.7-5.34,5.05a4.92,4.92,0,0,0,1.13,3.78c1,1.46,2,3.13-.12,5.84-1.54,1.92-4.49,2.28-7.35,2.62-3.24.39-6.3.76-7.33,3.15a3.6,3.6,0,0,0,.23,3.1,4.81,4.81,0,0,1-.6,5.52c-.82,1.09-2.93,1.88-5.39,2.79-3,1.1-6.64,2.47-6.39,4.17l0,0c.39.56,3.58,1.42,4.57,1.45l.41,0,.17.39c2.16,4.93,3.67,6,4.57,6.06,1.87.1,3.56-4,5.05-7.57,1.28-3.08,2.49-6,4-7a10.61,10.61,0,0,1,5-1.8c1.91-.28,3.42-.51,5.39-3.53a23.9,23.9,0,0,0,2.78-7.15c.88-3.28,1.78-6.67,4.7-9.26.7-.62,1.49-1.21,2.26-1.78,1.82-1.36,3.71-2.76,3.51-4-.11-.7-.95-1.86-4.33-3.4l-.64-.29.31-.6c2-3.94,5.15-3.71,8.19-3.48a11.09,11.09,0,0,0,5.11-.42c2.28-1,2.29-1.37,2.3-2.25a5.39,5.39,0,0,1,.7-2.85l.58-1.09a9.07,9.07,0,0,1,2.32-3.12l.42-.43a17.92,17.92,0,0,1,1.61-1.33c2.36-1.81,6.74-5.18,6-8.17-.58-2.4-2.11-3.2-3.6-4a4.9,4.9,0,0,1-2.77-2.48c-.48-1.32-.14-3.07,1.1-5.7,2.14-4.55,4.57-7.05,7.24-7.47,1.86-.28,3.75.47,5.65,2.23l.38.35-.24.43c-1.52,2.74-1.25,3.66-1.06,3.93h0c.65.88,3.51.24,5.41-.17a12.45,12.45,0,0,1,3-.45c3,.24,4.26.72,4.56,1.7.37,1.25-1.29,2.29-3.38,3.62a20.3,20.3,0,0,0-2.46,1.72c1.18,1.17,2.72,1.14,4.22,1.11,1.34,0,2.62,0,3.43.91.68.77.83,2.07.51,4-.61,3.81-4,5-7.08,6-2.76.91-5.13,1.7-5.47,4.1-.22,1.55.56,2.69,1.41,3.83s1.48,2.08,1.29,3.34-1.21,2.33-3.22,3.58a14.43,14.43,0,0,1-5.94,1.74c-2.68.38-5.22.73-7,3.27,3.38,1.52,4,3.73,4.11,5,.18,2.75-2.13,5.73-5.37,6.95a7.68,7.68,0,0,1-3.21.32c-1.45-.08-2.49-.14-3.44,1.25-.35.51-.08,1.45.2,2.44.39,1.37.84,2.93-.09,4.21-1.64,2.22-4,2.17-6.37,2.11s-4.66-.11-6.23,2.19a8.65,8.65,0,0,0-1,3.83,11.6,11.6,0,0,1-1,4,5.37,5.37,0,0,1-2.19,1.88c-1.34.79-2.15,1.34-2,2.59s.6,2.91,1.52,3.17c1.84.52,5.68-3.49,10-10.47l.71-1.15.46,1.27c1.48,5.1,2.73,6,3.36,6.1,1.88.26,4.19-5,6-9.15a48,48,0,0,1,3.14-6.32c1.9-2.87,4.47-4.09,6.75-5.16,3.39-1.59,6.32-3,6.49-9.28a31.24,31.24,0,0,0-.16-3.83c-.32-3.63-.14-4.84,5.75-6,1.46-.29,2.7-.42,3.78-.54,3.44-.37,5.16-.55,7.81-4.86.16-.27.54-.85,1-1.6,1.46-2.21,5.31-8.07,5.39-9-.15-1.31-1.52-2.1-3-2.94s-2.8-1.63-3.23-3a3.76,3.76,0,0,1,.48-3c1-1.84,3-2.25,4.69-2.57,1-.19,2-.39,2.15-.84s-.06-1.29-2.26-3.95a13.31,13.31,0,0,0-3.14-2.47c-1.77-1.15-3.6-2.34-4-4.19-.26-1.33.28-2.79,1.63-4.46l.16-.21h.28a12,12,0,0,1,3.64.85,11.62,11.62,0,0,0,2.68.71,17.69,17.69,0,0,1,2,.24c.62.11.62.11,2.16-.5l.69-.27a2.83,2.83,0,0,0,1.55-1.54,3.05,3.05,0,0,1,3-1.92c.47,0,1.21.41,3,1.57a17.55,17.55,0,0,0,2.64,1.53l.69.21-.26.66c-3.41,8.69-1.85,10.48,4,17.12l1,1.18c1.43,1.65,2.55,2.94,3.75,2.94s2.39-1.12,4-3.38c2.91-4.18,1.56-5.48-.88-7.86a23.33,23.33,0,0,1-2.92-3.26l0,0c-3.3-4.7-3.23-8.78.22-13.25l.3-.39.45.26a67,67,0,0,1,7.6,5.09A19,19,0,0,0,283,20c1.13-2,2.2-3.86,4.15-4.28,1.3-.28,2.8.15,4.59,1.31l.63.41-.45.54c-3.19,3.82-3.86,7.24-3.16,8.81a1.22,1.22,0,0,0,1,.79c1.25.09,3.47-1.46,5.65-6.09.31-.67.6-1.49.9-2.35.9-2.6,1.92-5.55,4.5-6.55,2.29-.9,3.87-.87,4.84.08s1.17,3.22.15,6.46c-.92,2.94-2,3.88-2.52,4.34.14.15.34.35.56.55s.78.77,1.36,1.36a9,9,0,0,0,3,1.85c1.14.49,2.2,1,2.55,2s-.12,2.43-1.57,4.58c-1.9,2.81-6.92,4-11.78,5.26-5.06,1.25-10.28,2.54-10,5.4.09,1,1.13,2.4,2,3.6,1.19,1.55,2.31,3,1.75,4.17s-2.43,1.43-6.32,1.08a14.26,14.26,0,0,1-4.59-1.47c-2.53-1.14-4.55-2.05-6.71.29,1.83,4.19-.2,5.08-2.17,6a10.87,10.87,0,0,0-2,1,14.77,14.77,0,0,0-4.7,4.83c-.51.76-1.1,1.64-1.95,2.74-2.28,3-4,3.08-6,3.23a12.92,12.92,0,0,0-4.13.83c-3.42,1.33-3.56,2.67-3.82,5.1a19.44,19.44,0,0,1-.84,4.28c-1.32,3.92-3.2,4.66-5.18,5.44A11.51,11.51,0,0,0,239,87.73a4.89,4.89,0,0,0-1.89,3.9A8.3,8.3,0,0,1,236,95.39c-.91,1.52-3.72,3-6.43,4.39-2,1.05-5.42,2.81-5.26,3.61,0,0,.18.73,3.75,1.39a15.66,15.66,0,0,0,3.76,0,19.07,19.07,0,0,1,4,0c.94.13,1.79.29,2.57.44,4.27.79,6,1.11,8.83-4.32.79-1.54,1.13-4.09,1.48-6.78.6-4.59,1.23-9.33,4.24-10.8,2-1,3.95-.49,5.79,0,2.4.64,4.47,1.19,6.83-1.52.93-1.06,1.33-3.46,1.7-5.79.56-3.38,1.08-6.57,3.23-7.17,1.79-.5,3.24.66,4.65,1.78,1.84,1.47,3.42,2.74,5.92,1.09,2.21-1.46,2.84-4.41,3.5-7.55s1.3-6.17,3.53-8c2-1.62,4.43-1.85,6.83-2.08a13.6,13.6,0,0,0,5.65-1.34,14.74,14.74,0,0,0,4.14-4.3c1.49-2,3-4.12,5.52-5.07,1.72-.65,3.8-.34,5.82,0,2.42.37,4.71.71,6.23-.54a4.47,4.47,0,0,0,1.92-3.19c.13-2.19-1.84-4.59-3.74-6.9-2.32-2.83-4.74-5.75-3.29-8.5.54-1,2.38-1.8,4.47-2.53a6.88,6.88,0,0,1-3.43-3.47,4,4,0,0,1,.62-3.87c2.21-3.1,4.69-1.6,6.68-.4a11.41,11.41,0,0,0,2,1.05c.62.22,2.2.53,3.73.85a22.36,22.36,0,0,1,4.13,1,7.13,7.13,0,0,0,1.9.8.86.86,0,0,1,.69.47.82.82,0,0,1-.12.81,8.9,8.9,0,0,0-1,3,8,8,0,0,1-1.34,2.65c-.57.87-1.28,2-1.08,2.48.09.24.47.48,1.06.67,2.2.67,3.73-2.26,4.85-4.41a16.31,16.31,0,0,1,.87-1.55,15,15,0,0,0,1.21-2.34c.89-2,1.66-3.81,5.48-3.57a8.28,8.28,0,0,1,5.77,3.3,8.66,8.66,0,0,1,2,6.37c-.76,5.1-5.38,6.26-9.45,7.28-3.07.77-6,1.5-6.77,3.74a6.92,6.92,0,0,0-.05,3.8c.37,2.14.76,4.35-2.65,6.66a6.23,6.23,0,0,1-2.46,1c1.29.28,3,1.44,5.35,3.58,2.74,2.51,4.5,4.13,5.89,3.91s2.52-1.8,4.28-5.39c1.6-3.29,1.36-5.55,1.07-8.16a20.29,20.29,0,0,1,0-5.91c.69-4.17,1.83-6.22,3.51-6.24s3.67,2.47,5.11,6.69,3.15,6.77,5,7.23c1.45.36,3.12-.54,5-2.7,3.67-4.31,2-6.55-.5-10l-.52-.72c-.56-.75-1-1.27-1.28-1.69A12,12,0,0,1,365,24.81l.4-.14-.35-.08a32.31,32.31,0,0,0-1.11-5.29l.35-.18-.56-.09a5.65,5.65,0,0,0-.09-1.06c-.15-1.12-.37-2.67.53-3.6a3.38,3.38,0,0,1,3-.65c2.7.38,3.16,2.43,3.56,4.24a7.43,7.43,0,0,0,.94,2.64l.09.12c2.78,3.92,3.94,3.5,6.48,2.59a17.44,17.44,0,0,1,4.88-1.17l.85-.07-.16.85c-.33,1.77-1.82,3.4-3.27,5s-3.16,3.46-3,5.13A3.62,3.62,0,0,0,379,35.38c1.74,1.56,2.93,1,4.45.4s3.1-1.33,5.18.11c1.23.84.58,2.17.19,3-.14.3-.44.91-.37,1.07,0,0,.19.25,1.36.3,1.78.08,2.79-2.25,3.52-4,.15-.35.29-.67.43-1a17.27,17.27,0,0,0,.89-3.35c.66-3.3,1.5-7.41,4.67-7.83,2.5-.33,4,.13,4.74,1.38,1.7,3.1-3.58,9.68-5.2,11.59,4,3,5.39,6.28,4,9.64-1.71,4.07-4,3.31-6.18,2.59a9.4,9.4,0,0,0-3.33-.68c-3.17.1-3.73,2.23-4.39,4.69-.78,2.91-1.65,6.2-7.74,4.29a11.14,11.14,0,0,1-3.53-2.36c-1.27-1.09-2.6-2.22-3.6-2.05a2.25,2.25,0,0,0-1.4,1.18c3.75,1.63,3.81,3.85,3.48,5.08-1.06,4-8.75,7.55-13.27,6.08a7.41,7.41,0,0,1-3.14-2.2c-.63-.65-1-1-1.43-1s-1.23.44-2.16,1.38c-.06.14-.23,1.11-.35,1.88-.3,1.85-.69,4.16-1.47,5.29-1.58,2.26-4.91,4.81-7.74,5.13a9.4,9.4,0,0,1-4.09-1.09c-1.62-.68-3.29-1.39-4.18-.85s-1.45,1.12-1.52,1.6.38,1.12.87,1.76c.73,1,1.63,2.13,1,3.51-1.94,4-5.83,5.23-9.58,6.44a28.59,28.59,0,0,0-5.65,2.28c-3.42,2-8,5.73-7.57,7.67.18.76,1.35,1.37,3.29,1.69l2.15.36-1.94.84c-2.66,1.15-4.65,3.73-4.24,5.52.32,1.47,2.36,1.86,3.54,1.95,2,.15,9.6-4.3,13.69-6.7,1.46-.85,2.66-1.55,3.37-1.93,4.42-2.32,5.63-5.36,7-8.9A23.77,23.77,0,0,1,347,82.52c3.27-3.69,8.44-5.22,13.44-6.71,3.77-1.12,7.67-2.27,10.66-4.33,1.76-1.22,3.52-2.68,5.22-4.1,5.61-4.68,11.42-9.53,19.71-7.91,4.59.9,8.14,3.59,9.26,7,1,3,0,6-2.79,8.65-3,2.83-7.91,3.5-12.67,4.15a45,45,0,0,0-6.49,1.2c-5.89,1.8-13.34,4.5-18.64,9.45-3.83,3.6-9,10-8.16,11.51.09.21.73.42,2.05.17a13.66,13.66,0,0,0,3.85-2.11c2.67-1.8,5.43-3.65,7.57-2.52,1.1.58,1.82,1.86,2.2,3.88,4.32-4.62,23.36-24.3,32.63-22.9a4.93,4.93,0,0,1,3.75,2.62c1.21,2.14-2,5.37-7.22,10.46-4.21,4.07-9.45,9.14-8.9,11.88a2.29,2.29,0,0,0,1.42,1.54c1,.5,2.72.12,4.87-1.12,7.16-4.11,17.36-16.45,17.59-20.27a11.48,11.48,0,0,0-1-3.9c-1-2.81-2.24-6,.31-7.59,1.58-1,3.52.28,5.39,1.51,1.62,1.06,3.3,2.16,4.39,1.52.56-.33,1.22-.83,1.2-1.35,0-1.09-2.59-2.66-5-4.16-4.15-2.55-9.25-5.69-8.67-9.95-2.63.55-4.25.31-5-.75l0,0c-1.44-2,1-6,3.33-9.9,1.24-2.05,2.65-4.38,2.62-5.25a10.13,10.13,0,0,0-1.53-3c-1.38-2.23-3-4.75-2.25-6.63a3.36,3.36,0,0,1,2.71-1.92,4.05,4.05,0,0,1,3.32.83,9.55,9.55,0,0,1,3.21,5.18,19.61,19.61,0,0,0,3-1.39c2.82-1.48,6-3.15,7.86-1,2.61,3.08-.26,6.44-2.81,9.36-2,2.32-4.11,4.72-3.34,6.64q.94,2.32,2.09,2.57c1.7.35,4-2.53,5.68-4.65,1.24-1.55,2.22-2.77,3.07-3.08,3.24-1.19,5.33-1.16,6.41.07,1.32,1.48.8,4.62-1.71,9.71-2.73,5.52-1.85,7.17-1.55,7.55.46.52,1.44.56,2.7.1,3.66-1.33,8.61-6.54,8.35-12-.06-1.29-1.6-3.57-3.1-5.77-2.18-3.21-4.24-6.25-3-7.93,1.79-2.48,6.08.27,9.2,2.28a18.94,18.94,0,0,0,2.23,1.32,10.28,10.28,0,0,0,7.12.65,14.77,14.77,0,0,1,5.85-.23c3.71.59,5.16,2.43,5.72,3.86,1.08,2.73,0,6.52-2.83,10l1.49,1c3,2.05,6.18,4.17,6.42,6.94.15,1.74-.87,3.46-3.12,5.27-4.15,3.32-8,1.15-11.39-.77-2.91-1.64-5.67-3.19-8.54-1.56s-2.12,2.74-1.06,4.71c.95,1.76,2.13,3.94.44,6.6-.8,1.26-3.45,1.92-6,2.55a18.5,18.5,0,0,0-3.09.92,54.07,54.07,0,0,0-9.65,6.8l-.65.53c2.3,2.12,3.23,3.7,2.93,4.94-.45,1.85-3.38,2.2-6.47,2.56-2.22.26-4.74.56-5.61,1.44-1,1.06-2.16,2.54-1.49,3.6l0,.06c1.53,2.16,9.22,2.36,12.59,1.22,4.89-1.65,7.44-5.48,10.14-9.54,2.28-3.41,4.63-6.94,8.48-9,2.89-1.56,6-1.66,8.92-1.75,4.51-.14,8.41-.26,10.81-5.44l.21-.44.49.15c4.92,1.55,8,1.64,9.47.26,2-1.89.87-6.66-.3-11.72-1.27-5.49-2.7-11.71-.66-16.06l.35-.75.61.63c3.71,3.8,7.9,2.33,11.59,1,2.85-1,5.54-1.94,7.29.12,1.84,2.24.26,4.58-1,6.5-.76,1.13-1.55,2.3-1.52,3.2,0,2,1.25,3.86,2.51,5.81,1.49,2.29,3,4.66,2.73,7.47-.49,4.68-4.31,6.46-8,8.2a24.06,24.06,0,0,0-4.56,2.53,24.61,24.61,0,0,0-3.9,4.27c-2.15,2.74-4.37,5.59-7.9,6.24a11.91,11.91,0,0,1-5.66-.54c-2.15-.59-4-1.1-6.6.15-2.26,1.07-5.28,3.49-8,5.63-1.42,1.14-2.77,2.22-3.92,3a13.35,13.35,0,0,0-4.39,4.22c7.7,2.4,15.65-1.19,23.33-4.67,5-2.25,9.72-4.39,14.29-4.89a23.24,23.24,0,0,1,5,.07c3.47.33,5.38.51,8-5.19a27.3,27.3,0,0,0,1.71-5.32c.76-3.14,1.48-6.11,4.86-8.67a20.92,20.92,0,0,1,4.91-2.39c3.44-1.34,7-2.72,7.63-6.18.74-4.13-1.64-5-4.65-6.13-2.23-.82-4.76-1.76-5.43-4.44-.63-2.51-.32-4.14.94-4.83,2.72-1.5,8.59,2.45,10,3.85,4.55,4.54,6.25,4.84,9.63,5.46A46.81,46.81,0,0,1,540,64.73c2.94.87,4.48,1.9,4.83,3.2.48,1.77-1.33,3.42-3.43,5.32a20.21,20.21,0,0,0-3.83,4.15,8.25,8.25,0,0,0-1.22,6.13c.29,2.13.22,3.53-3,5.09a23,23,0,0,1-6.06,1.88c-3.37.67-5.4,1.07-6.79,6.89-1.1,4.59-.52,6.24.14,6.8s2,.74,5.34-1a10.27,10.27,0,0,0,2.47-2.34c1.39-1.59,2.83-3.24,4.61-3.26,1.56,0,2.7,1.19,3.69,2.27a5,5,0,0,0,2.51,1.84c6.63.92,7.36-3.56,8.21-8.76a21.65,21.65,0,0,1,1.76-6.57c1.45-2.72,4-4.11,6.28-3.46s3.6,2.89,3.88,6.25c.3,3.69-2.38,5.59-4.74,7.27-2.07,1.47-4,2.86-4,5.23,0,2.65.56,3.17.74,3.26.73.39,2.48-1.07,3.42-1.85a14.17,14.17,0,0,1,1.23-1c.27-.17.34-.45.44-1a2.63,2.63,0,0,1,1.65-2.26c1.17-.47,2.57.2,3.91.86,1.16.56,2.37,1.15,3.12.81,1-.43,1.5-.94,1.64-1.55.29-1.24-1-3.07-2.25-4.84-1.44-2-2.94-4.17-2.77-6.18.41-5.16,5.43-7.62,10-7,3.91.51,8.4,3.43,8.22,9.94-.07,2.41-1.87,4.36-3.62,6.24-2.7,2.92-4.2,4.88-2.3,7.56l0,0c1.21,1.69,2.26,2.53,3.05,2.41,1.63-.23,2.63-4.29,3.23-6.71a17.91,17.91,0,0,1,.74-2.56c1.34-3,3.9-5.06,6.39-5.11,1.37,0,3.36.54,5.14,3.3.58.93.62,2.55.65,4.43,0,2.2.09,4.95,1.24,5.92a2.36,2.36,0,0,0,2.06.34c2-.37,2-2.34,1.94-5.53-.08-2.68-.17-5.46,2.07-6.36a4.31,4.31,0,0,1,3.61,0c2.48,1.2,3.79,4.66,4.74,7.18.28.73.51,1.35.72,1.76l.44.89c1,2,1.62,3.22,2.36,3.5s2.32-.29,5.33-1.77c1.4-.69,2.29-1.21,2.93-1.6,1.65-1,1.9-1,3.41.1a35.6,35.6,0,0,0,3.8,2.36c2.07,1.13,7.47,2.31,9.07,1.06.88-.69.92-2,1-3.42,0-1.59.09-3.38,1.44-4.47l.37-.29.39.31c.43.36.87.71,1.31,1.06,3.08,2.48,6,4.81,7.24,8.37a8.84,8.84,0,0,1,.22,4c-.11,1-.21,1.77.16,2.19s1.56.66,3.39.58c2.85-.12,3.77-2,4.85-4.24a19.28,19.28,0,0,1,1.36-2.5c1.63-2.38,3-3.5,4.45-3.66,1.77-.2,3.32,1.06,5.28,2.65.63.51,1.31,1.06,2.06,1.62,9.15,6.75,16.63,3.63,24.55.33,5.14-2.14,10.47-4.36,16.42-3.87m-451.78,1.17.14.17c1.46,1.38,6.68-.2,9-1.31,1-.47,1.78-.88,2.43-1.21,2.9-1.48,3.23-1.55,5.42.64.61.62,1.44,1.45,2.62,2.49,2.71,2.39,4.4,3.3,5.64,3s2.4-1.92,3.77-5.64a16.45,16.45,0,0,0,.6-2.8c.33-2.07.71-4.41,2.05-5.61a3.53,3.53,0,0,1,3-.79,2.49,2.49,0,0,0,1.52-.16c3.76-2.11,4.76-4.53,6-7.59a31.37,31.37,0,0,1,3-6c3-4.57,5.49-3.72,8.07-2.82,1.84.64,3.74,1.3,6.35.32,5-1.9,7.22-10.87,7.16-16.64v-.69l.68.12a3.1,3.1,0,0,0,2.69-.52c1.59-1.39,1.53-5,1.48-8.25s-.1-6.1,1.46-6.9a27.65,27.65,0,0,1-2.94-.12c-2.21-.17-4.29-.33-5.7.71s-1.42,2.64-1.41,4.33c0,1.53,0,3.11-1.06,4.33-2.13,2.49-4.36,1.88-6.74,1.24a17.48,17.48,0,0,0-3-.63c-.81-.07-1.53-.2-2.18-.31-2.23-.4-3.07-.54-3.76,1.84-.43,1.51,1.38,5.65,2.79,6.32.78.38,2.42-.34,3.87-1,2.17-1,4.41-1.94,5.64-.33a2.63,2.63,0,0,1,.29,2.61c-1.15,3.08-7,6.86-8.9,7a16.29,16.29,0,0,1-6.15-1.1c-2.39-.75-4.65-1.46-6.3-.52-1.14.65-2,2.07-2.56,4.32,3.16.74,3.74,2.41,3.79,3.38.13,2.45-2.83,5.2-6.1,5.64a14.68,14.68,0,0,1-5.09-.59c-3.37-.78-6.31-1.46-7.73,2.48a22.47,22.47,0,0,1,2.26,1.35,16.09,16.09,0,0,0,2.55,1.47l.56.22-.16.56c-1,3.54-2,5.28-3.34,5.82s-2.57-.15-4.07-.93a12.82,12.82,0,0,0-4.45-1.61c-2-.24-2.49,0-2.63.12s-.07.69,0,1.25a6.39,6.39,0,0,1-1,5.21c-1.12,1.56-3.1,1.82-5,2.07-2.08.27-3.88.51-4.48,2.22-.31.9-.56,2.07-.1,2.73" transform="translate(0 -11.93)"/></g></g></g></svg>