<svg xmlns="http://www.w3.org/2000/svg" viewBox="0 0 310.27 364.55"><defs><style>.a{fill:#e5e4e2;}</style></defs><title>graphic-leaf-footer</title><path class="a" d="M158.66,362.2c-2.09-2.08-2.09-5.22-1-8.35,3.12-11.48,2.08-21.92-6.28-31.32-3.12-4.17-7.3-8.35-9.39-12.51-1-1.05-2.09-3.13-4.18-3.13H115.85c-2.07,1-5.21,1-7.3,2.08-9.39,1.05-18.79,0-28.18-1-1,0-3.13,0-4.18-3.14,17.75,3.14,34.45,3.14,51.15-2.08-4.18-2.09-8.35-4.18-13.57-5.22-9.39-1-18.79-1-28.19-5.22-9.4,2.09-19.83,1-30.27-1,5.21,5.22,8.35,11.49,14.61,14.62,9.4,4.18,16.69,11.48,27.15,13.57a94.11,94.11,0,0,0,41.74,0c3.14-1,6.27-1,9.4,2.09h-8.35c-12.52,3.13-26.09,3.13-38.62,1-7.31-1-15.66-1-21.92-7.3-1-1-3.14-2.09-4.18-3.12-11.49-5.22-18.79-13.58-25.05-23-6.26-7.3-10.44-16.7-16.71-24-1-1-2.08-2.08-1-3.13h2.09c2.09,5.22,6.26,6.27,11.48,6.27,2.09,1,5.22,2.08,7.31,3.13,7.3,3.13,13.56,5.22,20.87,5.22h31.32c8.35,2.08,16.69,5.22,24,10.44A35.8,35.8,0,0,1,143,303.75c3.13,6.27,8.35,9.39,13.58,14.61v-2.09c-3.13-15.66-9.4-30.27-15.66-44.89-6.27-11.48-13.57-20.87-20.88-30.27-3.12-5.22-6.25-10.44-12.52-12.52-8.35-4.18-17.75-4.18-26.09-9.4-3.13-2.09-8.36-2.09-10.44-6.26-1-2.09-3.14-4.18-5.22-6.26-4.17-2.09-8.34-3.13-10.44-7.31a19.34,19.34,0,0,0-8.34-7.3c-3.13-1-5.23-4.18-8.36-7.31-7.3-7.3-14.61-14.61-17.75-25.05,0-1-1-2.09-2.09-3.12A78.8,78.8,0,0,1,7.3,141.95C1,130.47,0,119,0,106.46,1,100.2,4.17,95,3.13,88.72a4.91,4.91,0,0,1,1-6.26c2.09-1,3.13,1,5.22,2.08C18.78,90.81,28.18,96,38.62,99.16c13.57,4.18,26.09,7.3,35.49,19.84l1,1c6.26,2.09,10.43,7.31,13.56,12.53C92.9,135.7,95,145.09,95,150.31c-3.13-10.45-8.36-17.75-15.65-25.05-3.14-3.13-8.35-4.18-11.49-8.36-5.22-6.26-11.48-8.36-18.78-11.48,0,4.18,2.09,6.26,4.18,9.4,8.35,14.61,14.61,31.3,18.78,48,1,2.09,1,3.13,2.09,4.18,4.18,5.22,9.39,8.35,13.57,14.61,2.09,2.09,3.13,6.26,7.3,6.26,1-6.26-2.09-12.52-3.13-18.79,6.27,9.4,8.36,19.84,9.4,30.27,6.26,4.18,9.39,11.48,14.6,17.75a3.8,3.8,0,0,0,1.06-3.13c0-5.22,1.05-11.48-3.13-15.65,2.07,0,4.18-1,6.25,1-1,8.35,0,17.75,0,27.14,0,2.09,1,3.13,2.09,5.22,11.48,14.61,20.88,30.26,27.15,48a89.78,89.78,0,0,0,10.43,16.7c0-7.3,4.17-12.52,4.17-19.83-1-7.31,0-14.62-4.17-21.92,0-1-1-2.09,0-2.09,2.09-5.22-1-9.4-2.08-13.57-3.13-7.3-4.18-14.61-6.28-20.88-1-7.3-1-14.61-3.12-21.91-2.09-6.27-5.22-13.57-1-20.87,1-1,0-2.09,0-3.13-4.18-15.66,0-30.28,5.22-43.84,2.09-5.22,3.13-10.44,6.27-14.62,4.17-5.23,5.21-11.48,8.35-17.75a8,8,0,0,1,2.09-5.22c3.13-5.22,6.27-10.44,8.35-16.7,3.14-7.3,4.18-8.35,11.49-8.35,8.35-8.35,15.66-17.75,26.09-24a5.41,5.41,0,0,1-2.09,4.18c-5.22,5.22-10.43,9.39-16.7,14.61-2.09,2.09-3.13,4.18-3.13,8.36,0,2.09-1,4.16-3.14,6.27-2.09-1.05-1-6.27-5.21-5.22-1,10.43-4.17,20.87-3.13,32.35-3.13-8.35-3.13-15.66-1-24-8.36,12.52-15.67,25.05-16.71,39.66-5.21,1-8.35,4.18-7.3,9.4,0,3.13,1,7.3,1,11.48-3.13-2.08-1-5.23-3.13-7.3-1,1-2.09,2.08-2.09,3.13-3.13,12.52-6.27,25-1.05,38.62,1.05,4.18,2.1,7.31-3.12,9.4,2.09,9.39,3.12,19.84,9.4,28.18-3.13,5.22,0,21.93,4.17,26.1,0-2.09-2.09-4.17,0-6.27A51.42,51.42,0,0,0,168,248.42c0-16.7-5.21-33.4-7.3-51.14,4.18,14.6,7.3,29.22,10.44,43.84,1-14.62-5.22-29.24-6.27-43.84,2.09,8.34,5.22,17.74,8.35,27.14a11.49,11.49,0,0,0,0-8.35c-1-15.66-4.18-31.32-10.44-45.93-3.13-8.35-4.17-18.79-5.21-29.22a6.73,6.73,0,0,1,2.08,5.21A238.59,238.59,0,0,0,167,175.36c4.18,12.52,8.35,25,9.4,38.62a69.67,69.67,0,0,0,1,14.62c2.09-6.27,4.18-11.49,6.27-17.75,1-7.3,4.17-13.56,7.3-19.83,1.05-2.08,2.1-4.18,2.1-6.26C191,171.18,190,157.61,186.84,144a81.5,81.5,0,0,1-3.13-23c4.17,17.74,9.39,34.44,11.48,53.23,4.18-8.35,9.4-15.66,6.27-25.05-2.09-11.49-4.18-23-6.27-33.4,0-2.09-1-4.18,0-6.26,4.18,12.53,6.27,25.05,10.45,37.57-3.13-21.91-8.36-42.79-8.36-64.72,1,18.79,7.31,37.58,10.44,57.41,1-2.09,3.14-4.17,2.09-6.27-3.13-5.21-3.13-11.47-5.22-16.69-3.13-15.65-3.13-31.32-2.08-47,0-1,0-1,1-1a313,313,0,0,0,1,31.31c2.09,9.4,3.13,19.83,7.3,29.23,0-9.4-3.13-18.79-2.08-29.23a43.83,43.83,0,0,0,6.26,21.92c1-3.13,2.09-5.22,2.09-7.3A101,101,0,0,1,214,84.54c-1-11.48-1-21.91,2.09-33.39,1-3.13,3.13-6.26,3.13-9.4-1-1-3.13-1-3.13-3.13,2.09-8.35,8.36-12.52,15.67-15.65-1-5.22,2.08-8.36,5.22-11.49a12.6,12.6,0,0,0,5.22-5.21C244.24,2.09,247.38,1,250.51,0c1,8.35,2.09,15.65,4.18,21.92,4.18,11.48,5.22,24,10.44,34.45,4.17,8.35,2.09,18.8,4.17,28.17,0,1-1,3.14,1,3.14,3.13,2.09,3.13,6.26,3.13,9.4a170.12,170.12,0,0,1-3.13,32.36c3.13,1,3.13,4.16,3.13,6.26-3.13,12.51-5.21,25-13.56,36.53,3.13,1,3.13,2.09,2.08,5.22-2.08,4.18-4.17,8.35-7.3,11.49,0,1-1,2.08-1,3.13-1,6.27-4.18,10.44-6.27,15.65a105,105,0,0,1-19.82,24c-5.23,4.17-9.4,10.44-16.7,11.48,0,3.14-1,5.22-4.18,6.27-1,0-1,1-2.09,2.09-5.22,4.18-10.44,9.39-15.66,13.56-9.39,8.35-13.57,18.79-17.74,29.23,4.18-4.17,7.31-9.38,11.48-14.61,9.4-10.44,21.92-17.75,34.45-21.91,13.57-5.22,28.18-9.4,41.75-14.62,3.13-1,6.26-3.13,9.4-2.08,13.57,2.08,27.14-1,40.7-1,2.09,2.09,1,3.13,1,5.22-2.08,8.35-5.22,15.65-10.44,21.91-1,1-3.12,2.09-2.09,3.13,1.05,3.13-1,5.22-2.09,8.35-3.13,5.23-9.39,6.28-12.52,11.49,1,3.13,0,6.26-4.18,7.31a37.19,37.19,0,0,0-9.4,4.18c-1,9.4-15.65,18.79-28.17,18.79-3.13,4.18-7.31,5.23-12.52,6.26-7.31,1-14.62-1-21.92,1-1,0-2.09,0-2.09-2.07,5.22-2.1,11.48-2.1,16.7-2.1,5.22-1,10.45,0,14.62-4.17,2.08-2.09,4.17-2.09,7.29-3.13,6.27,0,11.49-2.09,15.67-7.31A112.56,112.56,0,0,1,240.08,310c-3.13,0-4.17-1.05-4.17-4.18-2.09,0-4.18,1-6.27-1,0-2.08,3.13-1,3.13-2.08-2.09-1-4.17,0-6.26-2.09,8.35-1,17.74-1,26.09-2.09a110,110,0,0,0,25.05-6.27c0-4.17,1-5.21,4.18-7.29a32,32,0,0,0,7.3-5.23c2.09-2.09,5.22-4.18,4.17-8.35,0-4.18,1-6.27,4.17-9.4,5.23-4.17,6.28-11.48,8.35-17.75C293.31,255.74,277.65,263,262,271.38c8.35-1,15.66-4.18,24-7.3-7.31,4.17-13.58,8.35-19.84,12.52s-14.61,5.22-23,4.18c-3.12,0-7.29,1-11.47,2.09,15.65,2.09,29.22,2.09,43.84-2.09,3.13-1,7.3-2.1,9.39-5.22,2.09-1,3.13-1,5.22,1-2.09,1-4.17,4.18-6.26,5.22-10.45,3.14-20.88,6.26-32.36,6.26a154.36,154.36,0,0,0-21.92-1c-8.35,0-15.66,3.13-23,5.21,2.09,1,4.18,0,6.26,2.09-2.09,1-5.22,2.09-7.3,3.14,1,1,4.18-1,5.22,2.09-5.22,1-10.44,1-15.67,3.13,10.45,3.13,21.93,3.13,32.37,4.18-1,3.13-3.13,3.13-4.18,3.13a91.72,91.72,0,0,1-16.7-2.09c-8.35-1-15.67-2.09-24,1-3.12,1.05-7.3,2.09-9.39,6.26,8.35-1,15.66-3.12,23-2.09l-9.39,3.13c1,1,2.09,0,2.09,2.09A69.92,69.92,0,0,0,167,328.8c9.4-6.27,20.87-6.27,32.35-9.39,2.09,1,4.18,3.12,2.09,7.3-3.13-1-7.31-1-10.45-1-15.65,0-24,8.34-24,24,0,4.17,0,8.35-2.09,12.52q-3.13,4.7-6.26,0Zm5.21-12.52c-2.08,4.17-2.08,4.17-2.08,9.4,2.08-3.13,1-6.27,2.08-9.4Zm0-16.7a6.67,6.67,0,0,0,0,6.26c1-3.13,1-3.13,0-6.26Zm-2.08-7.29c-1-5.23-3.13-2.1-4.17-2.1,0,3.13,2.08,2.1,4.17,2.1Zm17.75-21.93c4.17-3.14,6.26-7.31,9.39-11.49A169.38,169.38,0,0,1,215,263c-6.26,1-15.66,6.26-23,12.52-9.4,8.35-16.7,17.75-20.88,29.23-2.09,2.09-2.09,5.23-5.22,7.31-1,1-1,3.12-1,5.21,3.13-6.25,10.44-8.35,14.62-13.56Zm67.84,2.09c.82,0,1.75,0,2.77.08a7.33,7.33,0,0,1-2.77-.08Zm17.75-2.09c-5.83-.83-11,1.66-15,2.16,4.22.17,9.94.36,15-2.16ZM168,299.57c-3.13,1-2.08,3.13-2.08,4.18,2.08-1,2.08-2.09,2.08-4.18Zm-31.32-1c-10.44-12.52-24-18.79-39.65-19.84H68.89c-7.3,0-13.57-3.12-19.82-6.25-2.09-1-3.14-2.09-5.22-1C50.11,286,53.24,289.13,71,289.13A71.8,71.8,0,0,0,60.53,285a15.22,15.22,0,0,1-9.39-6.28c11.47,2.1,20.87,10.45,34.44,10.45A23,23,0,0,1,80.37,286c4.17-1,7.31,0,10.44,2.08,5.22,3.13,10.44,5.22,17.75,5.22-6.26-6.26-14.61-7.3-20.88-11.48,12.53,1,20.88,7.3,30.28,14.61-5.23-7.3-13.57-10.43-19.84-15.65,14.61,5.22,26.09,17.74,40.7,21.92,1-1,0-3.13-2.09-4.18Zm116.91,3.13c-5.22,2.09-10.45,1-15.66,1a78.7,78.7,0,0,1,15.66-1Zm-48-14.61c4.18-7.31,9.39-12.53,15.65-18.79-2.09,6.26-8.35,10.43-9.39,16.71,6.27-6.28,12.53-12.53,19.84-16.71,2.08,1,1,1,1,2.08-2.09,1-4.17,3.13-6.26,5.22-1,2.09-4.18,3.12-5.22,6.27,3.14-1,6.27-1,8.35-3.14,18.78-5.21,37.58-13.57,54.28-22.95,5.22-2.09,10.44-5.22,13.56-9.4-1-2.09-2.09-2.09-3.12-1-7.31,0-14.61,1-21.93-1.05-5.21-1-10.44,1.05-14.61,3.14a9.41,9.41,0,0,0-6.27,6.27c-2.09-3.13-4.18-2.09-7.31-1-9.39,2.09-19.82,5.22-27.13,12.52-8.35,7.31-15.66,15.66-23,25.05,0,1-1,1,0,3.13,4.18-1,8.36-2.09,11.49-6.26Zm52.19-9.4c-4.18-2.09-8.35-4.18-12.53,1a51.28,51.28,0,0,0,12.53-1ZM190,252.6c-3.13,7.31-10.43,12.52-13.56,19.83h1c7.31-9.4,15.66-15.66,24-23,1-1,2.08-1,2.08-2.09,1-5.22,4.18-7.31,9.4-9.39,0-3.13,2.09-4.17,5.22-5.21,6.27-1,9.4-6.27,13.58-10.45,7.3-6.26,11.47-15.65,15.65-24,1-1,1-1,1-2.09-2.08-5.22,2.09-8.35,5.22-10.44,4.18-4.17,4.18-8.35,3.12-12.52,0-4.18,3.14-7.31,5.22-10.44,4.18-7.31,4.18-14.62,6.27-21.91,1,0,1-1.06,0-1.06-4.17-5.21-1-10.43-1-16.69v-2.09C262,129.43,255.73,135.7,251.55,143c1,2.09,2.09-1,4.18,1-6.26,5.22-8.35,13.57-13.56,19.84-10.44,12.53-24,19.83-34.45,31.31-4.18,4.18-7.3,7.32-10.44,12.53,9.4-6.26,15.66-15.65,26.1-20.88,1,2.1-1,3.13-2.09,4.18-3.13,3.14-7.3,6.27-10.43,9.39,0,1-1,1-1,2.09,0,7.3-5.22,8.34-9.4,12.52l-2.09,2.09c-4.18,3.14-7.31,6.27-8.36,10.44-2.09,5.22-6.26,10.44-9.38,13.57-4.18,5.22-4.18,10.44-5.22,15.66,7.3-9.39,14.6-18.79,24-26.1-4.18,5.22-8.35,10.44-12.52,16.7-4.18,5.22-8.34,9.39-12.52,15.66-2.09,2.08-2.09,6.26-2.09,10.43,6.27-8.35,11.48-15.65,17.74-20.87ZM168,264.09c-2.08,2.08-1,5.21-1,7.3,3.13-3.13,3.13-3.13,1-7.3Zm-56.37-41.76c-1,1-2.08,2.09-4.17,1,2.09,2.09,2.09,2.09,4.17-1Zm71.86-.61c-.33,1-.64,2-.88,2.7-.31-.94.13-1.78.88-2.7Zm5.38-9.84c1-5.21,6.26-9.38,10.43-13.56,8.35-8.36,17.75-16.7,27.15-23,0-2.09-1-1-2.09-2.09,4.18-11.48,14.61-17.75,21.92-27.15,8.34-11.48,16.69-21.91,21.91-34.44,2.09-5.22,2.09-10.43,2.09-15.66-3.13-1-5.22,0-6.26,2.08-4.18,8.35-8.36,17.75-14.62,24-9.39,10.44-17.74,20.87-29.22,29.22-12.53,9.39-23,21.92-26.1,38.62-1,6.27-6.26,12.53-7.3,18.79a93.4,93.4,0,0,1-3.29,13c1.79-2.14,5.38-4.71,5.38-9.84ZM77.24,203.54c11.48,1,20.88,6.26,31.32,11.48-9.39-8.35-20.88-12.52-31.32-17.74,7.3,0,12.53,4.17,20.88,6.26-6.27-7.3-14.61-9.39-21.93-12.53,9.4,0,15.66,5.22,23,8.35-2.08-5.21-7.31-6.25-11.48-9.39-9.39-4.18-19.84-6.26-29.24-9.39-4.17-2.1-9.38-3.14-13.56-6.27s-9.39-5.22-14.61-7.3c-1,0-1,0-1,1,3.13,4.18,7.31,9.4,11.48,14.62,4.18,4.17,8.36,8.35,14.61,9.39,2.09,0,3.12,1,3.12,3.12,0,4.18,3.14,5.22,5.22,6.27,9.39,8.35,20.88,12.53,33.41,15.66,3.13,1,6.26,2.09,10.43,3.14-8.35-8.36-19.83-11.49-30.27-16.7Zm12.53,15.65v-1c-4.18-2.08-9.39-4.17-13.57-6.27l-1,1c5.21,2.09,9.39,4.18,14.61,6.26ZM74.11,170.14a3.83,3.83,0,0,0-3.13-1c-19.83-6.26-37.58-14.6-52.2-29.23,13.57,10.45,28.19,18.79,44.88,23-10.43-7.31-23-12.52-34.44-18.79,9.4,2.09,18.79,6.27,28.19,10.45-6.27-4.18-13.57-7.31-19.84-10.45-6.26-4.18-13.57-7.3-18.79-12.52S9.39,120,3.13,112.73A62.7,62.7,0,0,0,6.26,133.6c3.14,8.35,9.4,15.67,15.67,21.93,4.17,3.13,5.21,7.31,10.43,10.44,13.57,6.27,26.09,13.58,40.71,15.66,5.22,1,9.39,4.17,15.66,5.21-4.18-6.25-9.39-11.48-14.61-16.7ZM239,158.66c-4.17,1-5.22,4.18-7.3,6.26,3.13-1,5.22-3.13,7.3-6.26Zm-21.92-7.31c13.57-12.52,27.13-26.09,37.57-41.75,11.48-15.66,11.48-31.31,8.35-49.06-1-3.13-5.22-3.13-5.22-7.3-3.13,3.13-4.18,7.3-5.22,10.43C249.47,76.19,241.12,85.59,232.77,96c-6.26,8.35-11.48,16.7-14.61,27.15s-7.3,19.82-11.48,29.22c-1,3.13-3.14,6.27-3.14,11.48,6.27-3.13,8.35-8.35,13.57-12.53ZM67.84,156.57C62.62,144,60.53,131.52,53.24,120c-3.13-5.21-5.22-10.44-8.36-14.61-3.13-2.09-4.18-3.13-8.35-2.09C43.84,108.55,44.88,118,48,125.26c-5.22-7.31-9.4-16.71-15.66-24a1,1,0,0,0-1,1c1,3.13,3.13,6.26,5.22,10.44h-1c-2.09-3.13-5.22-6.27-7.31-9.39S24,96,19.83,93.94c-4.18-1-7.31-4.18-12.53-4.18,0,5.22-3.13,10.44-4.17,16.7a7.91,7.91,0,0,0,2.09,4.19A124.9,124.9,0,0,0,23,132.56c5.22,5.21,11.48,6.26,17.75,10.43a71.15,71.15,0,0,0,8.36,3.13C31.32,131.52,23,111.68,10.43,93.94c3.14,0,4.18,1,6.27,4.17,4.18,7.31,9.4,15.66,14.62,23,5.22,8.35,12.53,15.66,19.83,23,4.17,3.13,6.27,7.31,10.44,10.45,2.08,2.09,4.17,3.12,6.26,5.21a2,2,0,0,0,0-3.12Zm176.4-4.18c-2.08,1-3.12,1-3.12,3.13,2.08,0,2.08-1,3.12-3.13ZM228.6,87.68c1,3.13-2.09,6.26,0,9.4l12.52-15.66A146.34,146.34,0,0,0,256.77,50.1a8.85,8.85,0,0,0,0-7.3c-3.12-12.53-6.26-25.05-10.42-37.57-3.15,6.25-11.48,7.3-10.44,15.65,0,2.09-2.09,2.09-4.18,2.09,1,2.09-1,3.13-2.09,4.17-5.21,3.13-8.35,7.31-9.39,13.57-1,9.4-4.18,18.79-4.18,28.19-1,13.56,1,26.09,3.13,38.61a69.23,69.23,0,0,0,9.4-19.83Z"/><path class="a" d="M111.68,195.18c-1-8.35,0-15.64-2.08-23-1-6.27-2.09-11.48-6.27-15.66-2.09,0-5.22,2.09-6.26-2.09,1-1,2.08-4.18,4.17-5.22,2.09,2.09,4.18,4.18,5.22,6.26,5.21,9.39,7.31,19.84,7.31,31.31,0,3.13,1,7.31,0,11.49-3.14,1-2.1-2.09-2.1-3.14Z"/><path class="a" d="M257.82,291.22a3.64,3.64,0,0,1,1,2.09c-12.52,1-25.05,3.13-37.58,2.09,12.53-1,24-5.22,36.54-4.18Z"/><path class="a" d="M76.19,129.43l1-1c3.13,7.3,8.35,12.53,9.39,20.87h-1c-3.13-6.27-6.26-13.57-9.4-19.83Z"/><path class="a" d="M193.1,146.13c1,5.22,2.08,9.4,3.13,14.62h-1a23,23,0,0,1-2.08-14.62Z"/><path class="a" d="M226.51,275.56c2.09-2.09,4.18-4.18,6.26-5.22,10.43-5.22,18.78-14.6,29.22-20.87,0,2.09-1,3.13-3.13,4.18a209.54,209.54,0,0,1-16.69,14.61c-4.18,3.13-9.4,5.21-12.53,10.43-2.08,0-2.08-2.08-3.13-3.12Z"/><path class="a" d="M232.77,185.79a169.37,169.37,0,0,0,17.74-20.88c5.22-7.31,10.44-14.61,14.61-21.92-3.13,17.75-39.66,59.5-53.23,59.5,7.31-7.32,14.62-11.49,20.88-16.71Z"/><path class="a" d="M205.63,233.81c-1,3.13-4.18,5.21-6.27,8.35,0-4.18,3.14-6.27,6.27-8.35Z"/><path class="a" d="M199.36,242.16a44.82,44.82,0,0,0-6.26,7.31c1-4.18,2.08-7.31,6.26-7.31Z"/><path class="a" d="M238,54.27l1,1c-2.08,9.39-5.22,18.79-8.35,28.18-1-10.44,5.22-18.78,7.3-29.22Z"/><path class="a" d="M245.29,24c-2.09,2.09-1,4.18-2.09,5.22,2.09-1,2.09-2.09,2.09-5.22Z"/><path class="a" d="M243.2,29.22a13.41,13.41,0,0,1-1,6.27c2.08-1,2.08-4.18,1-6.27Z"/><path class="a" d="M37.57,115.86c1,2.09,2.09,3.14,3.13,5.22a5.74,5.74,0,0,0-3.13-5.22Z"/><path class="a" d="M262,114.83c-10.44,19.82-23,37.57-40.71,51.14,15.66-15.65,28.18-32.36,40.71-51.14Z"/><path class="a" d="M217.11,162.83c-2.09,5.21-9.4,14.61-13.57,15.66,4.18-6.26,7.31-11.48,13.57-15.66Z"/><path class="a" d="M205.63,182.67a1,1,0,0,1,1,1c-3.14,3.13-5.22,6.26-8.35,9.4h-1c2.09-4.18,4.18-8.36,8.36-10.44Z"/></svg>