<svg xmlns="http://www.w3.org/2000/svg" xmlns:xlink="http://www.w3.org/1999/xlink" viewBox="0 0 532.76 110.02"><defs><style>.a{fill:none;}.b{clip-path:url(#a);}.c{fill:#2f2235;}.d{fill:#c49a6c;}</style><clipPath id="a" transform="translate(0 0)"><rect class="a" width="532.76" height="110.01"/></clipPath></defs><title>logo-1-2-colour</title><g class="b"><g class="b"><path class="c" d="M98.37,109.85V99.34h1.31l4.4,5.84c.61.8,1.22,1.63,1.81,2.45h0c0-.91,0-2,0-3V99.34h1.34v10.52h-1.31l-4.4-5.84c-.61-.8-1.22-1.63-1.82-2.45l0,0c0,.91,0,2,0,3v5.29Z" transform="translate(0 0)"/><path class="c" d="M117.16,99.34h1.32l4.34,10.52h-1.48l-1.18-2.93h-4.74l-1.19,2.93h-1.41Zm-1.25,6.38h3.78l-.86-2.18c-.33-.84-.68-1.74-1-2.6h0c-.32.86-.67,1.74-1,2.64Z" transform="translate(0 0)"/><polygon class="c" points="129.74 100.59 126.21 100.59 126.21 99.34 134.65 99.34 134.65 100.59 131.12 100.59 131.12 109.86 129.74 109.86 129.74 100.59"/><path class="c" d="M140.36,104.9V99.34h1.38v5.42a5.93,5.93,0,0,0,.41,2.72,2.59,2.59,0,0,0,2.5,1.26,2.55,2.55,0,0,0,2.47-1.26,5.79,5.79,0,0,0,.39-2.66V99.34h1.34v5.4a6.49,6.49,0,0,1-.7,3.63,4.09,4.09,0,0,1-3.56,1.64,4,4,0,0,1-3.53-1.64,6.36,6.36,0,0,1-.7-3.47" transform="translate(0 0)"/><path class="c" d="M155.43,99.34h2.85a5.91,5.91,0,0,1,2.93.52,2.67,2.67,0,0,1,1.45,2.45,2.79,2.79,0,0,1-1.35,2.47,3.24,3.24,0,0,1-1.21.44l3.37,4.63h-1.67l-3.21-4.5h-1.79v4.5h-1.38Zm3.17,4.88a3.33,3.33,0,0,0,2.06-.48,1.55,1.55,0,0,0,.63-1.31,1.63,1.63,0,0,0-.86-1.5,4.65,4.65,0,0,0-2.25-.35h-1.36v3.63Z" transform="translate(0 0)"/><path class="c" d="M172.47,99.34h1.32l4.34,10.52h-1.48l-1.18-2.93h-4.74l-1.19,2.93h-1.41Zm-1.25,6.38H175l-.86-2.18c-.33-.84-.68-1.74-1-2.6h0c-.32.86-.67,1.74-1,2.64Z" transform="translate(0 0)"/><polygon class="c" points="183.74 99.34 185.12 99.34 185.12 108.61 190.09 108.61 190.09 109.86 183.74 109.86 183.74 99.34"/><polygon class="c" points="196.05 99.34 197.43 99.34 197.43 108.61 202.39 108.61 202.39 109.86 196.05 109.86 196.05 99.34"/><path class="c" d="M210,105.1l-4.05-5.77h1.6l1.79,2.57c.45.65.92,1.32,1.37,2h0c.43-.67.89-1.32,1.37-2l1.77-2.56h1.54l-4,5.75v4.76H210Z" transform="translate(0 0)"/><polygon class="c" points="228.83 99.34 234.9 99.34 234.9 100.59 230.21 100.59 230.21 103.78 234.32 103.78 234.32 104.99 230.21 104.99 230.21 108.61 235.03 108.61 235.03 109.86 228.83 109.86 228.83 99.34"/><path class="c" d="M243.93,103.71c-.48-.68-.94-1.38-1.41-2.08h0c0,.63,0,1.42,0,2.28v5.93h-1.34V99.34h1.34l3.73,5.35L250,99.34h1.32v10.52h-1.38v-5.93c0-.86,0-1.66,0-2.28h0c-.47.7-.93,1.39-1.41,2.08L246.23,107Z" transform="translate(0 0)"/><path class="c" d="M258,99.34h2.82a5.09,5.09,0,0,1,2.8.55,2.39,2.39,0,0,1,1.23,2.15,2.25,2.25,0,0,1-1.6,2.22v0a2.37,2.37,0,0,1,2,2.45,2.87,2.87,0,0,1-1.2,2.41,5.59,5.59,0,0,1-3.28.7H258Zm3.46,4.59c1.06,0,2-.49,2-1.64a1.46,1.46,0,0,0-.74-1.34,4,4,0,0,0-2.11-.36H259.4v3.34Zm-.58,4.68a4,4,0,0,0,2.34-.45,1.62,1.62,0,0,0,.68-1.38c0-1.16-.92-1.79-2.48-1.79h-2v3.62Z" transform="translate(0 0)"/><path class="c" d="M271.59,99.34h2.85a5.92,5.92,0,0,1,2.93.52,2.67,2.67,0,0,1,1.45,2.45,2.79,2.79,0,0,1-1.35,2.47,3.23,3.23,0,0,1-1.2.44l3.37,4.63H278l-3.21-4.5H273v4.5h-1.38Zm3.17,4.88a3.33,3.33,0,0,0,2.06-.48,1.55,1.55,0,0,0,.62-1.31,1.62,1.62,0,0,0-.86-1.5,4.65,4.65,0,0,0-2.25-.35H273v3.63Z" transform="translate(0 0)"/><path class="c" d="M288.63,99.34h1.32l4.34,10.52h-1.48l-1.18-2.93H286.9l-1.19,2.93H284.3Zm-1.25,6.38h3.78l-.86-2.18c-.33-.84-.68-1.74-1-2.6h0c-.32.86-.67,1.74-1,2.64Z" transform="translate(0 0)"/><path class="c" d="M304.43,99.18a6.09,6.09,0,0,1,3,.74v1.51a5.1,5.1,0,0,0-3-1,4.14,4.14,0,0,0,.12,8.28,4.75,4.75,0,0,0,3-1.06v1.52a5.92,5.92,0,0,1-3.09.81,5.42,5.42,0,1,1,0-10.84" transform="translate(0 0)"/><polygon class="c" points="313.79 99.34 319.86 99.34 319.86 100.59 315.17 100.59 315.17 103.78 319.28 103.78 319.28 104.99 315.17 104.99 315.17 108.61 319.99 108.61 319.99 109.86 313.79 109.86 313.79 99.34"/><path class="c" d="M326.15,99.34H329a7.08,7.08,0,0,1,3.72.86,5,5,0,0,1,2.35,4.36,5.09,5.09,0,0,1-2.09,4.24,7.26,7.26,0,0,1-4.33,1.06h-2.54Zm2.76,9.27a5.63,5.63,0,0,0,3.12-.7,4.06,4.06,0,0,0,0-6.6,5.6,5.6,0,0,0-3.17-.73h-1.35v8Z" transform="translate(0 0)"/><polygon class="c" points="349.05 99.34 350.43 99.34 350.43 108.61 355.4 108.61 355.4 109.86 349.05 109.86 349.05 99.34"/><rect class="c" x="361.35" y="99.34" width="1.38" height="10.52"/><path class="c" d="M368.34,99.34h1.48l2.24,5.9c.35.91.68,1.82,1,2.79h0c.35-1,.7-1.89,1.06-2.83l2.25-5.85h1.41l-4,10.52h-1.41Z" transform="translate(0 0)"/><rect class="c" x="383.44" y="99.34" width="1.38" height="10.52"/><path class="c" d="M391.54,109.85V99.34h1.31l4.4,5.84c.61.8,1.22,1.63,1.82,2.45h0c0-.91,0-2,0-3V99.34h1.34v10.52h-1.31l-4.4-5.84c-.61-.8-1.22-1.63-1.82-2.45l0,0c0,.91,0,2,0,3v5.29Z" transform="translate(0 0)"/><path class="c" d="M412.07,99.18a6.17,6.17,0,0,1,3.22.87v1.57a5.16,5.16,0,0,0-3.25-1.16,4.15,4.15,0,1,0,0,8.31,4.71,4.71,0,0,0,2.15-.49v-2.45h-2.35v-1.21h3.73V109A6.7,6.7,0,0,1,412,110a5.27,5.27,0,0,1-5.45-5.39,5.32,5.32,0,0,1,5.55-5.45" transform="translate(0 0)"/><path class="c" d="M0,40.49H10.32c6.56,0,11.64,1.07,15.46,3.71,4.52,3.15,7.07,8.34,7.07,14.64,0,5.8-2.18,10.73-6.1,13.93C23,75.83,17.69,77.3,10,77.3H0ZM10.32,70.23c5.24,0,8.59-.91,10.88-2.9a10.92,10.92,0,0,0,3.56-8.49,10.69,10.69,0,0,0-4.27-9c-2.59-1.83-6.1-2.24-10.22-2.24H8.08V70.23Z" transform="translate(0 0)"/><path class="c" d="M46.82,58.9c0-10.73,8.29-19,19.22-19s19.22,8.24,19.22,19S77,77.86,66,77.86s-19.22-8.24-19.22-19m30.35,0c0-6.51-4.78-11.64-11.13-11.64S54.9,52.39,54.9,58.9,59.68,70.54,66,70.54,77.17,65.4,77.17,58.9" transform="translate(0 0)"/><path class="c" d="M99.39,58.9c0-10.73,8.29-19,19.22-19s19.22,8.24,19.22,19-8.29,19-19.22,19-19.22-8.24-19.22-19m30.35,0c0-6.51-4.78-11.64-11.13-11.64s-11.14,5.13-11.14,11.64,4.78,11.64,11.14,11.64,11.13-5.14,11.13-11.64" transform="translate(0 0)"/><path class="c" d="M168.27,62.46c-2.39-3.2-4.63-6.3-6.91-9.51l-.1.05c.05,3.51.1,7.07.1,10.63V77.3h-7.78V40.49h7.63l11,14.85c2.39,3.2,4.63,6.31,6.92,9.51l.1-.05c-.05-3.51-.1-7.07-.1-10.63V40.49h7.78V77.3H179.3Z" transform="translate(0 0)"/><path class="c" d="M314.87,66.51a23.23,23.23,0,0,0,11.74,3.81c2.95,0,5.14-1.17,5.14-3.92,0-3.41-3.46-3.71-8.19-5.24-5.08-1.68-9.66-4.17-9.66-10.58,0-6.86,5.19-11.14,12.91-11.14a25.34,25.34,0,0,1,11.24,2.64v8a23.37,23.37,0,0,0-11.29-3.56c-2.75,0-4.73,1-4.73,3.46,0,3.25,3.41,3.51,7.83,5,5.54,1.83,10,4.42,10,10.93,0,7.17-5.44,11.49-13.37,11.49a27.07,27.07,0,0,1-11.64-2.69Z" transform="translate(0 0)"/><path class="c" d="M353.66,58.42c0-10.73,8.29-19,19.22-19s19.22,8.24,19.22,19-8.29,19-19.22,19-19.22-8.24-19.22-19m30.35,0c0-6.51-4.78-11.64-11.13-11.64s-11.14,5.13-11.14,11.64,4.78,11.64,11.14,11.64S384,64.93,384,58.42" transform="translate(0 0)"/><path class="c" d="M439.58,59c0,5.54-.76,9.56-2.85,12.51-2.59,3.71-7.32,5.9-13.22,5.9s-10.68-2.19-13.27-6c-2-2.95-2.74-7-2.74-12.2V40h8.08V58.88c0,3.92.35,6.31,1.42,8s3.25,3.2,6.71,3.2c3.2,0,5.29-1.17,6.51-3.05,1.12-1.73,1.58-4.27,1.58-8.13V40h7.78Z" transform="translate(0 0)"/><polygon class="c" points="465.91 47.08 454.01 47.08 454.01 40.02 485.89 40.02 485.89 47.08 473.99 47.08 473.99 76.83 465.91 76.83 465.91 47.08"/><polygon class="c" points="500.68 40.02 508.76 40.02 508.76 54.25 524.67 54.25 524.67 40.02 532.76 40.02 532.76 76.83 524.67 76.83 524.67 61.32 508.76 61.32 508.76 76.83 500.68 76.83 500.68 40.02"/><path class="d" d="M295.42,35.19a42.95,42.95,0,1,0-6.88,32.14,43,43,0,0,0,6.88-32.14M221.19,64a53.75,53.75,0,0,1,27.94,13.48c1.3,1.18,2.51,2.45,3.69,3.75A38.43,38.43,0,0,1,221.19,64M274,75.15A58.92,58.92,0,0,0,263.7,62.82,62.54,62.54,0,0,0,229,47.42c-2.14,1.35-4.29,2.76-6.46,4.27h.69a57.81,57.81,0,0,1,37.32,14.55,54.34,54.34,0,0,1,9.33,11.16,38.2,38.2,0,0,1-8.49,2.94l-2.71.49-.78-.88a59,59,0,0,0-39.4-21h-.12A37.53,37.53,0,0,1,217,55.38l-.05-.15-.32-1c-.14-.46-.3-1-.44-1.6C238.52,36,259.38,27.76,281.09,27a104,104,0,0,0-66,19.7A38.32,38.32,0,0,1,253.2,4.64,38.4,38.4,0,0,1,288,27a29.22,29.22,0,0,1,1.26,3l-.62,0c-15.9-.71-31.21,2.63-46.9,10.32l6.83,1.77a54.41,54.41,0,0,1,33.41,25.72l.15.26A38,38,0,0,1,274,75.15m11.16-11.08A59,59,0,0,0,249.7,37.59l0,0c6-1.87,11-3.3,17.17-3.79l3,1.3A54.1,54.1,0,0,1,285.35,45a55,55,0,0,1,4.44,4.55l.92,1.06a38.17,38.17,0,0,1-5.6,13.46m6.33-19.58c-1-1-1.94-2-3-2.92a59,59,0,0,0-11.09-8A102.5,102.5,0,0,1,290.62,35c.07.34.17.67.23,1a38.62,38.62,0,0,1,.6,8.46" transform="translate(0 0)"/></g></g></svg>